# Blender 4.5.1 LTS
# www.blender.org
mtllib particlesWhiteBall.mtl
o 球體
v 0.000000 0.418591 -0.241673
v 0.000000 0.241673 -0.418591
v 0.000000 0.000000 -0.483347
v 0.000000 -0.241673 -0.418591
v 0.000000 -0.418591 -0.241673
v 0.209295 0.418591 -0.120837
v 0.362510 0.241673 -0.209295
v 0.418591 0.000000 -0.241673
v 0.362510 -0.241673 -0.209295
v 0.209295 -0.418591 -0.120837
v 0.209295 0.418591 0.120837
v 0.362510 0.241673 0.209295
v 0.418591 0.000000 0.241673
v 0.362510 -0.241673 0.209295
v 0.209295 -0.418591 0.120837
v -0.000000 0.418591 0.241673
v -0.000000 0.241673 0.418591
v -0.000000 0.000000 0.483347
v -0.000000 -0.241673 0.418591
v -0.000000 -0.418591 0.241673
v 0.000000 0.483347 0.000000
v -0.209295 0.418591 0.120837
v -0.362510 0.241673 0.209295
v -0.418591 0.000000 0.241673
v -0.362510 -0.241673 0.209295
v -0.209295 -0.418591 0.120837
v -0.209295 0.418591 -0.120837
v -0.362510 0.241673 -0.209295
v -0.418591 0.000000 -0.241674
v -0.362510 -0.241673 -0.209295
v -0.209295 -0.418591 -0.120837
v 0.000000 -0.483347 0.000000
vn 0.1478 -0.9553 -0.2560
vn 0.4871 -0.2260 -0.8436
vn 0.3780 0.6547 -0.6547
vn 0.3780 -0.6547 -0.6547
vn 0.4871 0.2260 -0.8436
vn 0.1478 0.9553 -0.2560
vn 0.7559 0.6547 -0.0000
vn 0.7559 -0.6547 -0.0000
vn 0.9741 0.2260 -0.0000
vn 0.2956 0.9553 -0.0000
vn 0.2956 -0.9553 -0.0000
vn 0.9741 -0.2260 -0.0000
vn 0.3780 -0.6547 0.6547
vn 0.4871 0.2260 0.8436
vn 0.1478 0.9553 0.2560
vn 0.1478 -0.9553 0.2560
vn 0.4871 -0.2260 0.8436
vn 0.3780 0.6547 0.6547
vn -0.3780 -0.6547 0.6547
vn -0.4871 0.2260 0.8436
vn -0.1478 0.9553 0.2560
vn -0.1478 -0.9553 0.2560
vn -0.4871 -0.2260 0.8436
vn -0.3780 0.6547 0.6547
vn -0.7559 -0.6547 -0.0000
vn -0.9741 0.2260 -0.0000
vn -0.2956 0.9553 -0.0000
vn -0.2956 -0.9553 -0.0000
vn -0.9741 -0.2260 -0.0000
vn -0.7559 0.6547 -0.0000
vn -0.3780 -0.6547 -0.6547
vn -0.4871 0.2260 -0.8436
vn -0.1478 0.9553 -0.2560
vn -0.1478 -0.9553 -0.2560
vn -0.4871 -0.2260 -0.8436
vn -0.3780 0.6547 -0.6547
vt 0.583333 0.000000
vt 0.666667 0.166667
vt 0.500000 0.166667
vt 0.666667 0.500000
vt 0.500000 0.333333
vt 0.666667 0.333333
vt 0.666667 0.833333
vt 0.500000 0.666667
vt 0.666667 0.666667
vt 0.500000 0.500000
vt 0.583333 1.000000
vt 0.500000 0.833333
vt 0.333333 0.666667
vt 0.333333 0.333333
vt 0.333333 0.166667
vt 0.333333 0.500000
vt 0.416667 1.000000
vt 0.333333 0.833333
vt 0.416667 0.000000
vt 0.166667 0.166667
vt 0.166667 0.666667
vt 0.166667 0.500000
vt 0.250000 1.000000
vt 0.166667 0.833333
vt 0.250000 0.000000
vt 0.166667 0.333333
vt 0.000000 0.166667
vt 0.000000 0.500000
vt 0.083333 1.000000
vt 0.000000 0.833333
vt 0.083333 0.000000
vt 0.000000 0.333333
vt 0.000000 0.666667
vt 1.000000 0.333333
vt 0.833333 0.166667
vt 1.000000 0.166667
vt 1.000000 0.666667
vt 0.833333 0.500000
vt 1.000000 0.500000
vt 1.000000 0.833333
vt 0.916667 1.000000
vt 0.833333 0.833333
vt 0.916667 0.000000
vt 0.833333 0.333333
vt 0.833333 0.666667
vt 0.750000 1.000000
vt 0.750000 0.000000
s 0
usemtl 材質
f 32/1/1 5/2/1 10/3/1
f 3/4/2 9/5/2 4/6/2
f 1/7/3 7/8/3 2/9/3
f 4/6/4 10/3/4 5/2/4
f 3/4/5 7/8/5 8/10/5
f 1/7/6 21/11/6 6/12/6
f 6/12/7 12/13/7 7/8/7
f 10/3/8 14/14/8 15/15/8
f 7/8/9 13/16/9 8/10/9
f 6/12/10 21/17/10 11/18/10
f 32/19/11 10/3/11 15/15/11
f 8/10/12 14/14/12 9/5/12
f 14/14/13 20/20/13 15/15/13
f 13/16/14 17/21/14 18/22/14
f 11/18/15 21/23/15 16/24/15
f 32/25/16 15/15/16 20/20/16
f 13/16/17 19/26/17 14/14/17
f 11/18/18 17/21/18 12/13/18
f 19/26/19 26/27/19 20/20/19
f 17/21/20 24/28/20 18/22/20
f 16/24/21 21/29/21 22/30/21
f 32/31/22 20/20/22 26/27/22
f 18/22/23 25/32/23 19/26/23
f 16/24/24 23/33/24 17/21/24
f 25/34/25 31/35/25 26/36/25
f 23/37/26 29/38/26 24/39/26
f 22/40/27 21/41/27 27/42/27
f 32/43/28 26/36/28 31/35/28
f 25/34/29 29/38/29 30/44/29
f 22/40/30 28/45/30 23/37/30
f 30/44/31 5/2/31 31/35/31
f 29/38/32 2/9/32 3/4/32
f 27/42/33 21/46/33 1/7/33
f 32/47/34 31/35/34 5/2/34
f 29/38/35 4/6/35 30/44/35
f 27/42/36 2/9/36 28/45/36
f 3/4/2 8/10/2 9/5/2
f 1/7/3 6/12/3 7/8/3
f 4/6/4 9/5/4 10/3/4
f 3/4/5 2/9/5 7/8/5
f 6/12/7 11/18/7 12/13/7
f 10/3/8 9/5/8 14/14/8
f 7/8/9 12/13/9 13/16/9
f 8/10/12 13/16/12 14/14/12
f 14/14/13 19/26/13 20/20/13
f 13/16/14 12/13/14 17/21/14
f 13/16/17 18/22/17 19/26/17
f 11/18/18 16/24/18 17/21/18
f 19/26/19 25/32/19 26/27/19
f 17/21/20 23/33/20 24/28/20
f 18/22/23 24/28/23 25/32/23
f 16/24/24 22/30/24 23/33/24
f 25/34/25 30/44/25 31/35/25
f 23/37/26 28/45/26 29/38/26
f 25/34/29 24/39/29 29/38/29
f 22/40/30 27/42/30 28/45/30
f 30/44/31 4/6/31 5/2/31
f 29/38/32 28/45/32 2/9/32
f 29/38/35 3/4/35 4/6/35
f 27/42/36 1/7/36 2/9/36
