# Blender 4.4.1
# www.blender.org
mtllib player2.mtl
o 球.002
v 0.000142 0.844037 0.565424
v 0.000598 0.551007 0.853244
v 0.007104 0.193510 0.974584
v 0.007599 0.000137 0.992936
v 0.007080 -0.192619 0.972805
v 0.002792 -0.488030 0.821119
v 0.645489 1.389371 0.187374
v 0.216848 1.339602 0.368446
v -0.110025 0.843597 0.553829
v -0.139602 0.716181 0.701853
v -0.166265 0.552598 0.837020
v -0.158258 -0.496126 0.802491
v -0.136418 -0.576918 0.687856
v -0.108550 -0.628926 0.546251
v -0.175333 -0.000031 0.875753
v -0.075069 -0.666968 0.377503
v -0.037297 -0.696485 0.187515
v 0.652814 1.424437 0.176381
v 0.174326 1.395966 0.347008
v -0.215701 0.843165 0.521064
v -0.273837 0.716169 0.661113
v -0.326394 0.552531 0.788015
v -0.312642 -0.497917 0.755534
v -0.268163 -0.577613 0.647746
v -0.213060 -0.629117 0.514500
v -0.147277 -0.667002 0.355591
v -0.073163 -0.696488 0.176634
v -0.321072 0.318884 0.757513
v 0.659623 1.456742 0.158696
v -0.335025 0.167650 0.792189
v 0.135258 1.448046 0.312393
v -0.343063 0.000054 0.804361
v -0.312897 0.842770 0.468462
v -0.397543 0.716157 0.594972
v -0.335057 -0.167335 0.791624
v -0.473873 0.552773 0.709109
v -0.321297 -0.317212 0.754427
v -0.454080 -0.499722 0.679064
v -0.389433 -0.578078 0.582772
v -0.309358 -0.629237 0.462999
v -0.213822 -0.667026 0.320017
v -0.106217 -0.696490 0.158966
v 0.665623 1.485081 0.134971
v 0.101046 1.493826 0.265814
v -0.397958 0.842433 0.398066
v -0.505968 0.716147 0.505972
v -0.603144 0.552806 0.603094
v -0.455405 0.316120 0.679546
v -0.578089 -0.500073 0.577651
v -0.477416 0.166563 0.712222
v -0.495704 -0.578229 0.495607
v -0.486010 0.000044 0.724407
v -0.393755 -0.629291 0.393741
v -0.477097 -0.166351 0.711631
v -0.272148 -0.667040 0.272149
v -0.453672 -0.315210 0.676530
v -0.135189 -0.696492 0.135189
v 0.670561 1.508375 0.106077
v 0.072960 1.531499 0.208978
v -0.467691 0.842166 0.312567
v -0.594948 0.716139 0.397534
v -0.709231 0.552782 0.473881
v -0.679848 -0.499971 0.454097
v -0.582912 -0.578240 0.389439
v -0.463015 -0.629306 0.309365
v -0.320015 -0.667046 0.213826
v -0.158965 -0.696493 0.106217
v 1.092165 1.339442 0.000000
v -0.578034 0.315339 0.577875
v -0.605913 0.166282 0.605597
v 0.674236 1.525715 0.073093
v 0.052072 1.559557 0.144025
v -0.616491 0.000034 0.616095
v -0.605388 -0.166124 0.605061
v -0.519469 0.841974 0.215209
v -0.575346 -0.314673 0.575165
v -0.661065 0.716133 0.273824
v -0.788058 0.552766 0.326425
v -0.755437 -0.499867 0.312888
v -0.647707 -0.578223 0.268274
v -0.514478 -0.629308 0.213098
v -0.355582 -0.667049 0.147286
v -0.176633 -0.696493 0.073164
v 0.676499 1.536408 0.037272
v 0.039198 1.576863 0.073450
v -0.551341 0.841859 0.109686
v -0.701779 0.716130 0.139593
v -0.679860 0.315302 0.454262
v -0.836598 0.552761 0.166411
v -0.712210 0.166236 0.475838
v -0.801973 -0.499826 0.159529
v -0.724550 0.000032 0.484073
v -0.687605 -0.578213 0.136771
v -0.711564 -0.166085 0.475406
v -0.546169 -0.629307 0.108638
v -0.676608 -0.314635 0.452090
v -0.377485 -0.667049 0.075086
v -0.187513 -0.696494 0.037299
v 0.677263 1.540022 -0.000000
v 0.034848 1.582712 -0.000000
v -0.562100 0.841821 0.000000
v -0.715527 0.716129 0.000000
v -0.852988 0.552760 -0.000000
v -0.817684 -0.499818 -0.000000
v -0.701077 -0.578210 0.000000
v -0.556869 -0.629306 -0.000000
v -0.384880 -0.667050 -0.000000
v -0.191186 -0.696494 -0.000000
v -0.755670 0.315395 0.313014
v 0.676499 1.536409 -0.037272
v -0.791357 0.166243 0.327783
v 0.039198 1.576864 -0.073450
v -0.805023 0.000032 0.333443
v -0.551341 0.841859 -0.109686
v -0.790635 -0.166087 0.327483
v -0.701779 0.716130 -0.139593
v -0.752057 -0.314688 0.311512
v -0.836598 0.552761 -0.166411
v -0.801973 -0.499826 -0.159529
v -0.687605 -0.578213 -0.136771
v -0.546168 -0.629306 -0.108638
v -0.377485 -0.667049 -0.075086
v -0.187513 -0.696493 -0.037299
v 0.674236 1.525715 -0.073093
v 0.052072 1.559557 -0.144025
v -0.519470 0.841974 -0.215210
v -0.661065 0.716133 -0.273824
v -0.788058 0.552766 -0.326425
v -0.755436 -0.499867 -0.312888
v -0.802325 0.315453 0.159600
v -0.647707 -0.578223 -0.268274
v -0.840115 0.166253 0.167108
v -0.854605 0.000033 0.169990
v -0.514478 -0.629307 -0.213098
v -0.839350 -0.166093 0.166955
v -0.355582 -0.667049 -0.147286
v -0.798500 -0.314723 0.158835
v -0.176633 -0.696493 -0.073164
v 0.670561 1.508374 -0.106077
v 0.072960 1.531499 -0.208978
v -0.467697 0.842166 -0.312572
v -0.594948 0.716139 -0.397534
v -0.709231 0.552782 -0.473881
v -0.679848 -0.499971 -0.454098
v -0.582912 -0.578240 -0.389439
v -0.463015 -0.629306 -0.309365
v -0.320015 -0.667046 -0.213826
v -0.158965 -0.696493 -0.106217
v -0.818069 0.315470 0.000000
v 0.665623 1.485080 -0.134971
v 0.101046 1.493825 -0.265814
v -0.856579 0.166257 -0.000000
v -0.397976 0.842434 -0.398085
v -0.871349 0.000033 -0.000000
v -0.855799 -0.166095 -0.000000
v -0.505968 0.716147 -0.505973
v -0.814172 -0.314732 0.000000
v -0.603144 0.552806 -0.603094
v -0.578089 -0.500073 -0.577651
v -0.495704 -0.578229 -0.495606
v -0.393755 -0.629291 -0.393741
v -0.272148 -0.667040 -0.272149
v -0.135189 -0.696492 -0.135189
v 0.659623 1.456741 -0.158696
v 0.135258 1.448045 -0.312392
v -0.312889 0.842770 -0.468480
v -0.397541 0.716157 -0.594971
v -0.473873 0.552773 -0.709108
v -0.802325 0.315453 -0.159600
v -0.454080 -0.499722 -0.679064
v -0.840115 0.166253 -0.167108
v -0.389433 -0.578078 -0.582772
v -0.854605 0.000033 -0.169990
v -0.309358 -0.629237 -0.462999
v -0.839350 -0.166093 -0.166955
v -0.213822 -0.667026 -0.320017
v -0.798500 -0.314723 -0.158834
v -0.106217 -0.696490 -0.158966
v 0.652814 1.424437 -0.176381
v 0.174326 1.395966 -0.347006
v -0.215407 0.843161 -0.520895
v -0.273824 0.716169 -0.661104
v -0.326394 0.552531 -0.788015
v -0.312642 -0.497917 -0.755534
v -0.268163 -0.577613 -0.647746
v -0.213060 -0.629117 -0.514500
v -0.147277 -0.667002 -0.355591
v -0.073163 -0.696488 -0.176634
v 0.645489 1.389371 -0.187374
v -0.755670 0.315395 -0.313014
v 0.216847 1.339602 -0.368442
v -0.791357 0.166243 -0.327783
v -0.805023 0.000032 -0.333443
v -0.108569 0.843572 -0.552673
v -0.790635 -0.166087 -0.327483
v -0.139557 0.716181 -0.701813
v -0.752057 -0.314688 -0.311512
v -0.166265 0.552598 -0.837020
v -0.158257 -0.496126 -0.802491
v -0.136418 -0.576918 -0.687856
v -0.108550 -0.628926 -0.546251
v -0.075069 -0.666968 -0.377503
v -0.037297 -0.696485 -0.187514
v 0.637960 1.352842 -0.191250
v 0.261350 1.281087 -0.376009
v 0.003706 0.843962 -0.561702
v 0.000086 0.716192 -0.715523
v 0.000598 0.551007 -0.853243
v -0.679860 0.315302 -0.454262
v 0.008991 0.379592 -0.922021
v 0.007104 0.193510 -0.974584
v -0.712210 0.166236 -0.475838
v -0.724550 0.000032 -0.484073
v 0.007600 0.000137 -0.992935
v -0.711564 -0.166085 -0.475406
v 0.007080 -0.192619 -0.972805
v 0.007874 -0.374221 -0.911111
v -0.676608 -0.314635 -0.452090
v 0.002793 -0.488030 -0.821119
v 0.000621 -0.575329 -0.701883
v 0.000133 -0.628635 -0.557048
v 0.000023 -0.666927 -0.384912
v 0.000002 -0.696483 -0.191189
v 0.630542 1.316216 -0.187822
v 0.306385 1.222599 -0.369543
v 0.109710 0.844376 -0.551405
v 0.139596 0.716204 -0.701787
v 0.166564 0.550782 -0.836702
v 0.181102 0.379288 -0.902982
v -0.578034 0.315339 -0.577874
v 0.191092 0.193368 -0.954201
v -0.605912 0.166282 -0.605597
v -0.616491 0.000034 -0.616095
v 0.194642 0.000182 -0.972015
v 0.190691 -0.192301 -0.952324
v -0.605388 -0.166124 -0.605061
v 0.178751 -0.373365 -0.891941
v -0.575346 -0.314673 -0.575165
v 0.161008 -0.486533 -0.805769
v 0.137235 -0.574740 -0.688576
v 0.108765 -0.628470 -0.546395
v 0.075112 -0.666896 -0.377524
v 0.037301 -0.696480 -0.187516
v 0.623532 1.280892 -0.177168
v 0.350587 1.166310 -0.349341
v 0.211866 0.844615 -0.521290
v 0.273753 0.716211 -0.661117
v 0.326480 0.550750 -0.788128
v 0.352477 0.379235 -0.850360
v -0.455405 0.316119 -0.679545
v -0.477416 0.166563 -0.712222
v 0.372419 0.193343 -0.898548
v -0.486010 0.000044 -0.724407
v 0.379353 0.000194 -0.915304
v 0.371672 -0.192233 -0.896760
v -0.477097 -0.166351 -0.711631
v 0.348145 -0.373188 -0.839931
v -0.453672 -0.315210 -0.676530
v 0.314572 -0.486248 -0.759035
v 0.268773 -0.574567 -0.648662
v 0.213237 -0.628400 -0.514711
v 0.147315 -0.666878 -0.355625
v 0.073167 -0.696478 -0.176636
v 0.617196 1.248251 -0.159648
v 0.392667 1.114380 -0.316043
v 0.313099 0.844806 -0.470819
v 0.397546 0.716216 -0.595034
v 0.473938 0.550745 -0.709291
v -0.321072 0.318884 -0.757512
v 0.511373 0.379226 -0.765263
v 0.540344 0.193339 -0.808622
v -0.335025 0.167650 -0.792189
v -0.343064 0.000054 -0.804361
v 0.550416 0.000197 -0.823699
v -0.335057 -0.167335 -0.791625
v 0.539265 -0.192218 -0.807009
v 0.505102 -0.373152 -0.755876
v -0.321297 -0.317212 -0.754427
v 0.456477 -0.486190 -0.683109
v 0.390100 -0.574520 -0.583788
v 0.309537 -0.628374 -0.463233
v 0.213860 -0.666869 -0.320056
v 0.106221 -0.696477 -0.158969
v 0.611756 1.219592 -0.135907
v 0.431224 1.068927 -0.270533
v 0.400778 0.844645 -0.400844
v 0.506045 0.716211 -0.506050
v 0.603203 0.550745 -0.603202
v 0.650803 0.379225 -0.650796
v 0.687675 0.193338 -0.687668
v -0.175332 -0.000031 -0.875756
v 0.700496 0.000198 -0.700489
v 0.686303 -0.192215 -0.686296
v 0.642820 -0.373144 -0.642813
v 0.580943 -0.486178 -0.580935
v 0.496479 -0.574507 -0.496472
v 0.393954 -0.628365 -0.393949
v 0.272189 -0.666865 -0.272186
v 0.135193 -0.696477 -0.135192
v 0.000001 -0.709467 0.000000
v 0.607381 1.196060 -0.106854
v 0.464503 1.031898 -0.214004
v 0.471598 0.844104 -0.314788
v 0.595059 0.716195 -0.397596
v 0.709290 0.550745 -0.473932
v 0.765255 0.379225 -0.511326
v 0.808611 0.193338 -0.540296
v 0.823687 0.000198 -0.550369
v 0.806998 -0.192214 -0.539218
v 0.755867 -0.373142 -0.505054
v 0.683109 -0.486176 -0.456437
v 0.583791 -0.574504 -0.390075
v 0.463237 -0.628362 -0.309524
v 0.320059 -0.666863 -0.213855
v 0.158970 -0.696476 -0.106220
v 0.604186 1.178585 -0.073628
v 0.490384 1.004767 -0.148222
v 0.523471 0.843348 -0.216245
v 0.661177 0.716174 -0.273850
v 0.788121 0.550745 -0.326450
v 0.850304 0.379225 -0.352207
v 0.898479 0.193338 -0.372162
v 0.915231 0.000198 -0.379100
v 0.896686 -0.192214 -0.371419
v 0.839873 -0.373142 -0.347887
v 0.759028 -0.486175 -0.314399
v 0.648672 -0.574503 -0.268689
v 0.514721 -0.628361 -0.213204
v 0.355630 -0.666863 -0.147306
v 0.176637 -0.696476 -0.073165
v 0.602242 1.167836 -0.037539
v 0.506798 0.988327 -0.075732
v 0.554175 0.842684 -0.108545
v 0.701857 0.716156 -0.139559
v 0.836665 0.550745 -0.166423
v 0.902678 0.379225 -0.179554
v 0.953820 0.193338 -0.189726
v 0.971603 0.000198 -0.193263
v 0.951917 -0.192214 -0.189348
v 0.891604 -0.373142 -0.177351
v 0.805779 -0.486175 -0.160279
v 0.688627 -0.574503 -0.136976
v 0.546424 -0.628360 -0.108690
v 0.377534 -0.666862 -0.075096
v 0.187517 -0.696476 -0.037299
v 0.601589 1.164209 0.000003
v 0.512333 0.982830 0.000200
v 0.562006 0.842375 0.004099
v 0.715535 0.716147 0.000093
v 0.853056 0.550745 0.000000
v 0.920362 0.379225 0.000000
v 0.972506 0.193338 0.000000
v 0.990638 0.000198 0.000000
v 0.970566 -0.192214 0.000000
v 0.909072 -0.373142 0.000000
v 0.821565 -0.486175 0.000000
v 0.702117 -0.574503 0.000000
v 0.557129 -0.628360 0.000000
v 0.384930 -0.666862 0.000000
v 0.191191 -0.696476 0.000000
v 0.602240 1.167836 0.037543
v 0.506633 0.988317 0.075900
v 0.551136 0.842493 0.109453
v 0.701782 0.716151 0.139589
v 0.836665 0.550745 0.166423
v 0.902678 0.379225 0.179554
v 0.953820 0.193338 0.189727
v 0.971603 0.000198 0.193264
v 0.951917 -0.192214 0.189348
v 0.891604 -0.373142 0.177351
v 0.805779 -0.486175 0.160280
v 0.688626 -0.574503 0.136976
v 0.546424 -0.628360 0.108691
v 0.377534 -0.666862 0.075096
v 0.187517 -0.696476 0.037299
v 0.604184 1.178585 0.073629
v 0.490208 1.004756 0.148121
v 0.521154 0.843221 0.211166
v 0.661114 0.716171 0.273734
v 0.788121 0.550745 0.326451
v 0.850304 0.379225 0.352207
v 0.898479 0.193338 0.372162
v 0.915230 0.000198 0.379101
v 0.896686 -0.192214 0.371420
v 0.839873 -0.373142 0.347887
v 0.759027 -0.486175 0.314400
v 0.648672 -0.574503 0.268689
v 0.514720 -0.628361 0.213204
v 0.355630 -0.666863 0.147306
v 0.176637 -0.696476 0.073165
v 0.607379 1.196060 0.106853
v 0.464400 1.031892 0.213867
v 0.470902 0.844067 0.312530
v 0.595036 0.716194 0.397530
v 0.709290 0.550745 0.473933
v 0.765255 0.379225 0.511326
v 0.808611 0.193338 0.540296
v 0.823687 0.000198 0.550370
v 0.806997 -0.192214 0.539218
v 0.755867 -0.373142 0.505053
v 0.683108 -0.486175 0.456437
v 0.583791 -0.574504 0.390075
v 0.463237 -0.628362 0.309524
v 0.320059 -0.666864 0.213855
v 0.158970 -0.696476 0.106220
v 0.611755 1.219592 0.135905
v 0.431192 1.068925 0.270454
v 0.401128 0.844650 0.400417
v 0.506058 0.716211 0.506034
v 0.603202 0.550745 0.603202
v 0.650803 0.379225 0.650796
v 0.687674 0.193338 0.687668
v 0.700495 0.000198 0.700490
v 0.686302 -0.192215 0.686296
v 0.642820 -0.373144 0.642813
v 0.580943 -0.486178 0.580935
v 0.496479 -0.574507 0.496472
v 0.393954 -0.628365 0.393949
v 0.272189 -0.666865 0.272186
v 0.135193 -0.696477 0.135192
v 0.617196 1.248251 0.159648
v 0.392677 1.114379 0.316017
v 0.315232 0.844857 0.471435
v 0.397611 0.716217 0.595054
v 0.473938 0.550745 0.709291
v 0.511373 0.379226 0.765263
v 0.540343 0.193339 0.808622
v 0.550415 0.000197 0.823699
v 0.539265 -0.192218 0.807009
v 0.505102 -0.373152 0.755876
v 0.456476 -0.486190 0.683109
v 0.390100 -0.574520 0.583788
v 0.309537 -0.628374 0.463233
v 0.213860 -0.666869 0.320056
v 0.106221 -0.696477 0.158969
v 0.623532 1.280891 0.177168
v 0.350609 1.166311 0.349341
v 0.217036 0.844749 0.523602
v 0.273877 0.716214 0.661185
v 0.326479 0.550750 0.788128
v 0.352477 0.379235 0.850360
v 0.372419 0.193343 0.898548
v 0.379353 0.000194 0.915304
v 0.371672 -0.192233 0.896760
v 0.348145 -0.373188 0.839931
v 0.314572 -0.486248 0.759035
v 0.268773 -0.574567 0.648662
v 0.213236 -0.628400 0.514711
v 0.147315 -0.666878 0.355625
v 0.073167 -0.696478 0.176636
v 0.630542 1.316216 0.187822
v 0.306400 1.222600 0.369552
v 0.110593 0.844443 0.555272
v 0.139621 0.716206 0.701894
v 0.166563 0.550782 0.836701
v 0.181102 0.379288 0.902982
v 0.191092 0.193368 0.954201
v 0.194641 0.000182 0.972015
v 0.190691 -0.192301 0.952324
v 0.178751 -0.373365 0.891940
v 0.161008 -0.486533 0.805769
v 0.137234 -0.574740 0.688576
v 0.108765 -0.628470 0.546394
v 0.075112 -0.666896 0.377524
v 0.037301 -0.696480 0.187516
v 0.637960 1.352842 0.191250
v 0.261356 1.281088 0.376017
v 0.000006 0.716194 0.715624
v 0.008991 0.379592 0.922021
v 0.007874 -0.374221 0.911111
v 0.000621 -0.575329 0.701883
v 0.000132 -0.628635 0.557048
v 0.000023 -0.666927 0.384911
v 0.000002 -0.696483 0.191189
v -0.179569 0.405980 0.905227
v -0.163453 0.385912 0.916221
v -0.171696 0.402827 0.908212
v -0.137869 0.194483 0.966988
v -0.132063 0.000009 0.986568
v -0.136716 -0.194169 0.965825
v -0.158778 -0.384508 0.912846
v -0.170216 -0.401776 0.900959
v -0.176867 -0.404749 0.897422
v -0.338765 -0.427266 0.819015
v -0.347029 0.427787 0.836446
v -0.491501 -0.433981 0.733143
v -0.503729 0.433515 0.751873
v -0.641466 0.433621 0.640658
v -0.626091 -0.434415 0.624608
v -0.736487 -0.433767 0.491701
v -0.754438 0.433015 0.503977
v -0.838319 0.432728 0.347288
v -0.818417 -0.433387 0.339003
v -0.868832 -0.433276 0.172873
v -0.889954 0.432664 0.177058
v -0.907387 0.432660 0.000000
v -0.885851 -0.433261 0.000000
v -0.868832 -0.433276 -0.172872
v -0.889954 0.432664 -0.177058
v -0.838319 0.432728 -0.347288
v -0.818416 -0.433387 -0.339003
v -0.736487 -0.433767 -0.491701
v -0.754438 0.433015 -0.503977
v -0.626091 -0.434415 -0.624608
v -0.641466 0.433621 -0.640658
v -0.491501 -0.433981 -0.733143
v -0.503729 0.433515 -0.751873
v -0.338765 -0.427266 -0.819015
v -0.347029 0.427787 -0.836446
v -0.179569 0.405980 -0.905226
v -0.176867 -0.404749 -0.897422
v -0.137869 0.194483 -0.966988
v -0.132064 0.000009 -0.986567
v -0.136716 -0.194169 -0.965824
v -0.158778 -0.384508 -0.912846
v -0.170216 -0.401776 -0.900959
v -0.171696 0.402827 -0.908211
v -0.163453 0.385912 -0.916221
v 0.110239 1.143386 0.469324
v 0.040826 1.186495 0.460155
v -0.025933 1.228287 0.434290
v -0.087882 1.267149 0.392025
v -0.142668 1.301499 0.334460
v -0.188008 1.329885 0.263534
v -0.221919 1.351085 0.181921
v -0.242894 1.364183 0.092867
v -0.249991 1.368613 -0.000000
v -0.242894 1.364183 -0.092867
v -0.221919 1.351085 -0.181920
v -0.188007 1.329885 -0.263533
v -0.142666 1.301499 -0.334457
v -0.087877 1.267149 -0.392015
v -0.025922 1.228286 -0.434263
v 0.040841 1.186493 -0.460094
v 0.110231 1.143383 -0.469208
v 0.180441 1.100537 -0.461927
v 0.250172 1.059529 -0.438742
v 0.318230 1.022057 -0.399817
v 0.382207 0.989985 -0.344944
v 0.438107 0.964925 -0.274538
v 0.481300 0.947461 -0.190754
v 0.508142 0.937235 -0.097396
v 0.516843 0.933845 0.000655
v 0.507575 0.937200 0.097660
v 0.480794 0.947432 0.190040
v 0.437912 0.964913 0.274038
v 0.382266 0.989983 0.344778
v 0.318462 1.022062 0.399857
v 0.250434 1.059537 0.438887
v 0.180557 1.100542 0.462085
v -0.038024 1.014248 0.502611
v -0.128321 1.034945 0.473449
v -0.211639 1.054058 0.426234
v -0.284816 1.070863 0.362681
v -0.345008 1.084702 0.285131
v -0.389825 1.095017 0.196508
v -0.417465 1.101383 0.100215
v -0.426805 1.103536 0.000000
v -0.417465 1.101383 -0.100215
v -0.389825 1.095017 -0.196507
v -0.345005 1.084702 -0.285129
v -0.284807 1.070863 -0.362670
v -0.211602 1.054057 -0.426194
v -0.128204 1.034942 -0.473312
v -0.037758 1.014240 -0.502230
v 0.056159 0.992712 -0.511891
v 0.149466 0.971120 -0.502277
v 0.239588 0.950149 -0.473723
v 0.324362 0.930391 -0.427090
v 0.399370 0.912327 -0.363944
v 0.461567 0.896749 -0.286662
v 0.508289 0.884826 -0.197772
v 0.536836 0.877473 -0.100103
v 0.545330 0.874985 0.002080
v 0.535264 0.877375 0.100871
v 0.506977 0.884752 0.195574
v 0.461063 0.896720 0.285333
v 0.399447 0.912325 0.363530
v 0.325038 0.930407 0.427210
v 0.240833 0.950182 0.474301
v 0.150001 0.971143 0.503118
v 0.055899 0.992729 0.512643
v 0.000006 0.476139 1.549732
v -0.302335 0.476155 1.519956
v -0.593055 0.476156 1.431763
v -0.860983 0.476158 1.288551
v -1.095824 0.476158 1.095823
v -1.288552 0.476158 0.860983
v -1.431763 0.476158 0.593056
v -1.519951 0.476158 0.302337
v -1.549729 0.476158 -0.000000
v -1.519951 0.476158 -0.302337
v -1.431762 0.476158 -0.593056
v -1.288552 0.476158 -0.860983
v -1.095824 0.476158 -1.095823
v -0.860983 0.476158 -1.288551
v -0.593055 0.476156 -1.431763
v -0.302335 0.476155 -1.519956
v 0.000007 0.476139 -1.549731
v 0.302339 0.476136 -1.519952
v 0.593056 0.476136 -1.431764
v 0.860984 0.476136 -1.288554
v 1.095825 0.476135 -1.095825
v 1.288554 0.476135 -0.860984
v 1.431764 0.476135 -0.593056
v 1.519952 0.476135 -0.302337
v 1.549729 0.476135 0.000001
v 1.519951 0.476135 0.302337
v 1.431763 0.476135 0.593055
v 1.288553 0.476135 0.860983
v 1.095825 0.476135 1.095824
v 0.860984 0.476136 1.288554
v 0.593056 0.476136 1.431764
v 0.302339 0.476136 1.519953
v -0.212415 0.370059 0.799451
v -0.212415 0.370059 -0.799451
v -0.219916 -0.366773 0.790382
v -0.219916 -0.366773 -0.790382
v -0.203688 0.324183 0.811490
v -0.209277 -0.322769 0.807615
v -0.174460 -0.000037 0.876080
v -0.176430 -0.084999 0.866387
v -0.176327 0.085015 0.866410
v -0.178859 0.174396 0.855663
v -0.174460 -0.000037 -0.876083
v -0.176430 -0.084985 -0.866390
v -0.179127 -0.174275 -0.855583
v -0.176328 0.085001 -0.866412
v -0.178861 0.174395 -0.855662
v -0.203688 0.324183 -0.811490
v -0.179126 -0.174276 0.855584
v -0.209277 -0.322769 -0.807615
v -0.315905 -0.359940 -0.735787
v -0.315905 -0.359940 0.735787
v -0.559781 -0.355088 -0.559966
v -0.659245 -0.355165 -0.440599
v -0.794056 -0.355451 -0.000000
v -0.778739 -0.355429 -0.154923
v -0.733282 -0.355340 -0.303771
v -0.441255 -0.355984 -0.658123
v -0.441255 -0.355984 0.658123
v -0.659245 -0.355165 0.440600
v -0.559781 -0.355088 0.559966
v -0.778740 -0.355429 0.154923
v -0.733282 -0.355340 0.303771
v -0.317542 0.358557 -0.744581
v -0.446883 0.352562 -0.666963
v -0.317542 0.358557 0.744581
v -0.567631 0.351221 0.567752
v -0.446883 0.352562 0.666963
v -0.743446 0.351626 0.307991
v -0.804996 0.351796 0.000000
v -0.789482 0.351762 0.157067
v -0.668471 0.351353 0.446746
v -0.567631 0.351221 -0.567752
v -0.743446 0.351626 -0.307991
v -0.789482 0.351762 -0.157067
v -0.668471 0.351353 -0.446745
v 0.291306 0.840904 0.000000
v 0.269132 0.840904 -0.111478
v 0.285709 0.840904 -0.056831
v 0.285709 0.840904 0.056831
v 0.242212 0.840904 -0.161841
v 0.242212 0.840904 0.161841
v 0.269132 0.840904 0.111478
v 0.205985 0.840904 0.205985
v 0.111478 0.840904 -0.269132
v 0.161841 0.840904 -0.242212
v 0.161841 0.840904 0.242212
v -0.000000 0.840904 0.291306
v 0.056831 0.840904 0.285709
v 0.111478 0.840904 0.269132
v 0.205985 0.840904 -0.205985
v 0.056831 0.840904 -0.285709
v -0.056831 0.840904 -0.285709
v 0.000000 0.840904 -0.291306
v -0.111478 0.840904 0.269132
v -0.161841 0.840904 0.242212
v -0.111478 0.840904 -0.269132
v -0.161841 0.840904 -0.242212
v -0.056831 0.840904 0.285709
v -0.242212 0.840904 -0.161841
v -0.205985 0.840904 -0.205985
v -0.242212 0.840904 0.161841
v -0.291306 0.840904 -0.000000
v -0.285709 0.840904 0.056831
v -0.269132 0.840904 -0.111478
v -0.285709 0.840904 -0.056831
v -0.269132 0.840904 0.111478
v -0.205985 0.840904 0.205985
vn -0.0272 0.9606 0.2765
vn -0.0274 -0.9391 0.3426
vn -0.0513 0.4004 0.9149
vn -0.0197 -0.9761 0.2166
vn -0.0347 0.2618 0.9645
vn -0.0145 -0.9885 0.1508
vn -0.0485 0.0964 0.9942
vn 0.3884 0.0177 0.9213
vn -0.0066 -0.9977 0.0678
vn -0.0462 -0.1043 0.9935
vn 0.3687 0.2512 0.8950
vn -0.0049 -0.2944 0.9557
vn 0.1913 0.3646 0.9113
vn 0.0091 -0.6668 0.7452
vn -0.0669 0.7613 0.6449
vn -0.0372 -0.8129 0.5812
vn -0.2105 -0.7125 0.6693
vn -0.1904 0.7639 0.6167
vn -0.1590 -0.8225 0.5461
vn -0.0807 0.9607 0.2658
vn -0.0955 -0.9407 0.3255
vn -0.2847 0.4084 0.8673
vn -0.0618 -0.9763 0.2075
vn -0.0436 -0.9885 0.1449
vn 0.3979 0.1977 0.8959
vn -0.0197 -0.9977 0.0652
vn 0.2967 0.4187 0.8583
vn 0.0295 0.4604 0.8872
vn -0.0711 -0.9885 0.1334
vn 0.4069 0.3712 0.8347
vn -0.0320 -0.9977 0.0600
vn 0.2324 0.5750 0.7844
vn -0.1298 0.5521 0.8236
vn -0.3295 -0.6998 0.6338
vn -0.3053 0.7662 0.5654
vn -0.2618 -0.8258 0.4995
vn -0.1310 0.9607 0.2449
vn -0.1571 -0.9415 0.2981
vn -0.4294 0.3928 0.8132
vn -0.1011 -0.9764 0.1907
vn -0.3542 -0.8280 0.4347
vn -0.1762 0.9607 0.2147
vn -0.2123 -0.9420 0.2601
vn -0.5771 0.4041 0.7097
vn -0.1364 -0.9765 0.1668
vn -0.0957 -0.9885 0.1169
vn 0.4150 0.5308 0.7389
vn -0.0431 -0.9977 0.0526
vn 0.1776 0.7120 0.6794
vn -0.2763 0.6330 0.7232
vn -0.4429 -0.7095 0.5482
vn -0.4079 0.7682 0.4935
vn 0.4220 0.6692 0.6116
vn -0.0526 -0.9977 0.0432
vn 0.1333 0.8243 0.5502
vn -0.4011 0.6990 0.5920
vn -0.5404 -0.7142 0.4449
vn -0.4946 0.7697 0.4037
vn -0.4323 -0.8288 0.3553
vn -0.2147 0.9607 0.1762
vn -0.2591 -0.9421 0.2129
vn -0.7043 0.4102 0.5793
vn -0.1664 -0.9765 0.1367
vn -0.1167 -0.9885 0.0959
vn -0.2449 0.9607 0.1309
vn -0.2957 -0.9421 0.1581
vn -0.8039 0.4113 0.4296
vn -0.1899 -0.9765 0.1015
vn -0.1332 -0.9885 0.0712
vn 0.4275 0.7797 0.4575
vn -0.0600 -0.9977 0.0321
vn 0.1000 0.9093 0.4039
vn -0.4981 0.7485 0.4378
vn -0.6171 -0.7146 0.3295
vn -0.5624 0.7709 0.2992
vn -0.4935 -0.8288 0.2637
vn 0.0779 0.9660 0.2464
vn -0.5639 0.7811 0.2683
vn -0.6700 -0.7141 0.2030
vn -0.6089 0.7716 0.1840
vn -0.5356 -0.8287 0.1624
vn -0.2657 0.9607 0.0806
vn -0.3209 -0.9421 0.0973
vn -0.8724 0.4111 0.2645
vn -0.2061 -0.9765 0.0625
vn -0.1445 -0.9885 0.0438
vn 0.4313 0.8567 0.2830
vn -0.0651 -0.9977 0.0198
vn -0.3338 -0.9421 0.0329
vn -0.9073 0.4110 0.0893
vn -0.2143 -0.9765 0.0211
vn -0.1503 -0.9885 0.0148
vn 0.4332 0.8962 0.0958
vn -0.0677 -0.9977 0.0067
vn 0.0669 0.9943 0.0828
vn -0.5970 0.7971 0.0904
vn -0.6969 -0.7139 0.0686
vn -0.6326 0.7720 0.0621
vn -0.5571 -0.8287 0.0548
vn -0.2764 0.9607 0.0272
vn 0.0669 0.9943 -0.0828
vn -0.5970 0.7971 -0.0903
vn -0.6969 -0.7139 -0.0686
vn -0.6326 0.7720 -0.0621
vn -0.5571 -0.8287 -0.0548
vn -0.2764 0.9607 -0.0272
vn -0.3338 -0.9421 -0.0329
vn -0.9073 0.4110 -0.0893
vn -0.2143 -0.9765 -0.0211
vn -0.1503 -0.9885 -0.0148
vn 0.4332 0.8962 -0.0958
vn -0.0677 -0.9977 -0.0067
vn -0.8724 0.4111 -0.2645
vn -0.2061 -0.9765 -0.0625
vn -0.1445 -0.9885 -0.0438
vn 0.4313 0.8567 -0.2830
vn -0.0651 -0.9977 -0.0198
vn 0.0779 0.9660 -0.2465
vn -0.5639 0.7811 -0.2683
vn -0.6700 -0.7141 -0.2030
vn -0.6089 0.7716 -0.1840
vn -0.5356 -0.8287 -0.1624
vn -0.2657 0.9607 -0.0806
vn -0.3209 -0.9421 -0.0973
vn -0.4981 0.7485 -0.4378
vn -0.6171 -0.7146 -0.3295
vn -0.5624 0.7708 -0.2992
vn -0.4935 -0.8288 -0.2637
vn -0.2449 0.9607 -0.1309
vn -0.2957 -0.9421 -0.1581
vn -0.8039 0.4113 -0.4296
vn -0.1899 -0.9765 -0.1015
vn -0.1332 -0.9885 -0.0712
vn 0.4275 0.7797 -0.4575
vn -0.0600 -0.9977 -0.0321
vn 0.1000 0.9093 -0.4039
vn -0.1664 -0.9765 -0.1367
vn -0.1167 -0.9885 -0.0959
vn 0.4220 0.6692 -0.6116
vn -0.0526 -0.9977 -0.0432
vn 0.1333 0.8243 -0.5502
vn -0.4011 0.6990 -0.5920
vn -0.5404 -0.7142 -0.4449
vn -0.4946 0.7697 -0.4036
vn -0.4323 -0.8288 -0.3553
vn -0.2147 0.9607 -0.1762
vn -0.2591 -0.9421 -0.2129
vn -0.7043 0.4102 -0.5793
vn -0.4429 -0.7095 -0.5482
vn -0.4079 0.7681 -0.4936
vn -0.3542 -0.8280 -0.4347
vn -0.1762 0.9607 -0.2147
vn -0.2123 -0.9420 -0.2601
vn -0.5771 0.4041 -0.7097
vn -0.1364 -0.9765 -0.1668
vn -0.0957 -0.9885 -0.1169
vn 0.4150 0.5308 -0.7389
vn -0.0431 -0.9977 -0.0526
vn 0.1776 0.7120 -0.6794
vn -0.2763 0.6329 -0.7232
vn -0.0711 -0.9885 -0.1334
vn 0.4069 0.3712 -0.8347
vn -0.0320 -0.9977 -0.0600
vn 0.2324 0.5750 -0.7844
vn -0.1298 0.5520 -0.8237
vn -0.3295 -0.6998 -0.6338
vn -0.3045 0.7665 -0.5655
vn -0.2618 -0.8258 -0.4995
vn -0.1309 0.9607 -0.2449
vn -0.1571 -0.9415 -0.2981
vn -0.4294 0.3928 -0.8132
vn -0.1011 -0.9764 -0.1907
vn -0.1864 0.7657 -0.6156
vn -0.1590 -0.8225 -0.5461
vn -0.0806 0.9607 -0.2658
vn -0.0955 -0.9407 -0.3255
vn -0.2847 0.4084 -0.8673
vn -0.0618 -0.9763 -0.2075
vn -0.0436 -0.9885 -0.1449
vn 0.3979 0.1977 -0.8959
vn -0.0197 -0.9977 -0.0652
vn 0.2967 0.4186 -0.8583
vn 0.0296 0.4602 -0.8873
vn -0.2105 -0.7125 -0.6693
vn -0.0485 0.0964 -0.9942
vn 0.3884 0.0177 -0.9213
vn -0.0066 -0.9977 -0.0678
vn -0.0462 -0.1043 -0.9935
vn 0.3687 0.2512 -0.8950
vn -0.0049 -0.2944 -0.9557
vn 0.1914 0.3641 -0.9115
vn 0.0091 -0.6668 -0.7452
vn -0.0589 0.7668 -0.6391
vn -0.0373 -0.8129 -0.5812
vn -0.0272 0.9606 -0.2764
vn -0.0274 -0.9391 -0.3426
vn -0.0513 0.4004 -0.9149
vn -0.0197 -0.9761 -0.2166
vn -0.0347 0.2618 -0.9645
vn -0.0145 -0.9885 -0.1508
vn 0.0631 -0.8047 -0.5904
vn 0.0272 0.9606 -0.2764
vn 0.0367 -0.9375 -0.3459
vn 0.0978 0.3704 -0.9237
vn 0.0224 -0.9758 -0.2173
vn 0.1063 0.2693 -0.9572
vn 0.0151 -0.9884 -0.1508
vn 0.1102 0.0937 -0.9895
vn 0.3789 -0.1620 -0.9112
vn 0.0067 -0.9977 -0.0678
vn 0.1105 -0.1035 -0.9885
vn 0.4462 0.0838 -0.8910
vn 0.1064 -0.3201 -0.9414
vn 0.3463 0.2720 -0.8978
vn 0.0865 -0.6162 -0.7828
vn 0.0613 0.7664 -0.6395
vn 0.3695 -0.3348 -0.8668
vn 0.0198 -0.9977 -0.0652
vn 0.2920 -0.1033 -0.9508
vn 0.5269 -0.0714 -0.8469
vn 0.2782 -0.3204 -0.9055
vn 0.4886 0.1927 -0.8510
vn 0.2322 -0.6114 -0.7565
vn 0.1842 0.7645 -0.6177
vn 0.1744 -0.8031 -0.5697
vn 0.0806 0.9606 -0.2658
vn 0.1023 -0.9370 -0.3339
vn 0.2720 0.3656 -0.8901
vn 0.0640 -0.9757 -0.2094
vn 0.2827 0.2689 -0.9207
vn 0.0442 -0.9884 -0.1451
vn 0.2922 0.0931 -0.9518
vn 0.1309 0.9606 -0.2450
vn 0.1651 -0.9369 -0.3082
vn 0.4394 0.3642 -0.8211
vn 0.1035 -0.9757 -0.1932
vn 0.4547 0.2689 -0.8491
vn 0.0716 -0.9884 -0.1338
vn 0.4700 0.0930 -0.8777
vn 0.3607 -0.4945 -0.7908
vn 0.0321 -0.9977 -0.0601
vn 0.4696 -0.1033 -0.8768
vn 0.6084 -0.2038 -0.7670
vn 0.4472 -0.3204 -0.8350
vn 0.6168 0.1331 -0.7758
vn 0.3739 -0.6105 -0.6982
vn 0.2977 0.7613 -0.5760
vn 0.2815 -0.8028 -0.5257
vn 0.6311 -0.1033 -0.7688
vn 0.6880 -0.3070 -0.6575
vn 0.6011 -0.3204 -0.7321
vn 0.7322 0.0951 -0.6744
vn 0.5027 -0.6103 -0.6122
vn 0.4118 0.7569 -0.5074
vn 0.3785 -0.8027 -0.4609
vn 0.1762 0.9606 -0.2148
vn 0.2219 -0.9369 -0.2702
vn 0.5910 0.3639 -0.7200
vn 0.1391 -0.9757 -0.1694
vn 0.6112 0.2689 -0.7444
vn 0.0963 -0.9884 -0.1173
vn 0.6318 0.0930 -0.7696
vn 0.3528 -0.6357 -0.6866
vn 0.0432 -0.9977 -0.0526
vn 0.2703 -0.9369 -0.2218
vn 0.7201 0.3638 -0.5909
vn 0.1695 -0.9757 -0.1390
vn 0.7446 0.2689 -0.6110
vn 0.1174 -0.9884 -0.0963
vn 0.7697 0.0930 -0.6316
vn 0.3461 -0.7539 -0.5585
vn 0.0527 -0.9977 -0.0432
vn 0.7689 -0.1033 -0.6310
vn 0.7618 -0.3790 -0.5255
vn 0.7323 -0.3204 -0.6009
vn 0.8330 0.0762 -0.5480
vn 0.6124 -0.6103 -0.5025
vn 0.5068 0.7560 -0.4143
vn 0.4611 -0.8027 -0.3783
vn 0.2148 0.9606 -0.1762
vn 0.8354 -0.3204 -0.4465
vn 0.9135 0.0714 -0.4006
vn 0.6986 -0.6103 -0.3734
vn 0.5771 0.7581 -0.3037
vn 0.5260 -0.8027 -0.2811
vn 0.2450 0.9606 -0.1309
vn 0.3084 -0.9369 -0.1648
vn 0.8215 0.3638 -0.4391
vn 0.1933 -0.9757 -0.1033
vn 0.8494 0.2689 -0.4540
vn 0.1339 -0.9884 -0.0716
vn 0.8781 0.0930 -0.4693
vn 0.3407 -0.8452 -0.4118
vn 0.0601 -0.9977 -0.0321
vn 0.8772 -0.1033 -0.4689
vn 0.8237 -0.4219 -0.3788
vn 0.2098 -0.9757 -0.0636
vn 0.9217 0.2689 -0.2796
vn 0.1453 -0.9884 -0.0441
vn 0.9528 0.0930 -0.2890
vn 0.3371 -0.9071 -0.2520
vn 0.0652 -0.9977 -0.0198
vn 0.9518 -0.1033 -0.2887
vn 0.8681 -0.4418 -0.2263
vn 0.9065 -0.3204 -0.2750
vn 0.9678 0.0734 -0.2406
vn 0.7581 -0.6103 -0.2300
vn 0.6214 0.7623 -0.1812
vn 0.5707 -0.8027 -0.1731
vn 0.2658 0.9606 -0.0806
vn 0.3346 -0.9369 -0.1015
vn 0.8914 0.3638 -0.2704
vn 0.9942 0.0746 -0.0775
vn 0.7883 -0.6103 -0.0776
vn 0.6382 0.7680 -0.0534
vn 0.5936 -0.8027 -0.0585
vn 0.2764 0.9607 -0.0272
vn 0.3480 -0.9369 -0.0343
vn 0.9270 0.3638 -0.0913
vn 0.2182 -0.9757 -0.0215
vn 0.9585 0.2689 -0.0944
vn 0.1511 -0.9884 -0.0149
vn 0.9909 0.0930 -0.0976
vn 0.3352 -0.9383 -0.0848
vn 0.0678 -0.9977 -0.0067
vn 0.9899 -0.1033 -0.0975
vn 0.8909 -0.4481 -0.0744
vn 0.9427 -0.3204 -0.0928
vn 0.9585 0.2689 0.0944
vn 0.1511 -0.9884 0.0149
vn 0.9909 0.0930 0.0976
vn 0.3352 -0.9383 0.0848
vn 0.0678 -0.9977 0.0067
vn 0.9899 -0.1033 0.0975
vn 0.8907 -0.4482 0.0758
vn 0.9427 -0.3204 0.0928
vn 0.9940 0.0724 0.0824
vn 0.7883 -0.6103 0.0776
vn 0.6343 0.7705 0.0634
vn 0.5936 -0.8027 0.0585
vn 0.2764 0.9607 0.0272
vn 0.3480 -0.9369 0.0343
vn 0.9270 0.3638 0.0913
vn 0.2182 -0.9757 0.0215
vn 0.7581 -0.6103 0.2300
vn 0.6129 0.7691 0.1811
vn 0.5707 -0.8027 0.1731
vn 0.2658 0.9607 0.0806
vn 0.3346 -0.9369 0.1015
vn 0.8914 0.3638 0.2704
vn 0.2098 -0.9757 0.0636
vn 0.9217 0.2689 0.2796
vn 0.1453 -0.9884 0.0441
vn 0.9528 0.0930 0.2890
vn 0.3371 -0.9071 0.2521
vn 0.0652 -0.9977 0.0198
vn 0.9518 -0.1033 0.2887
vn 0.8677 -0.4422 0.2270
vn 0.9065 -0.3204 0.2750
vn 0.9677 0.0672 0.2431
vn 0.1339 -0.9884 0.0716
vn 0.8781 0.0930 0.4693
vn 0.3407 -0.8452 0.4118
vn 0.0601 -0.9977 0.0321
vn 0.8772 -0.1033 0.4689
vn 0.8234 -0.4226 0.3786
vn 0.8354 -0.3204 0.4465
vn 0.9142 0.0646 0.4001
vn 0.6986 -0.6103 0.3734
vn 0.5739 0.7645 0.2936
vn 0.5260 -0.8027 0.2811
vn 0.2450 0.9606 0.1309
vn 0.3084 -0.9369 0.1648
vn 0.8215 0.3638 0.4391
vn 0.1933 -0.9757 0.1033
vn 0.8494 0.2689 0.4540
vn 0.5083 0.7581 0.4086
vn 0.4611 -0.8027 0.3783
vn 0.2148 0.9606 0.1762
vn 0.2703 -0.9369 0.2218
vn 0.7201 0.3638 0.5909
vn 0.1695 -0.9757 0.1390
vn 0.7446 0.2689 0.6110
vn 0.1174 -0.9884 0.0963
vn 0.7697 0.0930 0.6316
vn 0.3461 -0.7539 0.5585
vn 0.0527 -0.9977 0.0432
vn 0.7689 -0.1033 0.6310
vn 0.7616 -0.3798 0.5250
vn 0.7323 -0.3204 0.6009
vn 0.8342 0.0727 0.5467
vn 0.6124 -0.6103 0.5025
vn 0.6318 0.0930 0.7696
vn 0.3528 -0.6357 0.6865
vn 0.0432 -0.9977 0.0526
vn 0.6311 -0.1033 0.7688
vn 0.6881 -0.3076 0.6573
vn 0.6011 -0.3204 0.7321
vn 0.7335 0.0942 0.6731
vn 0.5027 -0.6103 0.6122
vn 0.4173 0.7550 0.5058
vn 0.3785 -0.8027 0.4609
vn 0.1763 0.9606 0.2148
vn 0.2219 -0.9369 0.2702
vn 0.5910 0.3639 0.7200
vn 0.1391 -0.9757 0.1694
vn 0.6112 0.2689 0.7444
vn 0.0963 -0.9884 0.1173
vn 0.2815 -0.8028 0.5257
vn 0.1310 0.9606 0.2450
vn 0.1651 -0.9369 0.3082
vn 0.4394 0.3642 0.8211
vn 0.1035 -0.9757 0.1932
vn 0.4547 0.2689 0.8491
vn 0.0716 -0.9884 0.1338
vn 0.4700 0.0930 0.8777
vn 0.3607 -0.4945 0.7908
vn 0.0321 -0.9977 0.0600
vn 0.4696 -0.1033 0.8768
vn 0.6084 -0.2040 0.7669
vn 0.4472 -0.3204 0.8350
vn 0.6178 0.1337 0.7749
vn 0.3739 -0.6105 0.6982
vn 0.3082 0.7549 0.5789
vn 0.0198 -0.9977 0.0652
vn 0.2920 -0.1033 0.9508
vn 0.5269 -0.0714 0.8469
vn 0.2782 -0.3204 0.9055
vn 0.4889 0.1938 0.8505
vn 0.2322 -0.6114 0.7565
vn 0.1875 0.7564 0.6267
vn 0.1744 -0.8031 0.5697
vn 0.0806 0.9606 0.2659
vn 0.1023 -0.9370 0.3339
vn 0.2720 0.3656 0.8901
vn 0.0640 -0.9757 0.2094
vn 0.2827 0.2689 0.9207
vn 0.0442 -0.9884 0.1451
vn 0.2922 0.0931 0.9518
vn 0.3695 -0.3348 0.8668
vn 0.0367 -0.9375 0.3459
vn 0.0978 0.3704 0.9237
vn 0.0224 -0.9758 0.2173
vn 0.1063 0.2693 0.9572
vn 0.0151 -0.9884 0.1508
vn 0.1102 0.0937 0.9895
vn 0.3789 -0.1620 0.9112
vn 0.0067 -0.9977 0.0678
vn 0.1105 -0.1035 0.9885
vn 0.4462 0.0838 0.8910
vn 0.1064 -0.3201 0.9414
vn 0.3463 0.2729 0.8975
vn 0.0865 -0.6162 0.7828
vn 0.0607 0.7587 0.6486
vn 0.0631 -0.8047 0.5904
vn 0.0272 0.9606 0.2765
vn -0.9273 -0.0047 -0.3742
vn -0.9273 -0.0047 0.3742
vn -0.5405 0.8413 -0.0000
vn -0.5053 -0.8630 -0.0000
vn -0.0066 0.9999 0.0078
vn -0.0007 1.0000 -0.0027
vn 0.1877 0.2307 0.9548
vn 0.3773 0.2242 0.8985
vn 0.5452 0.2424 0.8025
vn 0.6821 0.2797 0.6757
vn 0.7841 0.3257 0.5284
vn 0.8515 0.3689 0.3726
vn 0.8864 0.4057 0.2227
vn 0.9001 0.4290 0.0763
vn 0.8987 0.4339 -0.0644
vn 0.8819 0.4185 -0.2172
vn 0.8451 0.3808 -0.3752
vn 0.7794 0.3307 -0.5322
vn 0.6781 0.2791 -0.6800
vn 0.5408 0.2379 -0.8068
vn 0.3762 0.2186 -0.9004
vn 0.1879 0.2263 -0.9558
vn -0.0091 0.2575 -0.9662
vn -0.2021 0.3065 -0.9302
vn -0.3783 0.3637 -0.8512
vn -0.5291 0.4206 -0.7370
vn -0.6501 0.4711 -0.5961
vn -0.7401 0.5112 -0.4369
vn -0.7993 0.5388 -0.2662
vn -0.8285 0.5528 -0.0894
vn -0.8285 0.5528 0.0894
vn -0.7993 0.5388 0.2662
vn -0.7401 0.5113 0.4369
vn -0.6501 0.4712 0.5961
vn -0.5292 0.4208 0.7368
vn -0.3787 0.3643 0.8508
vn -0.2030 0.3081 0.9294
vn -0.0103 0.2607 0.9654
vn -0.0653 0.3325 0.9408
vn -0.2481 0.3549 0.9014
vn -0.4173 0.3794 0.8258
vn -0.5665 0.4031 0.7188
vn -0.6908 0.4240 0.5857
vn -0.7866 0.4407 0.4325
vn -0.8515 0.4524 0.2651
vn -0.8843 0.4583 0.0893
vn -0.8843 0.4583 -0.0893
vn -0.8515 0.4524 -0.2651
vn -0.7866 0.4408 -0.4325
vn -0.6907 0.4241 -0.5857
vn -0.5663 0.4032 -0.7189
vn -0.4158 0.3788 -0.8268
vn -0.2423 0.3503 -0.9047
vn -0.0532 0.3177 -0.9467
vn 0.1262 0.2976 -0.9463
vn 0.3077 0.2881 -0.9068
vn 0.4659 0.3022 -0.8316
vn 0.6190 0.3341 -0.7108
vn 0.7368 0.3743 -0.5631
vn 0.8157 0.4170 -0.4009
vn 0.8628 0.4495 -0.2314
vn 0.8887 0.4544 -0.0616
vn 0.8920 0.4437 0.0860
vn 0.8744 0.4205 0.2421
vn 0.8325 0.3907 0.3927
vn 0.7466 0.3670 0.5549
vn 0.6278 0.3379 0.7012
vn 0.4795 0.3164 0.8185
vn 0.3082 0.3093 0.8996
vn 0.1232 0.3159 0.9408
vn -0.0110 -0.9942 -0.1067
vn -0.0311 -0.9943 -0.1024
vn -0.0505 -0.9943 -0.0944
vn -0.0679 -0.9943 -0.0827
vn -0.0827 -0.9943 -0.0679
vn -0.0944 -0.9943 -0.0504
vn -0.1024 -0.9943 -0.0311
vn -0.1065 -0.9943 -0.0105
vn -0.1065 -0.9943 0.0105
vn -0.1024 -0.9943 0.0311
vn -0.0944 -0.9943 0.0504
vn -0.0827 -0.9943 0.0679
vn -0.0679 -0.9943 0.0827
vn -0.0505 -0.9943 0.0944
vn -0.0311 -0.9943 0.1024
vn -0.0110 -0.9942 0.1067
vn 0.0072 -0.9941 0.1083
vn 0.0320 -0.9940 0.1048
vn 0.0512 -0.9940 0.0969
vn 0.0696 -0.9939 0.0850
vn 0.0849 -0.9939 0.0697
vn 0.0969 -0.9940 0.0517
vn 0.1051 -0.9940 0.0319
vn 0.1093 -0.9940 0.0108
vn 0.1093 -0.9940 -0.0108
vn 0.1051 -0.9940 -0.0319
vn 0.0969 -0.9940 -0.0517
vn 0.0849 -0.9939 -0.0697
vn 0.0696 -0.9939 -0.0850
vn 0.0512 -0.9940 -0.0969
vn 0.0320 -0.9940 -0.1048
vn 0.0072 -0.9941 -0.1083
vn -0.3487 0.0983 0.9321
vn -0.3497 -0.0982 0.9317
vn -0.4511 -0.3177 0.8340
vn -0.4417 0.2266 0.8681
vn -0.3930 0.2197 0.8929
vn -0.3847 0.0917 0.9185
vn -0.3862 -0.0931 0.9177
vn -0.3988 -0.2314 0.8874
vn -0.4873 0.0876 0.8688
vn -0.4876 -0.0911 0.8683
vn -0.4834 -0.2623 0.8352
vn -0.4716 -0.4397 0.7644
vn -0.4853 0.3460 0.8030
vn -0.4830 0.2459 0.8404
vn -0.5912 0.3783 0.7123
vn -0.6182 0.2538 0.7440
vn -0.6362 0.0889 0.7664
vn -0.6361 -0.0931 0.7660
vn -0.6158 -0.2723 0.7393
vn -0.5642 -0.4742 0.6759
vn -0.7704 -0.0932 0.6307
vn -0.7439 -0.2721 0.6105
vn -0.6823 -0.4639 0.5650
vn -0.7174 0.3631 0.5945
vn -0.7477 0.2526 0.6141
vn -0.7707 0.0887 0.6310
vn -0.8256 0.3469 0.4450
vn -0.8534 0.2504 0.4572
vn -0.8785 0.0884 0.4695
vn -0.8781 -0.0930 0.4693
vn -0.8487 -0.2701 0.4546
vn -0.7859 -0.4502 0.4239
vn -0.9528 -0.0928 0.2891
vn -0.9215 -0.2690 0.2800
vn -0.8573 -0.4435 0.2615
vn -0.8997 0.3395 0.2742
vn -0.9266 0.2492 0.2815
vn -0.9532 0.0882 0.2892
vn -0.9368 0.3375 0.0925
vn -0.9639 0.2488 0.0950
vn -0.9913 0.0881 0.0977
vn -0.9909 -0.0928 0.0976
vn -0.9586 -0.2686 0.0945
vn -0.8929 -0.4415 0.0882
vn -0.9586 -0.2686 -0.0945
vn -0.8929 -0.4415 -0.0882
vn -0.9368 0.3375 -0.0925
vn -0.9639 0.2488 -0.0950
vn -0.9913 0.0881 -0.0977
vn -0.9909 -0.0928 -0.0976
vn -0.8997 0.3395 -0.2742
vn -0.9266 0.2492 -0.2815
vn -0.9532 0.0882 -0.2892
vn -0.9528 -0.0928 -0.2891
vn -0.9215 -0.2690 -0.2800
vn -0.8573 -0.4435 -0.2615
vn -0.8487 -0.2701 -0.4546
vn -0.7859 -0.4502 -0.4239
vn -0.8256 0.3469 -0.4450
vn -0.8534 0.2504 -0.4572
vn -0.8785 0.0884 -0.4695
vn -0.8781 -0.0930 -0.4693
vn -0.7477 0.2526 -0.6141
vn -0.7707 0.0887 -0.6310
vn -0.7704 -0.0932 -0.6307
vn -0.7439 -0.2721 -0.6105
vn -0.6823 -0.4639 -0.5650
vn -0.7174 0.3631 -0.5945
vn -0.5642 -0.4742 -0.6759
vn -0.5912 0.3783 -0.7123
vn -0.6182 0.2538 -0.7440
vn -0.6362 0.0889 -0.7664
vn -0.6361 -0.0931 -0.7660
vn -0.6158 -0.2723 -0.7393
vn -0.4873 0.0876 -0.8688
vn -0.4876 -0.0911 -0.8683
vn -0.4834 -0.2623 -0.8352
vn -0.4716 -0.4397 -0.7644
vn -0.4853 0.3460 -0.8030
vn -0.4830 0.2459 -0.8404
vn -0.4417 0.2266 -0.8681
vn -0.3930 0.2197 -0.8929
vn -0.3848 0.0917 -0.9185
vn -0.3862 -0.0932 -0.9177
vn -0.3988 -0.2314 -0.8874
vn -0.4511 -0.3177 -0.8340
vn -0.3493 0.0983 -0.9318
vn -0.3504 -0.0982 -0.9315
vt 0.761553 0.000000
vt 0.747042 0.132204
vt 0.724693 0.132211
vt 0.713153 0.000007
vt 0.068108 0.577447
vt 0.050172 0.562943
vt 0.065560 0.547289
vt 0.080274 0.564998
vt 0.408273 0.718182
vt 0.405519 0.693466
vt 0.433780 0.689744
vt 0.435886 0.712985
vt 0.411772 0.719759
vt 0.411152 0.718815
vt 0.089445 0.594680
vt 0.097845 0.586073
vt 0.375273 0.697674
vt 0.376941 0.718289
vt 0.113483 0.614052
vt 0.117655 0.609776
vt 0.344357 0.699337
vt 0.345781 0.719261
vt 0.974314 0.570320
vt 0.971335 0.491784
vt 0.980099 0.568922
vt 0.137248 0.633131
vt 0.314118 0.698649
vt 0.315366 0.719139
vt 0.963249 0.637251
vt 0.973010 0.643163
vt 0.286251 0.695042
vt 0.286206 0.719450
vt 0.941255 0.665501
vt 0.948808 0.674960
vt 0.042864 0.521404
vt 0.043959 0.520936
vt 0.053680 0.532944
vt 0.035345 0.551111
vt 0.023939 0.542486
vt 0.040291 0.521599
vt 0.743927 0.155963
vt 0.726282 0.156084
vt 0.069781 0.508656
vt 0.074894 0.518413
vt 0.709018 0.159634
vt 0.702774 0.136580
vt 0.083671 0.534891
vt 0.665683 0.009464
vt 0.094633 0.555154
vt 0.438150 0.733123
vt 0.417866 0.739620
vt 0.107763 0.579269
vt 0.122581 0.606396
vt 0.985764 0.567093
vt 0.982628 0.647892
vt 0.956388 0.682953
vt 0.118818 0.574531
vt 0.128072 0.604042
vt 0.991099 0.564911
vt 0.991741 0.651270
vt 0.963716 0.689188
vt 0.095663 0.498219
vt 0.098494 0.508432
vt 0.692789 0.166464
vt 0.682128 0.145144
vt 0.103834 0.526272
vt 0.620968 0.028006
vt 0.110634 0.548300
vt 0.438150 0.690253
vt 0.439597 0.669572
vt 0.459151 0.674034
vt 0.458486 0.696117
vt 0.123466 0.503102
vt 0.125267 0.521729
vt 0.663548 0.157574
vt 0.580725 0.054921
vt 0.127659 0.544696
vt 0.440698 0.646024
vt 0.460322 0.649200
vt 0.130585 0.572040
vt 0.133916 0.602805
vt 0.995905 0.562462
vt 1.000000 0.653175
vt 0.386143 0.749782
vt 0.384979 0.786456
vt 0.376120 0.783363
vt 0.374609 0.744201
vt 0.122575 0.492282
vt 0.678206 0.176306
vt 1.000000 0.559839
vt 0.139891 0.602732
vt 0.384784 0.875341
vt 0.380616 0.877406
vt 0.366034 0.781761
vt 0.361541 0.740757
vt 0.150115 0.491781
vt 0.148979 0.502746
vt 0.665816 0.188784
vt 0.647747 0.173391
vt 0.147167 0.521452
vt 0.546501 0.089175
vt 0.145060 0.544482
vt 0.441386 0.620491
vt 0.461151 0.622145
vt 0.142612 0.571893
vt 0.635333 0.191988
vt 0.519612 0.129452
vt 0.168702 0.525458
vt 0.162168 0.547667
vt 0.441622 0.593952
vt 0.461447 0.593937
vt 0.154436 0.574095
vt 0.145765 0.603826
vt 0.386143 0.947470
vt 0.375778 0.879522
vt 0.355101 0.781713
vt 0.347446 0.739620
vt 0.177282 0.496795
vt 0.174085 0.507405
vt 0.656088 0.203424
vt 0.370453 0.881607
vt 0.343744 0.783223
vt 0.332894 0.740862
vt 0.202983 0.507069
vt 0.197809 0.516891
vt 0.649388 0.219669
vt 0.626782 0.212651
vt 0.189045 0.533593
vt 0.501090 0.174203
vt 0.178327 0.554129
vt 0.441399 0.567431
vt 0.461219 0.565723
vt 0.165605 0.578562
vt 0.151313 0.606045
vt 0.207412 0.545541
vt 0.192916 0.563620
vt 0.440726 0.541947
vt 0.460503 0.538608
vt 0.175688 0.585121
vt 0.156321 0.609303
vt 0.364847 0.883580
vt 0.332403 0.786233
vt 0.318481 0.744445
vt 0.226197 0.522172
vt 0.219232 0.530827
vt 0.645969 0.236905
vt 0.622422 0.234585
vt 0.491648 0.221709
vt 0.359178 0.885365
vt 0.321524 0.790628
vt 0.304800 0.750225
vt 0.237526 0.548674
vt 0.246022 0.541512
vt 0.645962 0.254476
vt 0.622422 0.256949
vt 0.223096 0.560842
vt 0.491648 0.270145
vt 0.205373 0.575774
vt 0.439629 0.518480
vt 0.459336 0.513640
vt 0.184298 0.593522
vt 0.160598 0.613476
vt 0.438150 0.497933
vt 0.457753 0.491781
vt 0.215221 0.590124
vt 0.191105 0.603440
vt 0.163979 0.618403
vt 0.353667 0.886891
vt 0.311532 0.796233
vt 0.292413 0.757961
vt 0.251982 0.569743
vt 0.261681 0.564336
vt 0.649367 0.271717
vt 0.626781 0.278882
vt 0.235492 0.578908
vt 0.501090 0.317649
vt 0.302816 0.802830
vt 0.281819 0.767326
vt 0.487483 0.827316
vt 0.488360 0.851266
vt 0.476150 0.855743
vt 0.475247 0.829823
vt 0.656053 0.287973
vt 0.635332 0.299542
vt 0.262032 0.593218
vt 0.244122 0.599042
vt 0.519612 0.362395
vt 0.222079 0.606118
vt 0.461447 0.491781
vt 0.479118 0.495006
vt 0.481536 0.519904
vt 0.464058 0.518250
vt 0.195846 0.614495
vt 0.166335 0.623894
vt 0.348527 0.888101
vt 0.225685 0.623143
vt 0.198339 0.626262
vt 0.167573 0.629740
vt 0.000000 0.844704
vt 0.028667 0.776649
vt 0.004088 0.847325
vt 0.343954 0.888948
vt 0.295708 0.810162
vt 0.273432 0.777921
vt 0.487459 0.802115
vt 0.475325 0.802604
vt 0.665771 0.302629
vt 0.647746 0.318137
vt 0.267278 0.618191
vt 0.248653 0.620472
vt 0.546501 0.402664
vt 0.483149 0.546171
vt 0.465845 0.546123
vt 0.488213 0.776602
vt 0.476162 0.775076
vt 0.678159 0.315126
vt 0.663547 0.333950
vt 0.267554 0.643726
vt 0.248921 0.642380
vt 0.580725 0.436908
vt 0.225902 0.640546
vt 0.483886 0.572800
vt 0.466578 0.574314
vt 0.198489 0.638290
vt 0.167648 0.635714
vt 0.008889 0.849774
vt 0.000000 0.938050
vt 0.008244 0.936141
vt 0.290477 0.817951
vt 0.267554 0.789306
vt 0.196291 0.650115
vt 0.166556 0.641588
vt 0.014220 0.851956
vt 0.017346 0.932760
vt 0.036270 0.974070
vt 0.043582 0.967828
vt 0.476786 0.747757
vt 0.489537 0.751644
vt 0.692794 0.324963
vt 0.682129 0.346373
vt 0.262993 0.668942
vt 0.244934 0.663944
vt 0.620968 0.463812
vt 0.222724 0.657661
vt 0.483698 0.598784
vt 0.465536 0.602029
vt 0.709234 0.331672
vt 0.702781 0.354928
vt 0.253468 0.692829
vt 0.236809 0.684335
vt 0.665683 0.482342
vt 0.216269 0.673830
vt 0.482677 0.623160
vt 0.461447 0.629470
vt 0.191828 0.661285
vt 0.164338 0.647135
vt 0.019883 0.853785
vt 0.026956 0.928030
vt 0.051150 0.959828
vt 0.475248 0.720072
vt 0.491648 0.728266
vt 0.552375 0.697324
vt 0.583273 0.699317
vt 0.581655 0.719232
vt 0.550506 0.717928
vt 0.025669 0.855186
vt 0.161081 0.652143
vt 0.613529 0.698956
vt 0.612081 0.719440
vt 0.036714 0.922119
vt 0.641455 0.695657
vt 0.641259 0.720073
vt 0.058696 0.950367
vt 0.267554 0.703470
vt 0.250769 0.724012
vt 0.239771 0.714707
vt 0.267381 0.699734
vt 0.267167 0.700907
vt 0.726892 0.334857
vt 0.724707 0.359282
vt 0.224913 0.702783
vt 0.713154 0.491784
vt 0.206791 0.688431
vt 0.516305 0.718096
vt 0.515677 0.719034
vt 0.491648 0.712009
vt 0.493977 0.688781
vt 0.522183 0.692798
vt 0.519188 0.717493
vt 0.185272 0.671368
vt 0.222108 0.732864
vt 0.209653 0.718458
vt 0.747040 0.359280
vt 0.761552 0.491777
vt 0.194647 0.700889
vt 0.495626 0.663551
vt 0.523878 0.666512
vt 0.176875 0.679977
vt 0.554157 0.669222
vt 0.156910 0.656419
vt 0.585052 0.670734
vt 0.031361 0.856099
vt 0.615232 0.670900
vt 0.046259 0.915223
vt 0.642950 0.669536
vt 0.065959 0.939726
vt 0.658183 0.691069
vt 0.659489 0.667037
vt 0.743856 0.334877
vt 0.036741 0.856484
vt 0.151984 0.659799
vt 0.586314 0.640167
vt 0.616460 0.640951
vt 0.055242 0.907557
vt 0.644081 0.641504
vt 0.072686 0.928125
vt 0.660500 0.641651
vt 0.760522 0.331692
vt 0.768945 0.354920
vt 0.200999 0.747320
vt 0.191586 0.730852
vt 0.809022 0.482321
vt 0.180300 0.710735
vt 0.496732 0.637122
vt 0.525059 0.638152
vt 0.166959 0.686782
vt 0.555402 0.639217
vt 0.789604 0.346366
vt 0.853737 0.463779
vt 0.171429 0.739489
vt 0.164302 0.717591
vt 0.497276 0.610542
vt 0.525644 0.609501
vt 0.155905 0.691520
vt 0.556019 0.608938
vt 0.146493 0.662153
vt 0.586942 0.609323
vt 0.041597 0.856322
vt 0.617073 0.610731
vt 0.063319 0.899348
vt 0.644652 0.613202
vt 0.078601 0.915745
vt 0.661013 0.616068
vt 0.777359 0.325264
vt 0.177417 0.757417
vt 0.586899 0.579481
vt 0.617031 0.581494
vt 0.045735 0.855623
vt 0.070154 0.890854
vt 0.644611 0.585818
vt 0.083385 0.902922
vt 0.660976 0.591319
vt 0.792354 0.315529
vt 0.808196 0.333941
vt 0.152303 0.762729
vt 0.149966 0.744030
vt 0.893980 0.436863
vt 0.147271 0.721196
vt 0.497240 0.584841
vt 0.525604 0.581777
vt 0.144137 0.694011
vt 0.555977 0.579643
vt 0.140648 0.663390
vt 0.128027 0.744297
vt 0.129862 0.721408
vt 0.496625 0.561010
vt 0.524941 0.556065
vt 0.132109 0.694157
vt 0.555276 0.552475
vt 0.134674 0.663463
vt 0.586184 0.551806
vt 0.660915 0.732702
vt 0.660915 0.811842
vt 0.656282 0.733382
vt 0.616330 0.554381
vt 0.048990 0.854417
vt 0.075445 0.882404
vt 0.643956 0.560423
vt 0.086756 0.890261
vt 0.660383 0.568368
vt 0.804929 0.302981
vt 0.824002 0.318122
vt 0.126632 0.763042
vt 0.928204 0.402609
vt 0.614999 0.530435
vt 0.642708 0.537994
vt 0.078965 0.874421
vt 0.088615 0.878577
vt 0.125738 0.776649
vt 0.097809 0.771448
vt 0.101391 0.758341
vt 0.814697 0.288155
vt 0.836417 0.299519
vt 0.106456 0.740280
vt 0.955093 0.362333
vt 0.112745 0.718220
vt 0.495455 0.539963
vt 0.523678 0.533359
vt 0.120283 0.691955
vt 0.553942 0.528481
vt 0.128800 0.662369
vt 0.584825 0.527365
vt 0.651056 0.734402
vt 0.051231 0.852761
vt 0.096578 0.711754
vt 0.109113 0.687488
vt 0.521865 0.514529
vt 0.552026 0.508585
vt 0.123252 0.660150
vt 0.582874 0.507098
vt 0.645442 0.735714
vt 0.613087 0.510579
vt 0.052373 0.850728
vt 0.080611 0.867368
vt 0.640917 0.519396
vt 0.089047 0.868647
vt 0.071429 0.760898
vt 0.077550 0.748806
vt 0.821251 0.271546
vt 0.844964 0.278846
vt 0.086081 0.732132
vt 0.973615 0.317581
vt 0.493774 0.522511
vt 0.080380 0.861662
vt 0.088175 0.861047
vt 0.047613 0.745404
vt 0.056027 0.734804
vt 0.824253 0.253795
vt 0.849314 0.256901
vt 0.067687 0.720165
vt 0.983057 0.270074
vt 0.081982 0.702259
vt 0.491648 0.509323
vt 0.519571 0.500301
vt 0.099028 0.680927
vt 0.549602 0.493551
vt 0.118243 0.656892
vt 0.580405 0.491784
vt 0.639658 0.737261
vt 0.610668 0.495575
vt 0.647245 0.720072
vt 0.635842 0.724247
vt 0.638652 0.505342
vt 0.380365 0.493878
vt 0.410322 0.500947
vt 0.407831 0.515170
vt 0.377732 0.508906
vt 0.090417 0.672526
vt 0.113966 0.652719
vt 0.349587 0.491781
vt 0.346905 0.507090
vt 0.633926 0.738982
vt 0.319293 0.495245
vt 0.316666 0.510243
vt 0.623981 0.726648
vt 0.291220 0.504708
vt 0.288759 0.518757
vt 0.911867 0.576215
vt 0.919674 0.576774
vt 0.919425 0.582497
vt 0.910981 0.583840
vt 0.027275 0.725563
vt 0.037647 0.716873
vt 0.824174 0.236909
vt 0.849311 0.234553
vt 0.051980 0.704841
vt 0.983057 0.221639
vt 0.069519 0.690099
vt 0.438150 0.510266
vt 0.435841 0.523448
vt 0.011199 0.702136
vt 0.023118 0.695701
vt 0.821005 0.220303
vt 0.844958 0.212634
vt 0.039563 0.686748
vt 0.973615 0.174135
vt 0.059666 0.675742
vt 0.433937 0.540898
vt 0.405777 0.533997
vt 0.083610 0.662606
vt 0.375562 0.528799
vt 0.110585 0.647792
vt 0.344694 0.527354
vt 0.628470 0.740811
vt 0.314500 0.530097
vt 0.947663 0.565833
vt 0.948795 0.567871
vt 0.921055 0.589543
vt 0.286730 0.537352
vt 0.911404 0.593708
vt 0.078868 0.651550
vt 0.108229 0.642300
vt 0.373937 0.552792
vt 0.343039 0.551794
vt 0.623504 0.742683
vt 0.312879 0.554042
vt 0.951025 0.569532
vt 0.924558 0.597521
vt 0.285212 0.559780
vt 0.913239 0.605369
vt -0.000000 0.676025
vt 0.012997 0.672103
vt 0.814615 0.203435
vt 0.836415 0.191961
vt 0.030914 0.666581
vt 0.955093 0.129389
vt 0.052803 0.659740
vt 0.432512 0.561944
vt 0.404239 0.556703
vt 0.804921 0.188401
vt 0.824002 0.173356
vt 0.007674 0.646986
vt 0.026364 0.645115
vt 0.928204 0.089120
vt 0.049193 0.642707
vt 0.431621 0.585778
vt 0.403278 0.582417
vt 0.076374 0.639782
vt 0.372921 0.579963
vt 0.106991 0.636455
vt 0.342004 0.579471
vt 0.619226 0.744533
vt 0.311864 0.581158
vt 0.954270 0.570742
vt 0.929833 0.605970
vt 0.284262 0.585178
vt 0.916587 0.618021
vt 0.268726 0.567539
vt 0.267867 0.590492
vt 0.372552 0.609262
vt 0.341628 0.609317
vt 0.958400 0.571446
vt 0.106916 0.630481
vt 0.311495 0.610399
vt 0.936656 0.614468
vt 0.283915 0.612566
vt 0.921356 0.630837
vt 0.267554 0.615244
vt 0.792410 0.175792
vt 0.808198 0.157539
vt 0.007350 0.621317
vt 0.026089 0.623178
vt 0.893980 0.054876
vt 0.048975 0.625299
vt 0.431297 0.611483
vt 0.402928 0.610145
vt 0.076223 0.627754
vt 0.012030 0.596093
vt 0.030095 0.601616
vt 0.789613 0.145116
vt 0.853737 0.027972
vt 0.052157 0.608186
vt 0.431554 0.638068
vt 0.403204 0.638802
vt 0.078423 0.615929
vt 0.372842 0.639548
vt 0.108008 0.624607
vt 0.341923 0.640168
vt 0.963250 0.571612
vt 0.311782 0.640625
vt 0.944724 0.622681
vt 0.284180 0.640873
vt 0.927263 0.643222
vt 0.267790 0.640832
vt 0.777657 0.165983
vt 0.110226 0.619060
vt 0.342866 0.670744
vt 0.312697 0.670583
vt 0.968625 0.571231
vt 0.953703 0.630352
vt 0.285019 0.668914
vt 0.933988 0.654847
vt 0.268537 0.666226
vt 0.761277 0.159297
vt 0.768963 0.136561
vt 0.021504 0.572327
vt 0.038225 0.581269
vt 0.809022 0.009443
vt 0.058617 0.592028
vt 0.432385 0.664505
vt 0.404089 0.667170
vt 0.082887 0.604761
vt 0.373774 0.669561
vt 0.269602 0.690264
vt 0.107726 0.786074
vt 0.110469 0.784397
vt 0.140414 0.777680
vt 0.170792 0.776650
vt 0.201438 0.781142
vt 0.231510 0.791089
vt 0.234107 0.793862
vt 0.228960 0.811192
vt 0.222073 0.807706
vt 0.198836 0.797707
vt 0.184739 0.795441
vt 0.171322 0.793418
vt 0.158071 0.793907
vt 0.144135 0.794550
vt 0.120649 0.800849
vt 0.113407 0.802752
vt 0.491648 0.737663
vt 0.494369 0.735095
vt 0.524189 0.724692
vt 0.554811 0.720073
vt 0.585836 0.722017
vt 0.616534 0.729783
vt 0.619226 0.731358
vt 0.614860 0.750058
vt 0.607531 0.748055
vt 0.583509 0.741026
vt 0.569229 0.739885
vt 0.555640 0.738914
vt 0.542249 0.741021
vt 0.528180 0.743365
vt 0.504858 0.753258
vt 0.497965 0.756738
vt 0.786521 0.509413
vt 0.778386 0.491784
vt 0.779427 0.492348
vt 0.805079 0.504849
vt 0.829370 0.518541
vt 0.850809 0.535845
vt 0.868401 0.557035
vt 0.881455 0.581380
vt 0.889488 0.607867
vt 0.892199 0.635429
vt 0.889488 0.662990
vt 0.881456 0.689477
vt 0.868401 0.713823
vt 0.850809 0.735012
vt 0.829370 0.752316
vt 0.805079 0.766007
vt 0.779427 0.778507
vt 0.778386 0.779071
vt 0.786521 0.761441
vt 0.801856 0.752736
vt 0.821850 0.740354
vt 0.840739 0.724705
vt 0.856584 0.705674
vt 0.868378 0.683859
vt 0.875619 0.660127
vt 0.878059 0.635427
vt 0.875619 0.610727
vt 0.868378 0.586996
vt 0.856584 0.565181
vt 0.840739 0.546149
vt 0.821850 0.530500
vt 0.801856 0.518117
vt 0.777119 0.780905
vt 0.750347 0.769931
vt 0.725350 0.756446
vt 0.703395 0.738716
vt 0.685391 0.716926
vt 0.672022 0.691946
vt 0.663792 0.664806
vt 0.661013 0.636577
vt 0.663792 0.608348
vt 0.672022 0.581207
vt 0.685391 0.556225
vt 0.703395 0.534432
vt 0.725350 0.516699
vt 0.750347 0.503216
vt 0.777119 0.492259
vt 0.778386 0.491784
vt 0.772016 0.509140
vt 0.755301 0.517895
vt 0.734707 0.530274
vt 0.715466 0.546093
vt 0.699392 0.565387
vt 0.687441 0.587509
vt 0.680103 0.611572
vt 0.677630 0.636614
vt 0.680103 0.661655
vt 0.687441 0.685717
vt 0.699392 0.707839
vt 0.715466 0.727130
vt 0.734707 0.742946
vt 0.755301 0.755316
vt 0.772016 0.764058
vt 0.778386 0.781383
vt 0.739643 0.291896
vt 0.748566 0.290119
vt 0.756971 0.286633
vt 0.764536 0.281574
vt 0.770969 0.275135
vt 0.776023 0.267564
vt 0.779505 0.259152
vt 0.781280 0.250223
vt 0.781280 0.241118
vt 0.779505 0.232189
vt 0.776023 0.223778
vt 0.770969 0.216208
vt 0.764536 0.209771
vt 0.756971 0.204714
vt 0.748566 0.201231
vt 0.739643 0.199456
vt 0.730545 0.199457
vt 0.721622 0.201235
vt 0.713217 0.204720
vt 0.705653 0.209780
vt 0.699219 0.216218
vt 0.694165 0.223789
vt 0.690683 0.232201
vt 0.688909 0.241131
vt 0.688909 0.250236
vt 0.690683 0.259165
vt 0.694165 0.267576
vt 0.699219 0.275146
vt 0.705652 0.281583
vt 0.713217 0.286640
vt 0.721622 0.290123
vt 0.730545 0.291898
vt 0.913106 0.662137
vt 0.917168 0.676433
vt 0.909468 0.647067
vt 0.906355 0.631778
vt 0.903848 0.616840
vt 0.902065 0.602823
vt 0.901167 0.590339
vt 0.901220 0.580098
vt 0.902279 0.572239
vt 0.818418 0.269915
vt 0.813541 0.269003
vt 0.816473 0.253583
vt 0.821376 0.253836
vt 0.098873 0.875188
vt 0.098798 0.864727
vt 0.097940 0.887725
vt 0.096123 0.901761
vt 0.093593 0.916747
vt 0.090464 0.932088
vt 0.086825 0.947037
vt 0.082774 0.961225
vt 0.078437 0.974257
vt 0.073969 0.985540
vt 0.810671 0.838053
vt 0.841305 0.849178
vt 0.834983 0.861061
vt 0.807178 0.853008
vt 0.813287 0.822593
vt 0.846480 0.836544
vt 0.814923 0.807217
vt 0.850279 0.823636
vt 0.815512 0.792517
vt 0.852532 0.810975
vt 0.430854 0.761689
vt 0.386606 0.772341
vt 0.388249 0.760574
vt 0.431320 0.749236
vt 0.430796 0.775857
vt 0.386143 0.785555
vt 0.431150 0.791186
vt 0.386881 0.799675
vt 0.431902 0.807075
vt 0.388788 0.814119
vt 0.433020 0.822903
vt 0.391782 0.828294
vt 0.434458 0.838057
vt 0.395735 0.841626
vt 0.436157 0.851958
vt 0.400478 0.853595
vt 0.438052 0.864085
vt 0.405811 0.863769
vt 0.921519 0.689437
vt 0.926003 0.700676
vt 0.893259 0.688182
vt 0.894289 0.703482
vt 0.895610 0.716758
vt 0.469839 0.866556
vt 0.471235 0.852869
vt 0.472420 0.837307
vt 0.473348 0.820459
vt 0.473987 0.802964
vt 0.474312 0.785485
vt 0.474312 0.768684
vt 0.473987 0.753201
vt 0.473349 0.739620
vt 0.778386 0.779071
vt 0.779506 0.795519
vt 0.780084 0.812869
vt 0.780095 0.830468
vt 0.779531 0.847658
vt 0.802942 0.866891
vt 0.778386 0.863796
vt 0.105664 0.988086
vt 0.106669 0.972306
vt 0.107327 0.956191
vt 0.107680 0.939356
vt 0.107726 0.921340
vt 0.107420 0.904039
vt 0.106792 0.888157
vt 0.105852 0.874230
vt 0.104584 0.862796
vt 0.896941 0.569986
vt 0.895427 0.578390
vt 0.894226 0.589342
vt 0.893219 0.603224
vt 0.892542 0.619078
vt 0.892199 0.636190
vt 0.892200 0.653873
vt 0.892555 0.671432
vt 0.285040 0.376035
vt 0.317526 0.482330
vt 0.270034 0.491780
vt 0.258971 0.381254
vt 0.309648 0.365829
vt 0.362263 0.463794
vt 0.331807 0.351016
vt 0.402526 0.436884
vt 0.350654 0.332163
vt 0.436767 0.402634
vt 0.365462 0.309994
vt 0.463669 0.362361
vt 0.375663 0.285362
vt 0.482200 0.317612
vt 0.380863 0.259212
vt 0.491648 0.270107
vt 0.380863 0.232550
vt 0.491648 0.221671
vt 0.375664 0.206401
vt 0.482202 0.174165
vt 0.365464 0.181769
vt 0.463671 0.129416
vt 0.350655 0.159600
vt 0.436769 0.089143
vt 0.331808 0.140747
vt 0.402529 0.054894
vt 0.309646 0.125935
vt 0.362267 0.027984
vt 0.285024 0.115731
vt 0.317530 0.009449
vt 0.258899 0.110523
vt 0.270038 -0.000000
vt 0.232313 0.110492
vt 0.221616 0.000000
vt 0.206092 0.115674
vt 0.174122 0.009449
vt 0.181458 0.125952
vt 0.129385 0.027986
vt 0.159296 0.140776
vt 0.089122 0.054896
vt 0.140446 0.159617
vt 0.054882 0.089146
vt 0.125637 0.181777
vt 0.027979 0.129419
vt 0.115437 0.206405
vt 0.009448 0.174168
vt 0.110237 0.232553
vt 0.000000 0.221674
vt 0.110237 0.259213
vt -0.000000 0.270110
vt 0.115436 0.285360
vt 0.009446 0.317615
vt 0.125635 0.309990
vt 0.027977 0.362364
vt 0.140443 0.332155
vt 0.054879 0.402637
vt 0.159289 0.350999
vt 0.089119 0.436886
vt 0.181451 0.365799
vt 0.129381 0.463795
vt 0.206078 0.376014
vt 0.174118 0.482331
vt 0.232244 0.381287
vt 0.221611 0.491781
vt 0.483886 0.491781
vt 0.484338 0.505415
vt 0.484232 0.505427
vt 0.483886 0.518722
vt 0.505198 0.767974
vt 0.498689 0.770657
vt 0.612583 0.764707
vt 0.606102 0.763291
vt 0.581561 0.760071
vt 0.554743 0.759895
vt 0.555636 0.739016
vt 0.528411 0.762376
vt 0.580842 0.780644
vt 0.554189 0.780493
vt 0.528024 0.782918
vt 0.505049 0.787601
vt 0.498919 0.789802
vt 0.605177 0.783082
vt 0.611193 0.784158
vt 0.604961 0.805611
vt 0.610879 0.806213
vt 0.580702 0.804261
vt 0.554091 0.804479
vt 0.527966 0.806510
vt 0.505049 0.810018
vt 0.498971 0.811550
vt 0.554498 0.830553
vt 0.528372 0.832120
vt 0.505429 0.834357
vt 0.499309 0.835234
vt 0.605331 0.830065
vt 0.611255 0.830222
vt 0.581094 0.829894
vt 0.606192 0.855491
vt 0.612125 0.855230
vt 0.581986 0.856526
vt 0.555405 0.857645
vt 0.529262 0.858728
vt 0.506264 0.859663
vt 0.500096 0.859904
vt 0.556778 0.884703
vt 0.530609 0.885303
vt 0.507539 0.884946
vt 0.501329 0.884564
vt 0.607489 0.880894
vt 0.613412 0.880228
vt 0.583337 0.883125
vt 0.609169 0.905287
vt 0.615068 0.904235
vt 0.585094 0.908665
vt 0.558565 0.910683
vt 0.532364 0.910819
vt 0.509207 0.909222
vt 0.502953 0.908244
vt 0.534458 0.934295
vt 0.511201 0.931555
vt 0.504900 0.930025
vt 0.617033 0.926318
vt 0.611168 0.927727
vt 0.587190 0.932162
vt 0.560697 0.934586
vt 0.619226 0.945607
vt 0.613408 0.947343
vt 0.138934 0.946167
vt 0.116557 0.941154
vt 0.115540 0.919319
vt 0.137858 0.923311
vt 0.164617 0.949064
vt 0.163522 0.925814
vt 0.191100 0.949064
vt 0.190023 0.926228
vt 0.215536 0.946415
vt 0.214510 0.924683
vt 0.222463 0.944854
vt 0.221459 0.923644
vt 0.189870 0.901135
vt 0.214364 0.900799
vt 0.221312 0.900326
vt 0.110146 0.894450
vt 0.115417 0.895323
vt 0.110227 0.918080
vt 0.137707 0.898195
vt 0.163365 0.900267
vt 0.116160 0.870117
vt 0.138471 0.871806
vt 0.164147 0.873430
vt 0.190646 0.874773
vt 0.215113 0.875719
vt 0.222051 0.875851
vt 0.110928 0.869640
vt 0.216748 0.850531
vt 0.223710 0.851381
vt 0.112276 0.844774
vt 0.117607 0.844772
vt 0.140070 0.845244
vt 0.165814 0.846456
vt 0.192321 0.848245
vt 0.142261 0.819862
vt 0.168187 0.821019
vt 0.194827 0.822920
vt 0.219206 0.826584
vt 0.226306 0.828308
vt 0.119365 0.820543
vt 0.113410 0.821144
vt 0.171304 0.793556
s 0
usemtl マテリアル
f 583/1/1 468/2/1 10/3/1 584/4/1
f 472/5/2 471/6/2 13/7/2 14/8/2
f 476/9/3 469/10/3 2/11/3 11/12/3 475/13/3 477/14/3
f 473/15/4 472/5/4 14/8/4 16/16/4
f 3/17/5 469/10/5 476/9/5 478/18/5
f 474/19/6 473/15/6 16/16/6 17/20/6
f 4/21/7 3/17/7 478/18/7 479/22/7
f 466/23/8 68/24/8 7/25/8
f 300/26/9 474/19/9 17/20/9
f 5/27/10 4/21/10 479/22/10 480/28/10
f 467/29/11 466/23/11 7/25/11 8/30/11
f 470/31/12 5/27/12 480/28/12 481/32/12
f 519/33/13 467/29/13 8/30/13 520/34/13
f 482/35/14 483/36/14 12/37/14 6/38/14 470/39/14 481/40/14
f 468/2/15 1/41/15 9/42/15 10/3/15
f 471/6/16 6/38/16 12/37/16 13/7/16
f 484/43/17 23/44/17 12/37/17 483/36/17
f 10/3/18 9/42/18 20/45/18 21/46/18
f 13/7/19 12/37/19 23/44/19 24/47/19
f 584/4/20 10/3/20 21/46/20 585/48/20
f 14/8/21 13/7/21 24/47/21 25/49/21
f 11/12/22 22/50/22 485/51/22 475/13/22
f 16/16/23 14/8/23 25/49/23 26/52/23
f 17/20/24 16/16/24 26/52/24 27/53/24
f 7/25/25 68/24/25 18/54/25
f 300/26/26 17/20/26 27/53/26
f 8/30/27 7/25/27 18/54/27 19/55/27
f 520/34/28 8/30/28 19/55/28 521/56/28
f 27/53/29 26/52/29 41/57/29 42/58/29
f 18/54/30 68/24/30 29/59/30
f 300/26/31 27/53/31 42/58/31
f 19/55/32 18/54/32 29/59/32 31/60/32
f 521/56/33 19/55/33 31/60/33 522/61/33
f 486/62/34 38/63/34 23/44/34 484/43/34
f 21/46/35 20/45/35 33/64/35 34/65/35
f 24/47/36 23/44/36 38/63/36 39/66/36
f 585/48/37 21/46/37 34/65/37 586/67/37
f 25/49/38 24/47/38 39/66/38 40/68/38
f 22/69/39 36/70/39 487/71/39 485/72/39
f 26/52/40 25/49/40 40/68/40 41/57/40
f 39/66/41 38/63/41 49/73/41 51/74/41
f 586/67/42 34/65/42 46/75/42 587/76/42
f 40/68/43 39/66/43 51/74/43 53/77/43
f 36/70/44 47/78/44 488/79/44 487/71/44
f 41/57/45 40/68/45 53/77/45 55/80/45
f 42/58/46 41/57/46 55/80/46 57/81/46
f 29/59/47 68/24/47 43/82/47
f 300/26/48 42/58/48 57/81/48
f 31/60/49 29/59/49 43/82/49 44/83/49
f 522/84/50 31/85/50 44/86/50 523/87/50
f 489/88/51 49/73/51 38/63/51 486/62/51
f 34/65/52 33/64/52 45/89/52 46/75/52
f 43/82/53 68/24/53 58/90/53
f 300/26/54 57/81/54 67/91/54
f 44/86/55 43/92/55 58/93/55 59/94/55
f 523/87/56 44/86/56 59/94/56 524/95/56
f 490/96/57 63/97/57 49/73/57 489/88/57
f 46/75/58 45/89/58 60/98/58 61/99/58
f 51/74/59 49/73/59 63/97/59 64/100/59
f 587/76/60 46/75/60 61/99/60 588/101/60
f 53/77/61 51/74/61 64/100/61 65/102/61
f 488/79/62 47/78/62 62/103/62 491/104/62
f 55/80/63 53/77/63 65/102/63 66/105/63
f 57/81/64 55/80/64 66/105/64 67/91/64
f 588/101/65 61/99/65 77/106/65 589/107/65
f 65/102/66 64/100/66 80/108/66 81/109/66
f 491/104/67 62/103/67 78/110/67 492/111/67
f 66/105/68 65/102/68 81/109/68 82/112/68
f 67/91/69 66/105/69 82/112/69 83/113/69
f 58/93/70 68/114/70 71/115/70
f 300/26/71 67/91/71 83/113/71
f 59/94/72 58/93/72 71/115/72 72/116/72
f 524/95/73 59/94/73 72/116/73 525/117/73
f 493/118/74 79/119/74 63/97/74 490/96/74
f 61/99/75 60/98/75 75/120/75 77/106/75
f 64/100/76 63/97/76 79/119/76 80/108/76
f 72/116/77 71/115/77 84/121/77 85/122/77
f 525/117/78 72/116/78 85/122/78 526/123/78
f 494/124/79 91/125/79 79/119/79 493/118/79
f 77/106/80 75/120/80 86/126/80 87/127/80
f 80/108/81 79/119/81 91/125/81 93/128/81
f 589/107/82 77/106/82 87/127/82 590/129/82
f 81/109/83 80/108/83 93/128/83 95/130/83
f 492/111/84 78/110/84 89/131/84 495/132/84
f 82/112/85 81/109/85 95/130/85 97/133/85
f 83/113/86 82/112/86 97/133/86 98/134/86
f 71/115/87 68/114/87 84/121/87
f 300/26/88 83/113/88 98/134/88
f 95/130/89 93/128/89 105/135/89 106/136/89
f 495/132/90 89/131/90 103/137/90 496/138/90
f 97/133/91 95/130/91 106/136/91 107/139/91
f 98/134/92 97/133/92 107/139/92 108/140/92
f 84/121/93 68/114/93 99/141/93
f 300/26/94 98/134/94 108/140/94
f 85/122/95 84/121/95 99/141/95 100/142/95
f 526/123/96 85/122/96 100/142/96 527/143/96
f 497/144/97 104/145/97 91/125/97 494/124/97
f 87/127/98 86/126/98 101/146/98 102/147/98
f 93/128/99 91/125/99 104/145/99 105/135/99
f 590/129/100 87/127/100 102/147/100 591/148/100
f 100/142/101 99/141/101 110/149/101 112/150/101
f 527/143/102 100/142/102 112/150/102 528/151/102
f 119/152/103 104/145/103 497/144/103 498/153/103
f 102/147/104 101/146/104 114/154/104 116/155/104
f 105/135/105 104/145/105 119/152/105 120/156/105
f 591/148/106 102/147/106 116/155/106 592/157/106
f 106/136/107 105/135/107 120/156/107 121/158/107
f 496/138/108 103/137/108 118/159/108 499/160/108
f 107/139/109 106/136/109 121/158/109 122/161/109
f 108/140/110 107/139/110 122/161/110 123/162/110
f 99/141/111 68/114/111 110/149/111
f 300/26/112 108/140/112 123/162/112
f 499/160/113 118/159/113 128/163/113 500/164/113
f 122/161/114 121/158/114 134/165/114 136/166/114
f 123/162/115 122/161/115 136/166/115 138/167/115
f 110/149/116 68/114/116 124/168/116
f 300/26/117 123/162/117 138/167/117
f 112/150/118 110/149/118 124/168/118 125/169/118
f 528/151/119 112/150/119 125/169/119 529/170/119
f 129/171/120 119/152/120 498/153/120 501/172/120
f 116/155/121 114/154/121 126/173/121 127/174/121
f 120/156/122 119/152/122 129/171/122 131/175/122
f 592/157/123 116/155/123 127/174/123 593/176/123
f 121/158/124 120/156/124 131/175/124 134/165/124
f 529/170/125 125/169/125 140/177/125 530/178/125
f 144/179/126 129/180/126 501/181/126 502/182/126
f 127/174/127 126/173/127 141/183/127 142/184/127
f 131/175/128 129/171/128 144/185/128 145/186/128
f 593/176/129 127/174/129 142/184/129 594/187/129
f 134/165/130 131/175/130 145/186/130 146/188/130
f 500/189/131 128/190/131 143/191/131 503/192/131
f 136/166/132 134/165/132 146/188/132 147/193/132
f 138/167/133 136/166/133 147/193/133 148/194/133
f 124/168/134 68/114/134 139/195/134
f 300/26/135 138/167/135 148/194/135
f 125/169/136 124/168/136 139/195/136 140/177/136
f 147/193/137 146/188/137 161/196/137 162/197/137
f 148/194/138 147/193/138 162/197/138 163/198/138
f 139/199/139 68/200/139 150/201/139
f 300/26/140 148/194/140 163/198/140
f 140/177/141 139/195/141 150/202/141 151/203/141
f 530/178/142 140/177/142 151/203/142 531/204/142
f 159/205/143 144/179/143 502/182/143 504/206/143
f 142/184/144 141/183/144 153/207/144 156/208/144
f 145/186/145 144/185/145 159/209/145 160/210/145
f 594/187/146 142/184/146 156/208/146 595/211/146
f 146/188/147 145/186/147 160/210/147 161/196/147
f 503/192/148 143/191/148 158/212/148 505/213/148
f 170/214/149 159/205/149 504/206/149 506/215/149
f 156/208/150 153/207/150 166/216/150 167/217/150
f 160/210/151 159/209/151 170/218/151 172/219/151
f 595/211/152 156/208/152 167/217/152 596/220/152
f 161/196/153 160/210/153 172/219/153 174/221/153
f 505/213/154 158/212/154 168/222/154 507/223/154
f 162/197/155 161/196/155 174/221/155 176/224/155
f 163/198/156 162/197/156 176/224/156 178/225/156
f 150/201/157 68/200/157 164/226/157
f 300/26/158 163/198/158 178/225/158
f 151/227/159 150/201/159 164/226/159 165/228/159
f 531/204/160 151/203/160 165/229/160 532/230/160
f 178/225/161 176/224/161 187/231/161 188/232/161
f 164/226/162 68/200/162 179/233/162
f 300/26/163 178/225/163 188/232/163
f 165/228/164 164/226/164 179/233/164 180/234/164
f 532/235/165 165/228/165 180/234/165 533/236/165
f 508/237/166 184/238/166 170/214/166 506/215/166
f 167/217/167 166/216/167 181/239/167 182/240/167
f 172/219/168 170/218/168 184/241/168 185/242/168
f 596/220/169 167/217/169 182/240/169 597/243/169
f 174/221/170 172/219/170 185/242/170 186/244/170
f 507/223/171 168/222/171 183/245/171 509/246/171
f 176/224/172 174/221/172 186/244/172 187/231/172
f 182/240/173 181/239/173 194/247/173 196/248/173
f 185/242/174 184/241/174 199/249/174 200/250/174
f 597/243/175 182/240/175 196/248/175 598/251/175
f 186/244/176 185/242/176 200/250/176 201/252/176
f 509/246/177 183/245/177 198/253/177 510/254/177
f 187/231/178 186/244/178 201/252/178 202/255/178
f 188/232/179 187/231/179 202/255/179 203/256/179
f 179/233/180 68/200/180 189/257/180
f 300/26/181 188/232/181 203/256/181
f 180/234/182 179/233/182 189/257/182 191/258/182
f 533/236/183 180/234/183 191/258/183 534/259/183
f 511/260/184 199/261/184 184/238/184 508/237/184
f 211/262/185 214/263/185 513/264/185 512/265/185
f 189/257/186 68/200/186 204/266/186
f 300/26/187 203/256/187 223/267/187
f 214/263/188 216/268/188 514/269/188 513/264/188
f 191/258/189 189/257/189 204/266/189 205/270/189
f 216/268/190 217/271/190 515/272/190 514/269/190
f 534/259/191 191/258/191 205/270/191 535/273/191
f 515/274/192 217/275/192 219/276/192 199/249/192 511/277/192 516/278/192
f 196/248/193 194/247/193 206/279/193 207/280/193
f 200/250/194 199/249/194 219/276/194 220/281/194
f 598/251/195 196/248/195 207/280/195 599/282/195
f 201/252/196 200/250/196 220/281/196 221/283/196
f 517/284/197 510/285/197 198/286/197 208/287/197 210/288/197 518/289/197
f 202/255/198 201/252/198 221/283/198 222/290/198
f 210/288/199 211/262/199 512/265/199 518/289/199
f 203/256/200 202/255/200 222/290/200 223/267/200
f 220/281/201 219/276/201 239/291/201 240/292/201
f 599/282/202 207/280/202 227/293/202 600/294/202
f 221/283/203 220/281/203 240/292/203 241/295/203
f 210/288/204 208/287/204 228/296/204 229/297/204
f 222/290/205 221/283/205 241/295/205 242/298/205
f 211/262/206 210/288/206 229/297/206 231/299/206
f 223/267/207 222/290/207 242/298/207 243/300/207
f 214/263/208 211/262/208 231/299/208 234/301/208
f 204/266/209 68/200/209 224/302/209
f 300/26/210 223/267/210 243/300/210
f 216/268/211 214/263/211 234/301/211 235/303/211
f 205/270/212 204/266/212 224/302/212 225/304/212
f 217/271/213 216/268/213 235/303/213 237/305/213
f 535/273/214 205/270/214 225/304/214 536/306/214
f 219/307/215 217/271/215 237/305/215 239/308/215
f 207/280/216 206/279/216 226/309/216 227/293/216
f 224/302/217 68/200/217 244/310/217
f 300/26/218 243/300/218 263/311/218
f 235/303/219 234/301/219 254/312/219 255/313/219
f 225/304/220 224/302/220 244/310/220 245/314/220
f 237/305/221 235/303/221 255/313/221 257/315/221
f 536/306/222 225/304/222 245/314/222 537/316/222
f 239/308/223 237/305/223 257/315/223 259/317/223
f 227/293/224 226/309/224 246/318/224 247/319/224
f 240/292/225 239/291/225 259/320/225 260/321/225
f 600/294/226 227/293/226 247/319/226 601/322/226
f 241/295/227 240/292/227 260/321/227 261/323/227
f 229/297/228 228/296/228 248/324/228 249/325/228
f 242/298/229 241/295/229 261/323/229 262/326/229
f 231/299/230 229/297/230 249/325/230 252/327/230
f 243/300/231 242/298/231 262/326/231 263/311/231
f 234/301/232 231/299/232 252/327/232 254/312/232
f 601/322/233 247/319/233 267/328/233 602/329/233
f 261/323/234 260/321/234 280/330/234 281/331/234
f 249/325/235 248/324/235 268/332/235 270/333/235
f 262/326/236 261/323/236 281/331/236 282/334/236
f 252/327/237 249/325/237 270/333/237 271/335/237
f 263/311/238 262/326/238 282/334/238 283/336/238
f 254/312/239 252/327/239 271/335/239 274/337/239
f 244/310/240 68/200/240 264/338/240
f 300/26/241 263/311/241 283/336/241
f 255/313/242 254/312/242 274/337/242 276/339/242
f 245/314/243 244/310/243 264/338/243 265/340/243
f 257/315/244 255/313/244 276/339/244 277/341/244
f 537/316/245 245/314/245 265/340/245 538/342/245
f 259/317/246 257/315/246 277/341/246 279/343/246
f 247/319/247 246/318/247 266/344/247 267/328/247
f 260/321/248 259/320/248 279/345/248 280/330/248
f 276/339/249 274/337/249 292/346/249 293/347/249
f 265/340/250 264/338/250 284/348/250 285/349/250
f 277/341/251 276/339/251 293/347/251 294/350/251
f 538/342/252 265/340/252 285/349/252 539/351/252
f 279/343/253 277/341/253 294/350/253 295/352/253
f 267/328/254 266/344/254 286/353/254 287/354/254
f 280/330/255 279/345/255 295/355/255 296/356/255
f 602/329/256 267/328/256 287/354/256 603/357/256
f 281/331/257 280/330/257 296/356/257 297/358/257
f 270/333/258 268/332/258 288/359/258 289/360/258
f 282/334/259 281/331/259 297/358/259 298/361/259
f 271/335/260 270/333/260 289/360/260 290/362/260
f 283/336/261 282/334/261 298/361/261 299/363/261
f 274/337/262 271/335/262 290/362/262 292/346/262
f 264/338/263 68/200/263 284/348/263
f 300/26/264 283/336/264 299/363/264
f 297/358/265 296/356/265 312/364/265 313/365/265
f 289/360/266 288/359/266 305/366/266 306/367/266
f 298/361/267 297/358/267 313/365/267 314/368/267
f 290/362/268 289/360/268 306/367/268 307/369/268
f 299/363/269 298/361/269 314/368/269 315/370/269
f 292/346/270 290/362/270 307/369/270 308/371/270
f 284/372/271 68/373/271 301/374/271
f 300/26/272 299/363/272 315/370/272
f 293/347/273 292/346/273 308/371/273 309/375/273
f 285/349/274 284/348/274 301/376/274 302/377/274
f 294/350/275 293/347/275 309/375/275 310/378/275
f 539/351/276 285/349/276 302/377/276 540/379/276
f 295/352/277 294/350/277 310/378/277 311/380/277
f 287/354/278 286/353/278 303/381/278 304/382/278
f 296/356/279 295/355/279 311/383/279 312/364/279
f 603/357/280 287/354/280 304/382/280 604/384/280
f 310/378/281 309/375/281 324/385/281 325/386/281
f 540/379/282 302/377/282 317/387/282 541/388/282
f 311/383/283 310/389/283 325/390/283 326/391/283
f 304/382/284 303/381/284 318/392/284 319/393/284
f 312/364/285 311/383/285 326/391/285 327/394/285
f 604/384/286 304/382/286 319/393/286 605/395/286
f 313/365/287 312/364/287 327/394/287 328/396/287
f 306/367/288 305/366/288 320/397/288 321/398/288
f 314/368/289 313/365/289 328/396/289 329/399/289
f 307/369/290 306/367/290 321/398/290 322/400/290
f 315/370/291 314/368/291 329/399/291 330/401/291
f 308/371/292 307/369/292 322/400/292 323/402/292
f 301/374/293 68/373/293 316/403/293
f 300/26/294 315/370/294 330/401/294
f 309/375/295 308/371/295 323/402/295 324/385/295
f 302/377/296 301/376/296 316/404/296 317/387/296
f 329/399/297 328/396/297 343/405/297 344/406/297
f 322/400/298 321/398/298 336/407/298 337/408/298
f 330/401/299 329/399/299 344/406/299 345/409/299
f 323/402/300 322/400/300 337/408/300 338/410/300
f 316/403/301 68/373/301 331/411/301
f 300/26/302 330/401/302 345/409/302
f 324/385/303 323/402/303 338/410/303 339/412/303
f 317/387/304 316/404/304 331/413/304 332/414/304
f 325/386/305 324/385/305 339/412/305 340/415/305
f 541/388/306 317/387/306 332/414/306 542/416/306
f 326/391/307 325/390/307 340/417/307 341/418/307
f 319/393/308 318/392/308 333/419/308 334/420/308
f 327/394/309 326/391/309 341/418/309 342/421/309
f 605/395/310 319/393/310 334/420/310 606/422/310
f 328/396/311 327/394/311 342/421/311 343/405/311
f 321/398/312 320/397/312 335/423/312 336/407/312
f 542/416/313 332/414/313 347/424/313 543/425/313
f 341/418/314 340/417/314 355/426/314 356/427/314
f 334/420/315 333/419/315 348/428/315 349/429/315
f 342/421/316 341/418/316 356/427/316 357/430/316
f 606/422/317 334/420/317 349/429/317 607/431/317
f 343/405/318 342/421/318 357/430/318 358/432/318
f 336/407/319 335/423/319 350/433/319 351/434/319
f 344/406/320 343/405/320 358/432/320 359/435/320
f 337/408/321 336/407/321 351/434/321 352/436/321
f 345/409/322 344/406/322 359/435/322 360/437/322
f 338/410/323 337/408/323 352/436/323 353/438/323
f 331/411/324 68/373/324 346/439/324
f 300/26/325 345/409/325 360/437/325
f 339/412/326 338/410/326 353/438/326 354/440/326
f 332/441/327 331/411/327 346/439/327 347/442/327
f 340/415/328 339/412/328 354/440/328 355/443/328
f 352/444/329 351/445/329 366/446/329 367/447/329
f 360/437/330 359/435/330 374/448/330 375/449/330
f 353/450/331 352/444/331 367/447/331 368/451/331
f 346/439/332 68/373/332 361/452/332
f 300/26/333 360/437/333 375/449/333
f 354/453/334 353/450/334 368/451/334 369/454/334
f 347/442/335 346/439/335 361/452/335 362/455/335
f 355/456/336 354/453/336 369/454/336 370/457/336
f 543/458/337 347/459/337 362/460/337 544/461/337
f 356/427/338 355/426/338 370/462/338 371/463/338
f 349/429/339 348/428/339 363/464/339 364/465/339
f 357/430/340 356/427/340 371/463/340 372/466/340
f 607/431/341 349/429/341 364/465/341 608/467/341
f 358/432/342 357/430/342 372/466/342 373/468/342
f 351/445/343 350/469/343 365/470/343 366/446/343
f 359/435/344 358/432/344 373/468/344 374/448/344
f 371/463/345 370/462/345 385/471/345 386/472/345
f 364/465/346 363/464/346 378/473/346 379/474/346
f 372/466/347 371/463/347 386/472/347 387/475/347
f 608/467/348 364/465/348 379/474/348 609/476/348
f 373/468/349 372/466/349 387/475/349 388/477/349
f 366/446/350 365/470/350 380/478/350 381/479/350
f 374/448/351 373/468/351 388/477/351 389/480/351
f 367/447/352 366/446/352 381/479/352 382/481/352
f 375/449/353 374/448/353 389/480/353 390/482/353
f 368/451/354 367/447/354 382/481/354 383/483/354
f 361/452/355 68/373/355 376/484/355
f 300/26/356 375/449/356 390/482/356
f 369/454/357 368/451/357 383/483/357 384/485/357
f 362/460/358 361/486/358 376/487/358 377/488/358
f 370/457/359 369/454/359 384/485/359 385/489/359
f 544/461/360 362/460/360 377/488/360 545/490/360
f 390/482/361 389/480/361 404/491/361 405/492/361
f 383/483/362 382/481/362 397/493/362 398/494/362
f 376/484/363 68/373/363 391/495/363
f 300/26/364 390/482/364 405/492/364
f 384/485/365 383/483/365 398/494/365 399/496/365
f 377/488/366 376/487/366 391/497/366 392/498/366
f 385/489/367 384/485/367 399/496/367 400/499/367
f 545/490/368 377/488/368 392/498/368 546/500/368
f 386/472/369 385/471/369 400/501/369 401/502/369
f 379/474/370 378/473/370 393/503/370 394/504/370
f 387/475/371 386/472/371 401/502/371 402/505/371
f 609/476/372 379/474/372 394/504/372 610/506/372
f 388/477/373 387/475/373 402/505/373 403/507/373
f 381/479/374 380/478/374 395/508/374 396/509/374
f 389/480/375 388/477/375 403/507/375 404/491/375
f 382/481/376 381/479/376 396/509/376 397/493/376
f 394/504/377 393/503/377 408/510/377 409/511/377
f 402/505/378 401/502/378 416/512/378 417/513/378
f 610/506/379 394/504/379 409/511/379 611/514/379
f 403/507/380 402/505/380 417/513/380 418/515/380
f 396/509/381 395/508/381 410/516/381 411/517/381
f 404/491/382 403/507/382 418/515/382 419/518/382
f 397/493/383 396/509/383 411/517/383 412/519/383
f 405/492/384 404/491/384 419/518/384 420/520/384
f 398/494/385 397/493/385 412/519/385 413/521/385
f 391/495/386 68/373/386 406/522/386
f 300/26/387 405/492/387 420/520/387
f 399/496/388 398/494/388 413/521/388 414/523/388
f 392/498/389 391/497/389 406/524/389 407/525/389
f 400/499/390 399/496/390 414/523/390 415/526/390
f 546/500/391 392/498/391 407/525/391 547/527/391
f 401/528/392 400/499/392 415/526/392 416/529/392
f 413/521/393 412/519/393 427/530/393 428/531/393
f 406/524/394 68/24/394 421/532/394
f 300/26/395 420/520/395 435/533/395
f 414/523/396 413/521/396 428/531/396 429/534/396
f 407/525/397 406/524/397 421/532/397 422/535/397
f 415/526/398 414/523/398 429/534/398 430/536/398
f 547/527/399 407/525/399 422/535/399 548/537/399
f 416/529/400 415/526/400 430/536/400 431/538/400
f 409/511/401 408/510/401 423/539/401 424/540/401
f 417/513/402 416/512/402 431/541/402 432/542/402
f 611/514/403 409/511/403 424/540/403 612/543/403
f 418/515/404 417/513/404 432/542/404 433/544/404
f 411/517/405 410/516/405 425/545/405 426/546/405
f 419/518/406 418/515/406 433/544/406 434/547/406
f 412/519/407 411/517/407 426/546/407 427/530/407
f 420/520/408 419/518/408 434/547/408 435/533/408
f 432/542/409 431/541/409 446/548/409 447/549/409
f 612/543/410 424/540/410 439/550/410 613/551/410
f 433/544/411 432/542/411 447/549/411 448/552/411
f 426/546/412 425/545/412 440/553/412 441/554/412
f 434/547/413 433/544/413 448/552/413 449/555/413
f 427/530/414 426/546/414 441/554/414 442/556/414
f 435/533/415 434/547/415 449/555/415 450/557/415
f 428/531/416 427/530/416 442/556/416 443/558/416
f 421/532/417 68/24/417 436/559/417
f 300/26/418 435/533/418 450/557/418
f 429/534/419 428/531/419 443/558/419 444/560/419
f 422/535/420 421/532/420 436/559/420 437/561/420
f 430/536/421 429/534/421 444/560/421 445/562/421
f 548/537/422 422/535/422 437/561/422 549/563/422
f 431/538/423 430/536/423 445/562/423 446/564/423
f 424/540/424 423/539/424 438/565/424 439/550/424
f 300/26/425 450/557/425 465/566/425
f 444/560/426 443/558/426 458/567/426 459/568/426
f 437/561/427 436/559/427 451/569/427 452/570/427
f 445/562/428 444/560/428 459/568/428 460/571/428
f 549/563/429 437/561/429 452/570/429 550/572/429
f 446/564/430 445/562/430 460/571/430 461/573/430
f 439/550/431 438/565/431 453/574/431 454/575/431
f 447/549/432 446/548/432 461/576/432 462/577/432
f 613/551/433 439/550/433 454/575/433 614/578/433
f 448/552/434 447/549/434 462/577/434 463/579/434
f 441/554/435 440/553/435 455/580/435 456/581/435
f 449/555/436 448/552/436 463/579/436 464/582/436
f 442/556/437 441/554/437 456/581/437 457/583/437
f 450/557/438 449/555/438 464/582/438 465/566/438
f 443/558/439 442/556/439 457/583/439 458/567/439
f 436/559/440 68/24/440 451/569/440
f 463/579/441 462/577/441 471/6/441 472/5/441
f 456/581/442 455/580/442 2/11/442 469/10/442
f 464/582/443 463/579/443 472/5/443 473/15/443
f 457/583/444 456/581/444 469/10/444 3/17/444
f 465/566/445 464/582/445 473/15/445 474/19/445
f 458/567/446 457/583/446 3/17/446 4/21/446
f 451/569/447 68/24/447 466/23/447
f 300/26/448 465/566/448 474/19/448
f 459/568/449 458/567/449 4/21/449 5/27/449
f 452/570/450 451/569/450 466/23/450 467/29/450
f 460/571/451 459/568/451 5/27/451 470/31/451
f 550/572/452 452/570/452 467/29/452 519/33/452
f 461/573/453 460/571/453 470/31/453 6/584/453
f 454/575/454 453/574/454 1/41/454 468/2/454
f 462/577/455 461/576/455 6/38/455 471/6/455
f 614/578/456 454/575/456 468/2/456 583/1/456
f 517/585/457 518/586/457 512/587/457 513/588/457 514/589/457 515/590/457 516/591/457 618/592/457 632/593/457 627/594/457 626/595/457 625/596/457 628/597/457 629/598/457 630/599/457 616/600/457
f 482/601/458 481/602/458 480/603/458 479/604/458 478/605/458 476/606/458 477/607/458 615/608/458 619/609/458 624/610/458 623/611/458 621/612/458 622/613/458 631/614/458 620/615/458 617/616/458
f 618/617/459 516/618/459 511/619/459 508/620/459 506/621/459 504/622/459 502/623/459 501/624/459 498/625/459 497/626/459 494/627/459 493/628/459 490/629/459 489/630/459 486/631/459 484/632/459 483/633/459 482/634/459 617/635/459 634/636/459 641/637/459 643/638/459 642/639/459 645/640/459 644/641/459 637/642/459 638/643/459 639/644/459 636/645/459 635/646/459 640/647/459 633/648/459
f 475/649/460 485/650/460 487/651/460 488/652/460 491/653/460 492/654/460 495/655/460 496/656/460 499/657/460 500/658/460 503/659/460 505/660/460 507/661/460 509/662/460 510/663/460 517/664/460 616/665/460 646/666/460 647/667/460 655/668/460 658/669/460 656/670/460 657/671/460 652/672/460 653/673/460 651/674/460 654/675/460 649/676/460 650/677/460 648/678/460 615/679/460 477/680/460
f 333/419/461 318/392/461 303/381/461 286/353/461 266/344/461 246/318/461 226/309/461 674/681/461 667/682/461 668/683/461 673/684/461 663/685/461 660/686/461 661/687/461 659/688/461 662/689/461 363/464/461 348/428/461
f 453/574/462 438/565/462 423/539/462 408/510/462 393/503/462 378/473/462 363/464/462 662/689/462 665/690/462 664/691/462 666/692/462 669/693/462 672/694/462 671/695/462 670/696/462 681/697/462 677/698/462 678/699/462 690/700/462 684/701/462 689/702/462 686/703/462 685/704/462 688/705/462 687/706/462 682/707/462 683/708/462 680/709/462 679/710/462 675/711/462 676/712/462 674/681/462 226/309/462 206/279/462 194/247/462 181/239/462 166/216/462 153/207/462 141/183/462 126/173/462 114/154/462 101/146/462 86/126/462 75/120/462 60/98/462 45/89/462 33/64/462 20/45/462 9/42/462 1/41/462
f 581/713/463 550/572/463 519/33/463 582/714/463
f 580/715/464 549/563/464 550/572/464 581/713/464
f 579/716/465 548/537/465 549/563/465 580/715/465
f 578/717/466 547/527/466 548/537/466 579/716/466
f 577/718/467 546/500/467 547/527/467 578/717/467
f 576/719/468 545/490/468 546/500/468 577/718/468
f 575/720/469 544/461/469 545/490/469 576/719/469
f 574/721/470 543/458/470 544/461/470 575/720/470
f 573/722/471 542/723/471 543/724/471 574/725/471
f 572/726/472 541/388/472 542/416/472 573/727/472
f 571/728/473 540/379/473 541/388/473 572/726/473
f 570/729/474 539/351/474 540/379/474 571/728/474
f 569/730/475 538/342/475 539/351/475 570/729/475
f 568/731/476 537/316/476 538/342/476 569/730/476
f 567/732/477 536/306/477 537/316/477 568/731/477
f 566/733/478 535/273/478 536/306/478 567/732/478
f 565/734/479 534/259/479 535/273/479 566/733/479
f 564/735/480 533/236/480 534/259/480 565/734/480
f 563/736/481 532/737/481 533/738/481 564/739/481
f 562/740/482 531/741/482 532/737/482 563/736/482
f 561/742/483 530/743/483 531/741/483 562/740/483
f 560/744/484 529/745/484 530/743/484 561/742/484
f 559/746/485 528/747/485 529/748/485 560/749/485
f 558/750/486 527/751/486 528/747/486 559/746/486
f 557/752/487 526/753/487 527/751/487 558/750/487
f 556/754/488 525/755/488 526/753/488 557/752/488
f 555/756/489 524/757/489 525/755/489 556/754/489
f 554/758/490 523/759/490 524/757/490 555/756/490
f 553/760/491 522/761/491 523/759/491 554/758/491
f 552/762/492 521/763/492 522/761/492 553/760/492
f 551/764/493 520/34/493 521/56/493 552/765/493
f 582/714/494 519/33/494 520/34/494 551/764/494
f 1/766/495 582/714/495 551/764/495 9/767/495
f 9/767/496 551/764/496 552/765/496 20/768/496
f 20/769/497 552/762/497 553/760/497 33/770/497
f 33/770/498 553/760/498 554/758/498 45/771/498
f 45/771/499 554/758/499 555/756/499 60/772/499
f 60/772/500 555/756/500 556/754/500 75/773/500
f 75/773/501 556/754/501 557/752/501 86/774/501
f 86/774/502 557/752/502 558/750/502 101/775/502
f 101/775/503 558/750/503 559/746/503 114/776/503
f 114/776/504 559/746/504 560/749/504 126/777/504
f 126/778/505 560/744/505 561/742/505 141/779/505
f 141/779/506 561/742/506 562/740/506 153/780/506
f 153/780/507 562/740/507 563/736/507 166/781/507
f 166/781/508 563/736/508 564/739/508 181/782/508
f 181/782/509 564/739/509 565/783/509 194/784/509
f 194/785/510 565/734/510 566/733/510 206/786/510
f 206/786/511 566/733/511 567/732/511 226/787/511
f 226/787/512 567/732/512 568/731/512 246/788/512
f 246/788/513 568/731/513 569/730/513 266/789/513
f 266/789/514 569/730/514 570/729/514 286/790/514
f 286/790/515 570/729/515 571/728/515 303/791/515
f 303/791/516 571/728/516 572/726/516 318/792/516
f 318/792/517 572/726/517 573/727/517 333/793/517
f 333/419/518 573/722/518 574/725/518 348/428/518
f 348/794/519 574/721/519 575/720/519 363/795/519
f 363/795/520 575/720/520 576/719/520 378/796/520
f 378/796/521 576/719/521 577/718/521 393/797/521
f 393/797/522 577/718/522 578/717/522 408/798/522
f 408/798/523 578/717/523 579/716/523 423/799/523
f 423/799/524 579/716/524 580/715/524 438/800/524
f 438/800/525 580/715/525 581/713/525 453/801/525
f 453/801/526 581/713/526 582/714/526 1/766/526
f 455/802/527 614/803/527 583/804/527 2/805/527
f 440/806/528 613/807/528 614/803/528 455/802/528
f 425/808/529 612/809/529 613/807/529 440/806/529
f 410/810/530 611/811/530 612/809/530 425/808/530
f 395/812/531 610/813/531 611/811/531 410/810/531
f 380/814/532 609/815/532 610/813/532 395/812/532
f 365/816/533 608/817/533 609/815/533 380/814/533
f 350/818/534 607/819/534 608/817/534 365/816/534
f 335/820/535 606/821/535 607/819/535 350/818/535
f 320/822/536 605/823/536 606/821/536 335/820/536
f 305/824/537 604/825/537 605/823/537 320/822/537
f 288/826/538 603/827/538 604/825/538 305/824/538
f 268/828/539 602/829/539 603/827/539 288/826/539
f 248/830/540 601/831/540 602/829/540 268/828/540
f 228/832/541 600/833/541 601/831/541 248/830/541
f 208/834/542 599/835/542 600/833/542 228/832/542
f 198/836/543 598/837/543 599/835/543 208/834/543
f 183/838/544 597/839/544 598/837/544 198/836/544
f 168/840/545 596/841/545 597/839/545 183/838/545
f 158/842/546 595/843/546 596/841/546 168/840/546
f 143/844/547 594/845/547 595/843/547 158/842/547
f 128/846/548 593/847/548 594/845/548 143/844/548
f 118/848/549 592/849/549 593/847/549 128/846/549
f 103/850/550 591/851/550 592/849/550 118/848/550
f 89/852/551 590/853/551 591/851/551 103/850/551
f 78/854/552 589/855/552 590/853/552 89/852/552
f 62/856/553 588/857/553 589/855/553 78/854/553
f 47/858/554 587/859/554 588/857/554 62/856/554
f 36/860/555 586/861/555 587/859/555 47/858/555
f 22/862/556 585/863/556 586/861/556 36/860/556
f 11/864/557 584/865/557 585/863/557 22/862/557
f 2/805/558 583/804/558 584/865/558 11/864/558
f 623/866/559 15/867/559 621/868/559
f 621/868/560 15/867/560 622/869/560
f 620/615/561 37/870/561 634/871/561 617/616/561
f 648/872/562 28/873/562 619/609/562 615/608/562
f 619/609/563 28/873/563 30/874/563 624/610/563
f 30/874/564 32/875/564 15/876/564 623/611/564 624/610/564
f 15/876/565 32/875/565 35/877/565 631/614/565 622/613/565
f 631/614/566 35/877/566 37/870/566 620/615/566
f 32/875/567 30/874/567 50/878/567 52/879/567
f 35/877/568 32/875/568 52/879/568 54/880/568
f 37/870/569 35/877/569 54/880/569 56/881/569
f 37/870/570 56/881/570 641/882/570 634/871/570
f 48/883/571 28/873/571 648/872/571 650/884/571
f 30/874/572 28/873/572 48/883/572 50/878/572
f 69/885/573 48/883/573 650/884/573 649/886/573
f 50/878/574 48/883/574 69/885/574 70/887/574
f 52/879/575 50/878/575 70/887/575 73/888/575
f 54/880/576 52/879/576 73/888/576 74/889/576
f 56/881/577 54/880/577 74/889/577 76/890/577
f 641/882/578 56/881/578 76/890/578 643/891/578
f 74/889/579 73/888/579 92/892/579 94/893/579
f 76/890/580 74/889/580 94/893/580 96/894/580
f 643/891/581 76/890/581 96/894/581 642/895/581
f 88/896/582 69/885/582 649/886/582 654/897/582
f 70/887/583 69/885/583 88/896/583 90/898/583
f 73/888/584 70/887/584 90/898/584 92/892/584
f 109/899/585 88/896/585 654/897/585 651/900/585
f 90/898/586 88/896/586 109/899/586 111/901/586
f 92/892/587 90/898/587 111/901/587 113/902/587
f 94/893/588 92/892/588 113/902/588 115/903/588
f 96/894/589 94/893/589 115/903/589 117/904/589
f 642/895/590 96/894/590 117/904/590 645/905/590
f 115/903/591 113/902/591 133/906/591 135/907/591
f 117/904/592 115/903/592 135/907/592 137/908/592
f 645/905/593 117/904/593 137/908/593 644/909/593
f 130/910/594 109/899/594 651/900/594 653/911/594
f 111/901/595 109/899/595 130/910/595 132/912/595
f 113/902/596 111/901/596 132/912/596 133/906/596
f 149/913/597 130/910/597 653/911/597 652/914/597
f 132/912/598 130/910/598 149/913/598 152/915/598
f 133/906/599 132/912/599 152/915/599 154/916/599
f 135/907/600 133/906/600 154/916/600 155/917/600
f 137/908/601 135/907/601 155/917/601 157/918/601
f 644/909/602 137/908/602 157/918/602 637/919/602
f 157/918/603 155/917/603 175/920/603 177/921/603
f 637/919/604 157/918/604 177/921/604 638/922/604
f 657/923/605 169/924/605 149/913/605 652/914/605
f 152/915/606 149/913/606 169/924/606 171/925/606
f 154/916/607 152/915/607 171/925/607 173/926/607
f 155/917/608 154/916/608 173/926/608 175/920/608
f 656/927/609 190/928/609 169/924/609 657/923/609
f 171/929/610 169/930/610 190/931/610 192/932/610
f 173/933/611 171/929/611 192/932/611 193/934/611
f 175/935/612 173/933/612 193/934/612 195/936/612
f 177/937/613 175/935/613 195/936/613 197/938/613
f 638/939/614 177/937/614 197/938/614 639/940/614
f 197/938/615 195/936/615 215/941/615 218/942/615
f 639/940/616 197/938/616 218/942/616 636/943/616
f 658/944/617 209/945/617 190/931/617 656/946/617
f 192/932/618 190/931/618 209/945/618 212/947/618
f 193/934/619 192/932/619 212/947/619 213/948/619
f 195/936/620 193/934/620 213/948/620 215/941/620
f 212/947/621 209/945/621 230/949/621 232/950/621
f 213/948/622 212/947/622 232/950/622 233/951/622
f 215/941/623 213/948/623 233/951/623 236/952/623
f 218/942/624 215/941/624 236/952/624 238/953/624
f 218/942/625 238/953/625 635/954/625 636/943/625
f 655/955/626 230/949/626 209/945/626 658/944/626
f 238/953/627 258/956/627 640/957/627 635/954/627
f 647/958/628 250/959/628 230/949/628 655/955/628
f 232/950/629 230/949/629 250/959/629 251/960/629
f 233/951/630 232/950/630 251/960/630 253/961/630
f 236/952/631 233/951/631 253/961/631 256/962/631
f 238/953/632 236/952/632 256/962/632 258/956/632
f 253/961/633 251/960/633 272/963/633 273/964/633
f 256/962/634 253/961/634 273/964/634 275/965/634
f 258/956/635 256/962/635 275/965/635 278/966/635
f 640/957/636 258/956/636 278/966/636 633/967/636
f 269/968/637 250/959/637 647/958/637 646/969/637
f 251/960/638 250/959/638 269/968/638 272/963/638
f 616/600/639 630/599/639 269/968/639 646/969/639
f 629/598/640 272/963/640 269/968/640 630/599/640
f 291/970/641 273/964/641 272/963/641 629/598/641 628/597/641
f 275/965/642 273/964/642 291/970/642 626/595/642 627/594/642
f 632/593/643 278/966/643 275/965/643 627/594/643
f 633/967/644 278/966/644 632/593/644 618/592/644
f 625/596/645 291/970/645 628/597/645
f 625/596/646 626/595/646 291/970/646
