# Blender 4.4.1
# www.blender.org
mtllib skydome2.mtl
o 球體
v 0.000000 665.175659 444.456207
v 0.000000 444.456207 665.175659
v 0.000000 156.072266 784.628174
v 0.000000 0.000000 800.000000
v 0.000000 -156.072266 784.628174
v 0.000000 -444.456207 665.175659
v 30.448187 784.628174 153.073364
v 59.726273 739.103577 300.264252
v 86.709106 665.175659 435.916077
v 110.359749 565.685425 554.815918
v 129.769333 444.456207 652.394470
v 144.191956 306.146759 724.901917
v 153.073364 156.072266 769.551758
v 156.072266 0.000000 784.628174
v 153.073364 -156.072266 769.551758
v 144.191956 -306.146759 724.901917
v 129.769333 -444.456207 652.394470
v 110.359749 -565.685425 554.815918
v 86.709106 -665.175659 435.916077
v 59.726273 -739.103577 300.264252
v 30.448187 -784.628174 153.073364
v 59.726261 784.628174 144.191956
v 117.157295 739.103577 282.842743
v 170.086029 665.175659 410.623932
v 216.478439 565.685425 522.625183
v 254.551697 444.456207 614.542114
v 282.842682 306.146759 682.842712
v 300.264221 156.072266 724.901917
v 306.146729 0.000000 739.103577
v 300.264221 -156.072266 724.901917
v 282.842682 -306.146759 682.842712
v 254.551697 -444.456207 614.542114
v 216.478439 -565.685425 522.625183
v 170.086029 -665.175659 410.623932
v 117.157295 -739.103577 282.842743
v 59.726261 -784.628174 144.191956
v 86.709091 784.628174 129.769318
v 170.086029 739.103577 254.551727
v 246.926620 665.175659 369.551758
v 314.277985 565.685425 470.350220
v 369.551758 444.456207 553.073242
v 410.623932 306.146759 614.542175
v 435.916077 156.072266 652.394470
v 444.456207 0.000000 665.175598
v 435.916077 -156.072266 652.394470
v 410.623932 -306.146759 614.542175
v 369.551758 -444.456207 553.073242
v 314.277985 -565.685425 470.350220
v 246.926620 -665.175659 369.551758
v 170.086029 -739.103577 254.551727
v 86.709091 -784.628174 129.769318
v 110.359741 784.628174 110.359726
v 216.478439 739.103577 216.478424
v 314.277954 665.175659 314.277924
v 400.000000 565.685425 400.000000
v 470.350159 444.456207 470.350128
v 522.625122 306.146759 522.625183
v 554.815918 156.072266 554.815857
v 565.685425 0.000000 565.685303
v 554.815918 -156.072266 554.815857
v 522.625122 -306.146759 522.625183
v 470.350159 -444.456207 470.350128
v 400.000000 -565.685425 400.000000
v 314.277954 -665.175659 314.277924
v 216.478439 -739.103577 216.478424
v 110.359741 -784.628174 110.359726
v 129.769318 784.628174 86.709084
v 254.551727 739.103577 170.085999
v 369.551788 665.175659 246.926575
v 470.350220 565.685425 314.277985
v 553.073303 444.456207 369.551697
v 614.542114 306.146759 410.623993
v 652.394470 156.072266 435.915985
v 665.175659 0.000000 444.455994
v 652.394470 -156.072266 435.915985
v 614.542114 -306.146759 410.623993
v 553.073303 -444.456207 369.551697
v 470.350220 -565.685425 314.277985
v 369.551788 -665.175659 246.926575
v 254.551727 -739.103577 170.085999
v 129.769318 -784.628174 86.709084
v 0.000000 800.000000 0.000000
v 144.191925 784.628174 59.726250
v 282.842682 739.103577 117.157272
v 410.623932 665.175659 170.085968
v 522.625183 565.685425 216.478439
v 614.542114 444.456207 254.551605
v 682.842651 306.146759 282.842743
v 724.901855 156.072266 300.264130
v 739.103516 0.000000 306.146576
v 724.901855 -156.072266 300.264130
v 682.842651 -306.146759 282.842743
v 614.542114 -444.456207 254.551605
v 522.625183 -565.685425 216.478439
v 410.623932 -665.175659 170.085968
v 282.842682 -739.103577 117.157272
v 144.191925 -784.628174 59.726250
v 153.073334 784.628174 30.448172
v 300.264191 739.103577 59.726250
v 435.916046 665.175659 86.709053
v 554.815918 565.685425 110.359764
v 652.394409 444.456207 129.769257
v 724.901855 306.146759 144.191986
v 769.551697 156.072266 153.073288
v 784.628052 0.000000 156.072098
v 769.551697 -156.072266 153.073288
v 724.901855 -306.146759 144.191986
v 652.394409 -444.456207 129.769257
v 554.815918 -565.685425 110.359764
v 435.916046 -665.175659 86.709053
v 300.264191 -739.103577 59.726250
v 153.073334 -784.628174 30.448172
v 156.072205 784.628174 -0.000009
v 306.146729 739.103577 -0.000018
v 444.456116 665.175659 -0.000042
v 565.685364 565.685425 0.000012
v 665.175537 444.456207 -0.000072
v 739.103577 306.146759 0.000036
v 784.628113 156.072266 -0.000072
v 799.999756 0.000000 -0.000131
v 784.628113 -156.072266 -0.000072
v 739.103577 -306.146759 0.000036
v 665.175537 -444.456207 -0.000072
v 565.685364 -565.685425 0.000012
v 444.456116 -665.175659 -0.000042
v 306.146729 -739.103577 -0.000018
v 156.072205 -784.628174 -0.000009
v 153.073318 784.628174 -30.448187
v 300.264191 739.103577 -59.726280
v 435.915985 665.175659 -86.709122
v 554.815857 565.685425 -110.359726
v 652.394348 444.456207 -129.769379
v 724.901855 306.146759 -144.191925
v 769.551636 156.072266 -153.073425
v 784.627930 0.000000 -156.072342
v 769.551636 -156.072266 -153.073425
v 724.901855 -306.146759 -144.191925
v 652.394348 -444.456207 -129.769379
v 554.815857 -565.685425 -110.359726
v 435.915985 -665.175659 -86.709122
v 300.264191 -739.103577 -59.726280
v 153.073318 -784.628174 -30.448187
v 144.191910 784.628174 -59.726257
v 282.842682 739.103577 -117.157295
v 410.623840 665.175659 -170.086029
v 522.625122 565.685425 -216.478394
v 614.541992 444.456207 -254.551727
v 682.842651 306.146759 -282.842651
v 724.901794 156.072266 -300.264252
v 739.103271 0.000000 -306.146759
v 724.901794 -156.072266 -300.264252
v 682.842651 -306.146759 -282.842651
v 614.541992 -444.456207 -254.551727
v 522.625122 -565.685425 -216.478394
v 410.623840 -665.175659 -170.086029
v 282.842682 -739.103577 -117.157295
v 144.191910 -784.628174 -59.726257
v 129.769272 784.628174 -86.709068
v 254.551666 739.103577 -170.086014
v 369.551666 665.175659 -246.926590
v 470.350159 565.685425 -314.277924
v 553.073181 444.456207 -369.551758
v 614.542114 306.146759 -410.623871
v 652.394348 156.072266 -435.916046
v 665.175293 0.000000 -444.456146
v 652.394348 -156.072266 -435.916046
v 614.542114 -306.146759 -410.623871
v 553.073181 -444.456207 -369.551758
v 470.350159 -565.685425 -314.277924
v 369.551666 -665.175659 -246.926590
v 254.551666 -739.103577 -170.086014
v 129.769272 -784.628174 -86.709068
v 110.359695 784.628174 -110.359703
v 216.478378 739.103577 -216.478424
v 314.277802 665.175659 -314.277924
v 399.999939 565.685425 -399.999939
v 470.350037 444.456207 -470.350128
v 522.625122 306.146759 -522.625061
v 554.815796 156.072266 -554.815857
v 565.684998 0.000000 -565.685303
v 554.815796 -156.072266 -554.815857
v 522.625122 -306.146759 -522.625061
v 470.350037 -444.456207 -470.350128
v 399.999939 -565.685425 -399.999939
v 314.277802 -665.175659 -314.277924
v 216.478378 -739.103577 -216.478424
v 110.359695 -784.628174 -110.359703
v 86.709053 784.628174 -129.769272
v 170.085953 739.103577 -254.551697
v 246.926468 665.175659 -369.551727
v 314.277924 565.685425 -470.350159
v 369.551636 444.456207 -553.073242
v 410.623932 306.146759 -614.542053
v 435.915894 156.072266 -652.394409
v 444.455780 0.000000 -665.175476
v 435.915894 -156.072266 -652.394409
v 410.623932 -306.146759 -614.542053
v 369.551636 -444.456207 -553.073242
v 314.277924 -565.685425 -470.350159
v 246.926468 -665.175659 -369.551727
v 170.085953 -739.103577 -254.551697
v 86.709053 -784.628174 -129.769272
v 59.726227 784.628174 -144.191879
v 117.157219 739.103577 -282.842651
v 170.085876 665.175659 -410.623840
v 216.478394 565.685425 -522.625122
v 254.551559 444.456207 -614.541992
v 282.842682 306.146759 -682.842529
v 300.264038 156.072266 -724.901794
v 306.146362 0.000000 -739.103333
v 300.264038 -156.072266 -724.901794
v 282.842682 -306.146759 -682.842529
v 254.551559 -444.456207 -614.541992
v 216.478394 -565.685425 -522.625122
v 170.085876 -665.175659 -410.623840
v 117.157219 -739.103577 -282.842651
v 59.726227 -784.628174 -144.191879
v 30.448162 784.628174 -153.073273
v 59.726208 739.103577 -300.264130
v 86.708984 665.175659 -435.915894
v 110.359726 565.685425 -554.815857
v 129.769211 444.456207 -652.394287
v 144.191956 306.146759 -724.901794
v 153.073212 156.072266 -769.551575
v 156.071930 0.000000 -784.627808
v 153.073212 -156.072266 -769.551575
v 144.191956 -306.146759 -724.901794
v 129.769211 -444.456207 -652.394287
v 110.359726 -565.685425 -554.815857
v 86.708984 -665.175659 -435.915894
v 59.726208 -739.103577 -300.264130
v 30.448162 -784.628174 -153.073273
v -0.000006 784.628174 -156.072159
v -0.000042 739.103577 -306.146667
v -0.000077 665.175659 -444.455963
v -0.000012 565.685425 -565.685303
v -0.000083 444.456207 -665.175415
v 0.000024 306.146759 -739.103394
v -0.000107 156.072266 -784.627991
v -0.000262 0.000000 -799.999451
v -0.000107 -156.072266 -784.627991
v 0.000024 -306.146759 -739.103394
v -0.000083 -444.456207 -665.175415
v -0.000012 -565.685425 -565.685303
v -0.000077 -665.175659 -444.455963
v -0.000042 -739.103577 -306.146667
v -0.000006 -784.628174 -156.072159
v -30.448172 784.628174 -153.073257
v -59.726292 739.103577 -300.264130
v -86.709137 665.175659 -435.915863
v -110.359741 565.685425 -554.815796
v -129.769379 444.456207 -652.394226
v -144.191895 306.146759 -724.901733
v -153.073425 156.072266 -769.551514
v -156.072418 0.000000 -784.627625
v -153.073425 -156.072266 -769.551514
v -144.191895 -306.146759 -724.901733
v -129.769379 -444.456207 -652.394226
v -110.359741 -565.685425 -554.815796
v -86.709137 -665.175659 -435.915863
v -59.726292 -739.103577 -300.264130
v -30.448172 -784.628174 -153.073257
v -59.726227 784.628174 -144.191864
v -117.157295 739.103577 -282.842651
v -170.085999 665.175659 -410.623688
v -216.478394 565.685425 -522.625061
v -254.551697 444.456207 -614.541931
v -282.842590 306.146759 -682.842468
v -300.264221 156.072266 -724.901611
v -306.146790 0.000000 -739.102966
v -300.264221 -156.072266 -724.901611
v -282.842590 -306.146759 -682.842468
v -254.551697 -444.456207 -614.541931
v -216.478394 -565.685425 -522.625061
v -170.085999 -665.175659 -410.623688
v -117.157295 -739.103577 -282.842651
v -59.726227 -784.628174 -144.191864
v -86.709038 784.628174 -129.769241
v -170.085999 739.103577 -254.551620
v -246.926544 665.175659 -369.551514
v -314.277924 565.685425 -470.350128
v -369.551697 444.456207 -553.073059
v -410.623779 306.146759 -614.541992
v -435.916046 156.072266 -652.394226
v -444.456116 0.000000 -665.174988
v -435.916046 -156.072266 -652.394226
v -410.623779 -306.146759 -614.541992
v -369.551697 -444.456207 -553.073059
v -314.277924 -565.685425 -470.350128
v -246.926544 -665.175659 -369.551514
v -170.085999 -739.103577 -254.551620
v -86.709038 -784.628174 -129.769241
v -110.359665 784.628174 -110.359657
v -216.478394 739.103577 -216.478348
v -314.277832 665.175659 -314.277710
v -399.999939 565.685425 -399.999908
v -470.350067 444.456207 -470.349945
v -522.625000 306.146759 -522.625000
v -554.815796 156.072266 -554.815613
v -565.685181 0.000000 -565.684753
v -554.815796 -156.072266 -554.815613
v -522.625000 -306.146759 -522.625000
v -470.350067 -444.456207 -470.349945
v -399.999939 -565.685425 -399.999908
v -314.277832 -665.175659 -314.277710
v -216.478394 -739.103577 -216.478348
v -110.359665 -784.628174 -110.359657
v 0.000000 -800.000000 0.000000
v -129.769241 784.628174 -86.709023
v -254.551651 739.103577 -170.085938
v -369.551605 665.175659 -246.926361
v -470.350128 565.685425 -314.277893
v -553.073181 444.456207 -369.551544
v -614.541931 306.146759 -410.623840
v -652.394348 156.072266 -435.915771
v -665.175293 0.000000 -444.455536
v -652.394348 -156.072266 -435.915771
v -614.541931 -306.146759 -410.623840
v -553.073181 -444.456207 -369.551544
v -470.350128 -565.685425 -314.277893
v -369.551605 -665.175659 -246.926361
v -254.551651 -739.103577 -170.085938
v -129.769241 -784.628174 -86.709023
v -144.191849 784.628174 -59.726204
v -282.842621 739.103577 -117.157211
v -410.623688 665.175659 -170.085785
v -522.625061 565.685425 -216.478378
v -614.541931 444.456207 -254.551453
v -682.842468 306.146759 -282.842621
v -724.901733 156.072266 -300.263916
v -739.103088 0.000000 -306.146149
v -724.901733 -156.072266 -300.263916
v -682.842468 -306.146759 -282.842621
v -614.541931 -444.456207 -254.551453
v -522.625061 -565.685425 -216.478378
v -410.623688 -665.175659 -170.085785
v -282.842621 -739.103577 -117.157211
v -144.191849 -784.628174 -59.726204
v -153.073242 784.628174 -30.448145
v -300.264099 739.103577 -59.726204
v -435.915771 665.175659 -86.708923
v -554.815796 565.685425 -110.359703
v -652.394226 444.456207 -129.769150
v -724.901672 306.146759 -144.191910
v -769.551514 156.072266 -153.073105
v -784.627563 0.000000 -156.071762
v -769.551514 -156.072266 -153.073105
v -724.901672 -306.146759 -144.191910
v -652.394226 -444.456207 -129.769150
v -554.815796 -565.685425 -110.359703
v -435.915771 -665.175659 -86.708923
v -300.264099 -739.103577 -59.726204
v -153.073242 -784.628174 -30.448145
v -156.072113 784.628174 0.000015
v -306.146606 739.103577 0.000042
v -444.455811 665.175659 0.000119
v -565.685303 565.685425 0.000024
v -665.175354 444.456207 0.000131
v -739.103333 306.146759 0.000012
v -784.627869 156.072266 0.000215
v -799.999268 0.000000 0.000358
v -784.627869 -156.072266 0.000215
v -739.103333 -306.146759 0.000012
v -665.175354 -444.456207 0.000131
v -565.685303 -565.685425 0.000024
v -444.455811 -665.175659 0.000119
v -306.146606 -739.103577 0.000042
v -156.072113 -784.628174 0.000015
v -153.073227 784.628174 30.448174
v -300.264069 739.103577 59.726280
v -435.915710 665.175659 86.709145
v -554.815796 565.685425 110.359749
v -652.394104 444.456207 129.769409
v -724.901611 306.146759 144.191925
v -769.551392 156.072266 153.073517
v -784.627380 0.000000 156.072464
v -769.551392 -156.072266 153.073517
v -724.901611 -306.146759 144.191925
v -652.394104 -444.456207 129.769409
v -554.815796 -565.685425 110.359749
v -435.915710 -665.175659 86.709145
v -300.264069 -739.103577 59.726280
v -153.073227 -784.628174 30.448174
v -144.191818 784.628174 59.726227
v -282.842560 739.103577 117.157272
v -410.623535 665.175659 170.085983
v -522.625000 565.685425 216.478394
v -614.541748 444.456207 254.551697
v -682.842407 306.146759 282.842590
v -724.901489 156.072266 300.264252
v -739.102722 0.000000 306.146790
v -724.901489 -156.072266 300.264252
v -682.842407 -306.146759 282.842590
v -614.541748 -444.456207 254.551697
v -522.625000 -565.685425 216.478394
v -410.623535 -665.175659 170.085983
v -282.842560 -739.103577 117.157272
v -144.191818 -784.628174 59.726227
v -129.769211 784.628174 86.709038
v -254.551559 739.103577 170.085968
v -369.551361 665.175659 246.926529
v -470.350067 565.685425 314.277924
v -553.072937 444.456207 369.551697
v -614.541931 306.146759 410.623779
v -652.394043 156.072266 435.916046
v -665.174744 0.000000 444.456055
v -652.394043 -156.072266 435.916046
v -614.541931 -306.146759 410.623779
v -553.072937 -444.456207 369.551697
v -470.350067 -565.685425 314.277924
v -369.551361 -665.175659 246.926529
v -254.551559 -739.103577 170.085968
v -129.769211 -784.628174 86.709038
v -110.359634 784.628174 110.359657
v -216.478302 739.103577 216.478348
v -314.277557 665.175659 314.277802
v -399.999847 565.685425 399.999908
v -470.349792 444.456207 470.350037
v -522.624939 306.146759 522.624939
v -554.815491 156.072266 554.815796
v -565.684570 0.000000 565.685059
v -554.815491 -156.072266 554.815796
v -522.624939 -306.146759 522.624939
v -470.349792 -444.456207 470.350037
v -399.999847 -565.685425 399.999908
v -314.277557 -665.175659 314.277802
v -216.478302 -739.103577 216.478348
v -110.359634 -784.628174 110.359657
v -86.709000 784.628174 129.769211
v -170.085892 739.103577 254.551605
v -246.926239 665.175659 369.551544
v -314.277832 565.685425 470.350128
v -369.551422 444.456207 553.073059
v -410.623749 306.146759 614.541931
v -435.915649 156.072266 652.394226
v -444.455383 0.000000 665.175171
v -435.915649 -156.072266 652.394226
v -410.623749 -306.146759 614.541931
v -369.551422 -444.456207 553.073059
v -314.277832 -565.685425 470.350128
v -246.926239 -665.175659 369.551544
v -170.085892 -739.103577 254.551605
v -86.709000 -784.628174 129.769211
v -59.726189 784.628174 144.191818
v -117.157188 739.103577 282.842590
v -170.085678 665.175659 410.623596
v -216.478317 565.685425 522.625061
v -254.551361 444.456207 614.541809
v -282.842529 306.146759 682.842407
v -300.263824 156.072266 724.901611
v -306.146057 0.000000 739.102905
v -300.263824 -156.072266 724.901611
v -282.842529 -306.146759 682.842407
v -254.551361 -444.456207 614.541809
v -216.478317 -565.685425 522.625061
v -170.085678 -665.175659 410.623596
v -117.157188 -739.103577 282.842590
v -59.726189 -784.628174 144.191818
v -30.448141 784.628174 153.073196
v -59.726185 739.103577 300.264069
v -86.708832 665.175659 435.915619
v -110.359657 565.685425 554.815796
v -129.769058 444.456207 652.394043
v -144.191849 306.146759 724.901611
v -153.073059 156.072266 769.551392
v -156.071701 0.000000 784.627319
v -153.073059 -156.072266 769.551392
v -144.191849 -306.146759 724.901611
v -129.769058 -444.456207 652.394043
v -110.359657 -565.685425 554.815796
v -86.708832 -665.175659 435.915619
v -59.726185 -739.103577 300.264069
v -30.448141 -784.628174 153.073196
v 0.000012 784.628174 156.072083
v 0.000054 739.103577 306.146576
v 0.000072 565.685425 565.685303
v 0.000048 306.146759 739.103210
v 0.000048 -306.146759 739.103210
v 0.000072 -565.685425 565.685303
v 0.000173 -665.175659 444.455627
v 0.000054 -739.103577 306.146576
v 0.000012 -784.628174 156.072083
vn -0.0464 -0.8810 -0.4709
vn -0.0865 0.4696 -0.8786
vn -0.0624 -0.7715 -0.6332
vn -0.0759 0.6326 -0.7708
vn -0.0759 -0.6326 -0.7708
vn -0.0624 0.7715 -0.6332
vn -0.0865 -0.4696 -0.8786
vn -0.0464 0.8810 -0.4709
vn -0.0938 -0.2890 -0.9527
vn -0.0286 0.9565 -0.2902
vn -0.0975 -0.0975 -0.9904
vn -0.0097 -0.9951 -0.0980
vn -0.0097 0.9951 -0.0980
vn -0.0975 0.0975 -0.9904
vn -0.0286 -0.9565 -0.2902
vn -0.0938 0.2890 -0.9527
vn -0.2889 0.0976 -0.9524
vn -0.0846 -0.9565 -0.2790
vn -0.2779 0.2890 -0.9161
vn -0.1374 -0.8810 -0.4528
vn -0.2563 0.4696 -0.8448
vn -0.1847 -0.7715 -0.6088
vn -0.2248 0.6326 -0.7412
vn -0.2248 -0.6326 -0.7412
vn -0.1847 0.7715 -0.6088
vn -0.2563 -0.4696 -0.8448
vn -0.1374 0.8810 -0.4528
vn -0.2779 -0.2890 -0.9161
vn -0.0846 0.9565 -0.2790
vn -0.2889 -0.0976 -0.9524
vn -0.0286 -0.9951 -0.0942
vn -0.0286 0.9951 -0.0942
vn -0.2999 0.7715 -0.5611
vn -0.4162 -0.4696 -0.7786
vn -0.2230 0.8810 -0.4173
vn -0.4513 -0.2890 -0.8443
vn -0.1374 0.9565 -0.2571
vn -0.4691 -0.0975 -0.8777
vn -0.0464 -0.9951 -0.0869
vn -0.0464 0.9951 -0.0869
vn -0.4691 0.0975 -0.8777
vn -0.1374 -0.9565 -0.2571
vn -0.4513 0.2890 -0.8443
vn -0.2230 -0.8810 -0.4173
vn -0.4162 0.4696 -0.7786
vn -0.2999 -0.7715 -0.5611
vn -0.3651 0.6326 -0.6831
vn -0.3651 -0.6326 -0.6831
vn -0.6073 0.2890 -0.7400
vn -0.3002 -0.8810 -0.3658
vn -0.5601 0.4696 -0.6825
vn -0.4036 -0.7715 -0.4918
vn -0.4913 0.6326 -0.5987
vn -0.4913 -0.6326 -0.5987
vn -0.4036 0.7715 -0.4918
vn -0.5601 -0.4696 -0.6825
vn -0.3002 0.8810 -0.3658
vn -0.6073 -0.2890 -0.7400
vn -0.1850 0.9565 -0.2254
vn -0.6314 -0.0975 -0.7693
vn -0.0625 -0.9951 -0.0761
vn -0.0625 0.9951 -0.0761
vn -0.6314 0.0975 -0.7693
vn -0.1850 -0.9565 -0.2254
vn -0.3658 0.8810 -0.3002
vn -0.7400 -0.2890 -0.6073
vn -0.2254 0.9565 -0.1850
vn -0.7693 -0.0975 -0.6314
vn -0.0761 -0.9951 -0.0625
vn -0.0761 0.9951 -0.0625
vn -0.7693 0.0975 -0.6314
vn -0.2254 -0.9565 -0.1850
vn -0.7400 0.2890 -0.6073
vn -0.3658 -0.8810 -0.3002
vn -0.6825 0.4696 -0.5601
vn -0.4918 -0.7715 -0.4036
vn -0.5987 0.6326 -0.4913
vn -0.5987 -0.6326 -0.4913
vn -0.4918 0.7715 -0.4036
vn -0.6825 -0.4696 -0.5601
vn -0.4173 -0.8810 -0.2230
vn -0.7786 0.4696 -0.4162
vn -0.5611 -0.7715 -0.2999
vn -0.6831 0.6326 -0.3651
vn -0.6831 -0.6326 -0.3651
vn -0.5611 0.7715 -0.2999
vn -0.7786 -0.4696 -0.4162
vn -0.4173 0.8810 -0.2230
vn -0.8443 -0.2890 -0.4513
vn -0.2571 0.9565 -0.1374
vn -0.8777 -0.0975 -0.4691
vn -0.0869 -0.9951 -0.0464
vn -0.0869 0.9951 -0.0464
vn -0.8777 0.0975 -0.4691
vn -0.2571 -0.9565 -0.1374
vn -0.8443 0.2890 -0.4513
vn -0.9161 -0.2890 -0.2779
vn -0.2790 0.9565 -0.0846
vn -0.9524 -0.0975 -0.2889
vn -0.0942 -0.9951 -0.0286
vn -0.0942 0.9951 -0.0286
vn -0.9524 0.0975 -0.2889
vn -0.2790 -0.9565 -0.0846
vn -0.9161 0.2890 -0.2779
vn -0.4528 -0.8810 -0.1374
vn -0.8448 0.4696 -0.2563
vn -0.6088 -0.7715 -0.1847
vn -0.7412 0.6326 -0.2248
vn -0.7412 -0.6326 -0.2248
vn -0.6088 0.7715 -0.1847
vn -0.8448 -0.4696 -0.2563
vn -0.4528 0.8810 -0.1374
vn -0.8786 0.4696 -0.0865
vn -0.6332 -0.7715 -0.0624
vn -0.7708 0.6326 -0.0759
vn -0.7708 -0.6326 -0.0759
vn -0.6332 0.7715 -0.0624
vn -0.8786 -0.4696 -0.0865
vn -0.4709 0.8810 -0.0464
vn -0.9527 -0.2890 -0.0938
vn -0.2902 0.9565 -0.0286
vn -0.9904 -0.0975 -0.0975
vn -0.0980 -0.9951 -0.0097
vn -0.0980 0.9951 -0.0097
vn -0.9904 0.0975 -0.0975
vn -0.2902 -0.9565 -0.0286
vn -0.9527 0.2890 -0.0938
vn -0.4709 -0.8810 -0.0464
vn -0.2902 0.9565 0.0286
vn -0.9904 -0.0975 0.0976
vn -0.0980 -0.9951 0.0097
vn -0.0980 0.9951 0.0097
vn -0.9904 0.0975 0.0976
vn -0.2902 -0.9565 0.0286
vn -0.9527 0.2890 0.0938
vn -0.4709 -0.8810 0.0464
vn -0.8786 0.4696 0.0865
vn -0.6332 -0.7715 0.0624
vn -0.7708 0.6326 0.0759
vn -0.7708 -0.6326 0.0759
vn -0.6332 0.7715 0.0624
vn -0.8786 -0.4696 0.0865
vn -0.4709 0.8810 0.0464
vn -0.9527 -0.2890 0.0938
vn -0.6088 -0.7715 0.1847
vn -0.7412 0.6326 0.2248
vn -0.7412 -0.6326 0.2248
vn -0.6088 0.7715 0.1847
vn -0.8448 -0.4696 0.2563
vn -0.4528 0.8810 0.1374
vn -0.9161 -0.2890 0.2779
vn -0.2790 0.9565 0.0846
vn -0.9524 -0.0975 0.2889
vn -0.0942 -0.9951 0.0286
vn -0.0942 0.9951 0.0286
vn -0.9524 0.0975 0.2889
vn -0.2790 -0.9565 0.0846
vn -0.9161 0.2890 0.2779
vn -0.4528 -0.8810 0.1374
vn -0.8448 0.4696 0.2563
vn -0.8777 -0.0975 0.4691
vn -0.0869 -0.9951 0.0464
vn -0.0869 0.9951 0.0464
vn -0.8777 0.0975 0.4691
vn -0.2571 -0.9565 0.1374
vn -0.8443 0.2890 0.4513
vn -0.4173 -0.8810 0.2230
vn -0.7786 0.4696 0.4162
vn -0.5611 -0.7715 0.2999
vn -0.6831 0.6326 0.3651
vn -0.6831 -0.6326 0.3651
vn -0.5611 0.7715 0.2999
vn -0.7786 -0.4696 0.4162
vn -0.4173 0.8810 0.2230
vn -0.8443 -0.2890 0.4513
vn -0.2571 0.9565 0.1374
vn -0.5987 0.6326 0.4913
vn -0.5987 -0.6326 0.4913
vn -0.4918 0.7715 0.4036
vn -0.6825 -0.4696 0.5601
vn -0.3658 0.8810 0.3002
vn -0.7400 -0.2890 0.6073
vn -0.2254 0.9565 0.1850
vn -0.7693 -0.0975 0.6314
vn -0.0761 -0.9951 0.0625
vn -0.0761 0.9951 0.0625
vn -0.7693 0.0975 0.6314
vn -0.2254 -0.9565 0.1850
vn -0.7400 0.2890 0.6073
vn -0.3658 -0.8810 0.3002
vn -0.6825 0.4696 0.5601
vn -0.4918 -0.7715 0.4036
vn -0.0625 0.9951 0.0761
vn -0.6314 0.0975 0.7693
vn -0.1850 -0.9565 0.2254
vn -0.6073 0.2890 0.7400
vn -0.3002 -0.8810 0.3658
vn -0.5601 0.4696 0.6825
vn -0.4036 -0.7715 0.4918
vn -0.4913 0.6326 0.5987
vn -0.4913 -0.6326 0.5987
vn -0.4036 0.7715 0.4918
vn -0.5601 -0.4696 0.6825
vn -0.3002 0.8810 0.3658
vn -0.6073 -0.2890 0.7400
vn -0.1850 0.9565 0.2254
vn -0.6314 -0.0975 0.7693
vn -0.0625 -0.9951 0.0761
vn -0.2999 0.7715 0.5611
vn -0.4162 -0.4696 0.7786
vn -0.2230 0.8810 0.4173
vn -0.4513 -0.2890 0.8443
vn -0.1374 0.9565 0.2571
vn -0.4691 -0.0975 0.8777
vn -0.0464 -0.9951 0.0869
vn -0.0464 0.9951 0.0869
vn -0.4691 0.0975 0.8777
vn -0.1374 -0.9565 0.2571
vn -0.4513 0.2890 0.8443
vn -0.2230 -0.8810 0.4173
vn -0.4162 0.4696 0.7786
vn -0.2999 -0.7715 0.5611
vn -0.3651 0.6326 0.6831
vn -0.3651 -0.6326 0.6831
vn -0.0846 -0.9565 0.2790
vn -0.2779 0.2890 0.9161
vn -0.1374 -0.8810 0.4528
vn -0.2563 0.4696 0.8448
vn -0.1847 -0.7715 0.6088
vn -0.2248 0.6326 0.7412
vn -0.2248 -0.6326 0.7412
vn -0.1847 0.7715 0.6088
vn -0.2563 -0.4696 0.8448
vn -0.1374 0.8810 0.4528
vn -0.2779 -0.2890 0.9161
vn -0.0846 0.9565 0.2790
vn -0.2889 -0.0975 0.9524
vn -0.0286 -0.9951 0.0942
vn -0.0286 0.9951 0.0942
vn -0.2889 0.0975 0.9524
vn -0.0865 -0.4696 0.8786
vn -0.0464 0.8810 0.4709
vn -0.0938 -0.2890 0.9527
vn -0.0286 0.9565 0.2902
vn -0.0975 -0.0975 0.9904
vn -0.0097 -0.9951 0.0980
vn -0.0097 0.9951 0.0980
vn -0.0975 0.0975 0.9904
vn -0.0286 -0.9565 0.2902
vn -0.0938 0.2890 0.9527
vn -0.0464 -0.8810 0.4709
vn -0.0865 0.4696 0.8786
vn -0.0624 -0.7715 0.6332
vn -0.0759 0.6326 0.7708
vn -0.0759 -0.6326 0.7708
vn -0.0624 0.7715 0.6332
vn 0.0938 0.2890 0.9527
vn 0.0464 -0.8810 0.4709
vn 0.0865 0.4696 0.8786
vn 0.0624 -0.7715 0.6332
vn 0.0759 0.6326 0.7708
vn 0.0759 -0.6326 0.7708
vn 0.0624 0.7715 0.6332
vn 0.0865 -0.4696 0.8786
vn 0.0464 0.8810 0.4709
vn 0.0938 -0.2890 0.9527
vn 0.0286 0.9565 0.2902
vn 0.0976 -0.0975 0.9904
vn 0.0097 -0.9951 0.0980
vn 0.0097 0.9951 0.0980
vn 0.0976 0.0975 0.9904
vn 0.0286 -0.9565 0.2902
vn 0.1374 0.8810 0.4528
vn 0.2779 -0.2890 0.9161
vn 0.0846 0.9565 0.2790
vn 0.2889 -0.0975 0.9524
vn 0.0286 -0.9951 0.0942
vn 0.0286 0.9951 0.0942
vn 0.2889 0.0975 0.9524
vn 0.0846 -0.9565 0.2790
vn 0.2779 0.2890 0.9161
vn 0.1374 -0.8810 0.4528
vn 0.2563 0.4696 0.8448
vn 0.1847 -0.7715 0.6088
vn 0.2248 0.6326 0.7412
vn 0.2248 -0.6326 0.7412
vn 0.1847 0.7715 0.6088
vn 0.2563 -0.4696 0.8448
vn 0.2231 -0.8810 0.4173
vn 0.4162 0.4696 0.7786
vn 0.2999 -0.7715 0.5611
vn 0.3651 0.6326 0.6831
vn 0.3651 -0.6326 0.6831
vn 0.2999 0.7715 0.5611
vn 0.4162 -0.4696 0.7786
vn 0.2230 0.8810 0.4173
vn 0.4513 -0.2890 0.8443
vn 0.1374 0.9565 0.2571
vn 0.4691 -0.0975 0.8777
vn 0.0464 -0.9951 0.0869
vn 0.0464 0.9951 0.0869
vn 0.4691 0.0975 0.8777
vn 0.1374 -0.9565 0.2571
vn 0.4513 0.2890 0.8443
vn 0.6073 -0.2890 0.7400
vn 0.1850 0.9565 0.2254
vn 0.6314 -0.0975 0.7693
vn 0.0625 -0.9951 0.0761
vn 0.0625 0.9951 0.0761
vn 0.6314 0.0975 0.7693
vn 0.1850 -0.9565 0.2254
vn 0.6073 0.2890 0.7400
vn 0.3002 -0.8810 0.3658
vn 0.5601 0.4696 0.6825
vn 0.4036 -0.7715 0.4918
vn 0.4913 0.6326 0.5987
vn 0.4913 -0.6326 0.5987
vn 0.4036 0.7715 0.4918
vn 0.5601 -0.4696 0.6825
vn 0.3002 0.8810 0.3658
vn 0.6825 0.4696 0.5601
vn 0.4918 -0.7715 0.4036
vn 0.5987 0.6326 0.4913
vn 0.5987 -0.6326 0.4913
vn 0.4918 0.7715 0.4036
vn 0.6825 -0.4696 0.5601
vn 0.3658 0.8810 0.3002
vn 0.7400 -0.2890 0.6073
vn 0.2254 0.9565 0.1850
vn 0.7693 -0.0975 0.6314
vn 0.0761 -0.9951 0.0625
vn 0.0761 0.9951 0.0625
vn 0.7693 0.0975 0.6314
vn 0.2254 -0.9565 0.1850
vn 0.7400 0.2890 0.6073
vn 0.3658 -0.8810 0.3002
vn 0.2571 0.9565 0.1374
vn 0.8777 -0.0975 0.4691
vn 0.0869 -0.9951 0.0464
vn 0.0869 0.9951 0.0464
vn 0.8777 0.0975 0.4691
vn 0.2571 -0.9565 0.1374
vn 0.8443 0.2890 0.4513
vn 0.4173 -0.8810 0.2230
vn 0.7786 0.4696 0.4162
vn 0.5611 -0.7715 0.2999
vn 0.6831 0.6326 0.3651
vn 0.6831 -0.6326 0.3651
vn 0.5611 0.7715 0.2999
vn 0.7786 -0.4696 0.4162
vn 0.4173 0.8810 0.2230
vn 0.8443 -0.2890 0.4513
vn 0.7412 0.6326 0.2248
vn 0.7412 -0.6326 0.2248
vn 0.6088 0.7715 0.1847
vn 0.8448 -0.4696 0.2563
vn 0.4528 0.8810 0.1374
vn 0.9161 -0.2890 0.2779
vn 0.2790 0.9565 0.0846
vn 0.9524 -0.0975 0.2889
vn 0.0942 -0.9951 0.0286
vn 0.0942 0.9951 0.0286
vn 0.9524 0.0975 0.2889
vn 0.2790 -0.9565 0.0846
vn 0.9161 0.2890 0.2779
vn 0.4528 -0.8810 0.1374
vn 0.8448 0.4696 0.2563
vn 0.6088 -0.7715 0.1847
vn 0.0980 -0.9951 0.0097
vn 0.0980 0.9951 0.0097
vn 0.9904 0.0975 0.0975
vn 0.2902 -0.9565 0.0286
vn 0.9527 0.2890 0.0938
vn 0.4709 -0.8810 0.0464
vn 0.8786 0.4696 0.0865
vn 0.6332 -0.7715 0.0624
vn 0.7708 0.6326 0.0759
vn 0.7708 -0.6326 0.0759
vn 0.6332 0.7715 0.0624
vn 0.8786 -0.4696 0.0865
vn 0.4709 0.8810 0.0464
vn 0.9527 -0.2890 0.0938
vn 0.2902 0.9565 0.0286
vn 0.9904 -0.0975 0.0975
vn 0.7708 -0.6326 -0.0759
vn 0.6332 0.7715 -0.0624
vn 0.8786 -0.4696 -0.0865
vn 0.4709 0.8810 -0.0464
vn 0.9527 -0.2890 -0.0938
vn 0.2902 0.9565 -0.0286
vn 0.9904 -0.0975 -0.0976
vn 0.0980 -0.9951 -0.0097
vn 0.0980 0.9951 -0.0097
vn 0.9904 0.0975 -0.0976
vn 0.2902 -0.9565 -0.0286
vn 0.9527 0.2890 -0.0938
vn 0.4709 -0.8810 -0.0464
vn 0.8786 0.4696 -0.0865
vn 0.6332 -0.7715 -0.0624
vn 0.7708 0.6326 -0.0759
vn 0.9524 0.0975 -0.2889
vn 0.2790 -0.9565 -0.0846
vn 0.9161 0.2890 -0.2779
vn 0.4528 -0.8810 -0.1374
vn 0.8448 0.4696 -0.2563
vn 0.6088 -0.7715 -0.1847
vn 0.7412 0.6326 -0.2248
vn 0.7412 -0.6326 -0.2248
vn 0.6088 0.7715 -0.1847
vn 0.8448 -0.4696 -0.2563
vn 0.4528 0.8810 -0.1374
vn 0.9161 -0.2890 -0.2779
vn 0.2790 0.9565 -0.0846
vn 0.9524 -0.0975 -0.2889
vn 0.0942 -0.9951 -0.0286
vn 0.0942 0.9951 -0.0286
vn 0.5611 0.7715 -0.2999
vn 0.7786 -0.4696 -0.4162
vn 0.4173 0.8810 -0.2231
vn 0.8443 -0.2890 -0.4513
vn 0.2571 0.9565 -0.1374
vn 0.8777 -0.0975 -0.4691
vn 0.0869 -0.9951 -0.0464
vn 0.0869 0.9951 -0.0464
vn 0.8777 0.0975 -0.4691
vn 0.2571 -0.9565 -0.1374
vn 0.8443 0.2890 -0.4513
vn 0.4173 -0.8810 -0.2231
vn 0.7786 0.4696 -0.4162
vn 0.5611 -0.7715 -0.2999
vn 0.6831 0.6326 -0.3651
vn 0.6831 -0.6326 -0.3651
vn 0.2254 -0.9565 -0.1850
vn 0.7400 0.2890 -0.6073
vn 0.3658 -0.8810 -0.3002
vn 0.6825 0.4696 -0.5601
vn 0.4918 -0.7715 -0.4036
vn 0.5987 0.6326 -0.4913
vn 0.5987 -0.6326 -0.4913
vn 0.4918 0.7715 -0.4036
vn 0.6825 -0.4696 -0.5601
vn 0.3658 0.8810 -0.3002
vn 0.7400 -0.2890 -0.6073
vn 0.2254 0.9565 -0.1850
vn 0.7693 -0.0975 -0.6314
vn 0.0761 -0.9951 -0.0625
vn 0.0761 0.9951 -0.0625
vn 0.7693 0.0975 -0.6314
vn 0.5601 -0.4696 -0.6825
vn 0.3002 0.8810 -0.3658
vn 0.6073 -0.2890 -0.7400
vn 0.1850 0.9565 -0.2254
vn 0.6314 -0.0975 -0.7693
vn 0.0625 -0.9951 -0.0761
vn 0.0625 0.9951 -0.0761
vn 0.6314 0.0975 -0.7693
vn 0.1850 -0.9565 -0.2254
vn 0.6073 0.2890 -0.7400
vn 0.3002 -0.8810 -0.3658
vn 0.5601 0.4696 -0.6825
vn 0.4036 -0.7715 -0.4918
vn 0.4913 0.6326 -0.5987
vn 0.4913 -0.6326 -0.5987
vn 0.4036 0.7715 -0.4918
vn 0.4513 0.2890 -0.8443
vn 0.2230 -0.8810 -0.4173
vn 0.4162 0.4696 -0.7786
vn 0.2999 -0.7715 -0.5611
vn 0.3651 0.6326 -0.6831
vn 0.3651 -0.6326 -0.6831
vn 0.2999 0.7715 -0.5611
vn 0.4162 -0.4696 -0.7786
vn 0.2230 0.8810 -0.4173
vn 0.4513 -0.2890 -0.8443
vn 0.1374 0.9565 -0.2571
vn 0.4691 -0.0975 -0.8777
vn 0.0464 -0.9951 -0.0869
vn 0.0464 0.9951 -0.0869
vn 0.4691 0.0975 -0.8777
vn 0.1374 -0.9565 -0.2571
vn 0.1374 0.8810 -0.4528
vn 0.2779 -0.2890 -0.9161
vn 0.0846 0.9565 -0.2790
vn 0.2889 -0.0975 -0.9524
vn 0.0286 -0.9951 -0.0942
vn 0.0286 0.9951 -0.0942
vn 0.2889 0.0975 -0.9524
vn 0.0846 -0.9565 -0.2790
vn 0.2779 0.2890 -0.9161
vn 0.1374 -0.8810 -0.4528
vn 0.2563 0.4696 -0.8448
vn 0.1847 -0.7715 -0.6088
vn 0.2248 0.6326 -0.7412
vn 0.2248 -0.6326 -0.7412
vn 0.1847 0.7715 -0.6088
vn 0.2563 -0.4696 -0.8448
vn 0.0865 0.4696 -0.8786
vn 0.0624 -0.7715 -0.6332
vn 0.0759 0.6326 -0.7708
vn 0.0759 -0.6326 -0.7708
vn 0.0624 0.7715 -0.6332
vn 0.0865 -0.4696 -0.8786
vn 0.0464 0.8810 -0.4709
vn 0.0938 -0.2890 -0.9527
vn 0.0286 0.9565 -0.2902
vn 0.0976 -0.0975 -0.9904
vn 0.0097 -0.9951 -0.0980
vn 0.0097 0.9951 -0.0980
vn 0.0976 0.0975 -0.9904
vn 0.0286 -0.9565 -0.2902
vn 0.0938 0.2890 -0.9527
vn 0.0464 -0.8810 -0.4709
vt 0.750000 0.812500
vt 0.718750 0.812500
vt 0.718750 0.875000
vt 0.750000 0.875000
vt 0.750000 0.312500
vt 0.718750 0.312500
vt 0.718750 0.375000
vt 0.750000 0.375000
vt 0.750000 0.750000
vt 0.718750 0.750000
vt 0.750000 0.250000
vt 0.718750 0.250000
vt 0.750000 0.687500
vt 0.718750 0.687500
vt 0.750000 0.187500
vt 0.718750 0.187500
vt 0.750000 0.625000
vt 0.718750 0.625000
vt 0.750000 0.125000
vt 0.718750 0.125000
vt 0.750000 0.562500
vt 0.718750 0.562500
vt 0.750000 0.062500
vt 0.718750 0.062500
vt 0.750000 0.500000
vt 0.718750 0.500000
vt 0.750000 0.937500
vt 0.718750 0.937500
vt 0.734375 1.000000
vt 0.734375 0.000000
vt 0.750000 0.437500
vt 0.718750 0.437500
vt 0.687500 0.437500
vt 0.687500 0.500000
vt 0.687500 0.875000
vt 0.687500 0.937500
vt 0.687500 0.375000
vt 0.687500 0.812500
vt 0.687500 0.312500
vt 0.687500 0.750000
vt 0.687500 0.250000
vt 0.687500 0.687500
vt 0.687500 0.187500
vt 0.687500 0.625000
vt 0.687500 0.125000
vt 0.687500 0.562500
vt 0.687500 0.062500
vt 0.703125 1.000000
vt 0.703125 0.000000
vt 0.656250 0.187500
vt 0.656250 0.250000
vt 0.656250 0.625000
vt 0.656250 0.687500
vt 0.656250 0.125000
vt 0.656250 0.562500
vt 0.656250 0.062500
vt 0.656250 0.500000
vt 0.656250 0.937500
vt 0.671875 1.000000
vt 0.671875 0.000000
vt 0.656250 0.437500
vt 0.656250 0.875000
vt 0.656250 0.375000
vt 0.656250 0.812500
vt 0.656250 0.312500
vt 0.656250 0.750000
vt 0.625000 0.375000
vt 0.625000 0.437500
vt 0.625000 0.812500
vt 0.625000 0.875000
vt 0.625000 0.312500
vt 0.625000 0.750000
vt 0.625000 0.250000
vt 0.625000 0.687500
vt 0.625000 0.187500
vt 0.625000 0.625000
vt 0.625000 0.125000
vt 0.625000 0.562500
vt 0.625000 0.062500
vt 0.625000 0.500000
vt 0.625000 0.937500
vt 0.640625 1.000000
vt 0.640625 0.000000
vt 0.593750 0.125000
vt 0.593750 0.187500
vt 0.593750 0.562500
vt 0.593750 0.625000
vt 0.593750 0.062500
vt 0.593750 0.500000
vt 0.593750 0.937500
vt 0.609375 1.000000
vt 0.609375 0.000000
vt 0.593750 0.437500
vt 0.593750 0.875000
vt 0.593750 0.375000
vt 0.593750 0.812500
vt 0.593750 0.312500
vt 0.593750 0.750000
vt 0.593750 0.250000
vt 0.593750 0.687500
vt 0.562500 0.812500
vt 0.562500 0.875000
vt 0.562500 0.312500
vt 0.562500 0.375000
vt 0.562500 0.750000
vt 0.562500 0.250000
vt 0.562500 0.687500
vt 0.562500 0.187500
vt 0.562500 0.625000
vt 0.562500 0.125000
vt 0.562500 0.562500
vt 0.562500 0.062500
vt 0.562500 0.500000
vt 0.562500 0.937500
vt 0.578125 1.000000
vt 0.578125 0.000000
vt 0.562500 0.437500
vt 0.531250 0.562500
vt 0.531250 0.625000
vt 0.531250 0.062500
vt 0.531250 0.125000
vt 0.531250 0.500000
vt 0.531250 0.937500
vt 0.546875 1.000000
vt 0.546875 0.000000
vt 0.531250 0.437500
vt 0.531250 0.875000
vt 0.531250 0.375000
vt 0.531250 0.812500
vt 0.531250 0.312500
vt 0.531250 0.750000
vt 0.531250 0.250000
vt 0.531250 0.687500
vt 0.531250 0.187500
vt 0.500000 0.312500
vt 0.500000 0.375000
vt 0.500000 0.750000
vt 0.500000 0.812500
vt 0.500000 0.250000
vt 0.500000 0.687500
vt 0.500000 0.187500
vt 0.500000 0.625000
vt 0.500000 0.125000
vt 0.500000 0.562500
vt 0.500000 0.062500
vt 0.500000 0.500000
vt 0.500000 0.937500
vt 0.515625 1.000000
vt 0.515625 0.000000
vt 0.500000 0.437500
vt 0.500000 0.875000
vt 0.468750 0.062500
vt 0.468750 0.125000
vt 0.468750 0.500000
vt 0.468750 0.562500
vt 0.468750 0.937500
vt 0.484375 1.000000
vt 0.484375 0.000000
vt 0.468750 0.437500
vt 0.468750 0.875000
vt 0.468750 0.375000
vt 0.468750 0.812500
vt 0.468750 0.312500
vt 0.468750 0.750000
vt 0.468750 0.250000
vt 0.468750 0.687500
vt 0.468750 0.187500
vt 0.468750 0.625000
vt 0.437500 0.750000
vt 0.437500 0.812500
vt 0.437500 0.250000
vt 0.437500 0.312500
vt 0.437500 0.687500
vt 0.437500 0.187500
vt 0.437500 0.625000
vt 0.437500 0.125000
vt 0.437500 0.562500
vt 0.437500 0.062500
vt 0.437500 0.500000
vt 0.437500 0.937500
vt 0.453125 1.000000
vt 0.453125 0.000000
vt 0.437500 0.437500
vt 0.437500 0.875000
vt 0.437500 0.375000
vt 0.406250 0.500000
vt 0.406250 0.562500
vt 0.406250 0.937500
vt 0.421875 1.000000
vt 0.421875 0.000000
vt 0.406250 0.062500
vt 0.406250 0.437500
vt 0.406250 0.875000
vt 0.406250 0.375000
vt 0.406250 0.812500
vt 0.406250 0.312500
vt 0.406250 0.750000
vt 0.406250 0.250000
vt 0.406250 0.687500
vt 0.406250 0.187500
vt 0.406250 0.625000
vt 0.406250 0.125000
vt 0.375000 0.250000
vt 0.375000 0.312500
vt 0.375000 0.687500
vt 0.375000 0.750000
vt 0.375000 0.187500
vt 0.375000 0.625000
vt 0.375000 0.125000
vt 0.375000 0.562500
vt 0.375000 0.062500
vt 0.375000 0.500000
vt 0.375000 0.937500
vt 0.390625 1.000000
vt 0.390625 0.000000
vt 0.375000 0.437500
vt 0.375000 0.875000
vt 0.375000 0.375000
vt 0.375000 0.812500
vt 0.359375 0.000000
vt 0.343750 0.062500
vt 0.343750 0.437500
vt 0.343750 0.500000
vt 0.343750 0.875000
vt 0.343750 0.937500
vt 0.343750 0.375000
vt 0.343750 0.812500
vt 0.343750 0.312500
vt 0.343750 0.750000
vt 0.343750 0.250000
vt 0.343750 0.687500
vt 0.343750 0.187500
vt 0.343750 0.625000
vt 0.343750 0.125000
vt 0.343750 0.562500
vt 0.359375 1.000000
vt 0.312500 0.187500
vt 0.312500 0.250000
vt 0.312500 0.625000
vt 0.312500 0.687500
vt 0.312500 0.125000
vt 0.312500 0.562500
vt 0.312500 0.062500
vt 0.312500 0.500000
vt 0.312500 0.937500
vt 0.328125 1.000000
vt 0.328125 0.000000
vt 0.312500 0.437500
vt 0.312500 0.875000
vt 0.312500 0.375000
vt 0.312500 0.812500
vt 0.312500 0.312500
vt 0.312500 0.750000
vt 0.281250 0.875000
vt 0.281250 0.937500
vt 0.281250 0.375000
vt 0.281250 0.437500
vt 0.281250 0.812500
vt 0.281250 0.312500
vt 0.281250 0.750000
vt 0.281250 0.250000
vt 0.281250 0.687500
vt 0.281250 0.187500
vt 0.281250 0.625000
vt 0.281250 0.125000
vt 0.281250 0.562500
vt 0.281250 0.062500
vt 0.281250 0.500000
vt 0.296875 1.000000
vt 0.296875 0.000000
vt 0.250000 0.625000
vt 0.250000 0.687500
vt 0.250000 0.125000
vt 0.250000 0.187500
vt 0.250000 0.562500
vt 0.250000 0.062500
vt 0.250000 0.500000
vt 0.250000 0.937500
vt 0.265625 1.000000
vt 0.265625 0.000000
vt 0.250000 0.437500
vt 0.250000 0.875000
vt 0.250000 0.375000
vt 0.250000 0.812500
vt 0.250000 0.312500
vt 0.250000 0.750000
vt 0.250000 0.250000
vt 0.218750 0.375000
vt 0.218750 0.437500
vt 0.218750 0.812500
vt 0.218750 0.875000
vt 0.218750 0.312500
vt 0.218750 0.750000
vt 0.218750 0.250000
vt 0.218750 0.687500
vt 0.218750 0.187500
vt 0.218750 0.625000
vt 0.218750 0.125000
vt 0.218750 0.562500
vt 0.218750 0.062500
vt 0.218750 0.500000
vt 0.218750 0.937500
vt 0.234375 1.000000
vt 0.234375 0.000000
vt 0.187500 0.125000
vt 0.187500 0.187500
vt 0.187500 0.562500
vt 0.187500 0.625000
vt 0.187500 0.062500
vt 0.187500 0.500000
vt 0.187500 0.937500
vt 0.203125 1.000000
vt 0.203125 0.000000
vt 0.187500 0.437500
vt 0.187500 0.875000
vt 0.187500 0.375000
vt 0.187500 0.812500
vt 0.187500 0.312500
vt 0.187500 0.750000
vt 0.187500 0.250000
vt 0.187500 0.687500
vt 0.156250 0.812500
vt 0.156250 0.875000
vt 0.156250 0.312500
vt 0.156250 0.375000
vt 0.156250 0.750000
vt 0.156250 0.250000
vt 0.156250 0.687500
vt 0.156250 0.187500
vt 0.156250 0.625000
vt 0.156250 0.125000
vt 0.156250 0.562500
vt 0.156250 0.062500
vt 0.156250 0.500000
vt 0.156250 0.937500
vt 0.171875 1.000000
vt 0.171875 0.000000
vt 0.156250 0.437500
vt 0.125000 0.562500
vt 0.125000 0.625000
vt 0.125000 0.062500
vt 0.125000 0.125000
vt 0.125000 0.500000
vt 0.125000 0.937500
vt 0.140625 1.000000
vt 0.140625 0.000000
vt 0.125000 0.437500
vt 0.125000 0.875000
vt 0.125000 0.375000
vt 0.125000 0.812500
vt 0.125000 0.312500
vt 0.125000 0.750000
vt 0.125000 0.250000
vt 0.125000 0.687500
vt 0.125000 0.187500
vt 0.093750 0.312500
vt 0.093750 0.375000
vt 0.093750 0.750000
vt 0.093750 0.812500
vt 0.093750 0.250000
vt 0.093750 0.687500
vt 0.093750 0.187500
vt 0.093750 0.625000
vt 0.093750 0.125000
vt 0.093750 0.562500
vt 0.093750 0.062500
vt 0.093750 0.500000
vt 0.093750 0.937500
vt 0.109375 1.000000
vt 0.109375 0.000000
vt 0.093750 0.437500
vt 0.093750 0.875000
vt 0.062500 0.062500
vt 0.062500 0.125000
vt 0.062500 0.500000
vt 0.062500 0.562500
vt 0.062500 0.937500
vt 0.078125 1.000000
vt 0.078125 0.000000
vt 0.062500 0.437500
vt 0.062500 0.875000
vt 0.062500 0.375000
vt 0.062500 0.812500
vt 0.062500 0.312500
vt 0.062500 0.750000
vt 0.062500 0.250000
vt 0.062500 0.687500
vt 0.062500 0.187500
vt 0.062500 0.625000
vt 0.031250 0.250000
vt 0.031250 0.312500
vt 0.031250 0.687500
vt 0.031250 0.750000
vt 0.031250 0.187500
vt 0.031250 0.625000
vt 0.031250 0.125000
vt 0.031250 0.562500
vt 0.031250 0.062500
vt 0.031250 0.500000
vt 0.031250 0.937500
vt 0.046875 1.000000
vt 0.046875 0.000000
vt 0.031250 0.437500
vt 0.031250 0.875000
vt 0.031250 0.375000
vt 0.031250 0.812500
vt 0.000000 0.937500
vt 0.015625 1.000000
vt 0.015625 0.000000
vt 0.000000 0.062500
vt 0.000000 0.437500
vt 0.000000 0.500000
vt 0.000000 0.875000
vt 0.000000 0.375000
vt 0.000000 0.812500
vt 0.000000 0.312500
vt 0.000000 0.750000
vt 0.000000 0.250000
vt 0.000000 0.687500
vt 0.000000 0.187500
vt 0.000000 0.625000
vt 0.000000 0.125000
vt 0.000000 0.562500
vt 1.000000 0.687500
vt 0.968750 0.687500
vt 0.968750 0.750000
vt 1.000000 0.750000
vt 1.000000 0.187500
vt 0.968750 0.187500
vt 0.968750 0.250000
vt 1.000000 0.250000
vt 1.000000 0.625000
vt 0.968750 0.625000
vt 1.000000 0.125000
vt 0.968750 0.125000
vt 1.000000 0.562500
vt 0.968750 0.562500
vt 1.000000 0.062500
vt 0.968750 0.062500
vt 1.000000 0.500000
vt 0.968750 0.500000
vt 1.000000 0.937500
vt 0.968750 0.937500
vt 0.984375 1.000000
vt 0.984375 0.000000
vt 1.000000 0.437500
vt 0.968750 0.437500
vt 1.000000 0.875000
vt 0.968750 0.875000
vt 1.000000 0.375000
vt 0.968750 0.375000
vt 1.000000 0.812500
vt 0.968750 0.812500
vt 1.000000 0.312500
vt 0.968750 0.312500
vt 0.937500 0.437500
vt 0.937500 0.500000
vt 0.937500 0.875000
vt 0.937500 0.937500
vt 0.937500 0.375000
vt 0.937500 0.812500
vt 0.937500 0.312500
vt 0.937500 0.750000
vt 0.937500 0.250000
vt 0.937500 0.687500
vt 0.937500 0.187500
vt 0.937500 0.625000
vt 0.937500 0.125000
vt 0.937500 0.562500
vt 0.937500 0.062500
vt 0.953125 1.000000
vt 0.953125 0.000000
vt 0.906250 0.187500
vt 0.906250 0.250000
vt 0.906250 0.625000
vt 0.906250 0.687500
vt 0.906250 0.125000
vt 0.906250 0.562500
vt 0.906250 0.062500
vt 0.906250 0.500000
vt 0.906250 0.937500
vt 0.921875 1.000000
vt 0.921875 0.000000
vt 0.906250 0.437500
vt 0.906250 0.875000
vt 0.906250 0.375000
vt 0.906250 0.812500
vt 0.906250 0.312500
vt 0.906250 0.750000
vt 0.875000 0.875000
vt 0.875000 0.937500
vt 0.875000 0.375000
vt 0.875000 0.437500
vt 0.875000 0.812500
vt 0.875000 0.312500
vt 0.875000 0.750000
vt 0.875000 0.250000
vt 0.875000 0.687500
vt 0.875000 0.187500
vt 0.875000 0.625000
vt 0.875000 0.125000
vt 0.875000 0.562500
vt 0.875000 0.062500
vt 0.875000 0.500000
vt 0.890625 1.000000
vt 0.890625 0.000000
vt 0.843750 0.625000
vt 0.843750 0.687500
vt 0.843750 0.125000
vt 0.843750 0.187500
vt 0.843750 0.562500
vt 0.843750 0.062500
vt 0.843750 0.500000
vt 0.843750 0.937500
vt 0.859375 1.000000
vt 0.859375 0.000000
vt 0.843750 0.437500
vt 0.843750 0.875000
vt 0.843750 0.375000
vt 0.843750 0.812500
vt 0.843750 0.312500
vt 0.843750 0.750000
vt 0.843750 0.250000
vt 0.812500 0.375000
vt 0.812500 0.437500
vt 0.812500 0.812500
vt 0.812500 0.875000
vt 0.812500 0.312500
vt 0.812500 0.750000
vt 0.812500 0.250000
vt 0.812500 0.687500
vt 0.812500 0.187500
vt 0.812500 0.625000
vt 0.812500 0.125000
vt 0.812500 0.562500
vt 0.812500 0.062500
vt 0.812500 0.500000
vt 0.812500 0.937500
vt 0.828125 1.000000
vt 0.828125 0.000000
vt 0.781250 0.125000
vt 0.781250 0.187500
vt 0.781250 0.562500
vt 0.781250 0.625000
vt 0.781250 0.062500
vt 0.781250 0.500000
vt 0.781250 0.937500
vt 0.796875 1.000000
vt 0.796875 0.000000
vt 0.781250 0.437500
vt 0.781250 0.875000
vt 0.781250 0.375000
vt 0.781250 0.812500
vt 0.781250 0.312500
vt 0.781250 0.750000
vt 0.781250 0.250000
vt 0.781250 0.687500
vt 0.765625 1.000000
vt 0.765625 0.000000
s 0
usemtl Material
f 1/1/1 475/4/1 8/3/1 9/2/1
f 6/5/2 478/8/2 16/7/2 17/6/2
f 476/9/3 1/1/3 9/2/3 10/10/3
f 479/11/4 6/5/4 17/6/4 18/12/4
f 2/13/5 476/9/5 10/10/5 11/14/5
f 480/15/6 479/11/6 18/12/6 19/16/6
f 477/17/7 2/13/7 11/14/7 12/18/7
f 481/19/8 480/15/8 19/16/8 20/20/8
f 3/21/9 477/17/9 12/18/9 13/22/9
f 482/23/10 481/19/10 20/20/10 21/24/10
f 4/25/11 3/21/11 13/22/11 14/26/11
f 474/27/12 82/29/12 7/28/12
f 308/30/13 482/23/13 21/24/13
f 5/31/14 4/25/14 14/26/14 15/32/14
f 475/4/15 474/27/15 7/28/15 8/3/15
f 478/8/16 5/31/16 15/32/16 16/7/16
f 15/32/17 14/26/17 29/34/17 30/33/17
f 8/3/18 7/28/18 22/36/18 23/35/18
f 16/7/19 15/32/19 30/33/19 31/37/19
f 9/2/20 8/3/20 23/35/20 24/38/20
f 17/6/21 16/7/21 31/37/21 32/39/21
f 10/10/22 9/2/22 24/38/22 25/40/22
f 18/12/23 17/6/23 32/39/23 33/41/23
f 11/14/24 10/10/24 25/40/24 26/42/24
f 19/16/25 18/12/25 33/41/25 34/43/25
f 12/18/26 11/14/26 26/42/26 27/44/26
f 20/20/27 19/16/27 34/43/27 35/45/27
f 13/22/28 12/18/28 27/44/28 28/46/28
f 21/24/29 20/20/29 35/45/29 36/47/29
f 14/26/30 13/22/30 28/46/30 29/34/30
f 7/28/31 82/48/31 22/36/31
f 308/49/32 21/24/32 36/47/32
f 34/43/33 33/41/33 48/51/33 49/50/33
f 27/44/34 26/42/34 41/53/34 42/52/34
f 35/45/35 34/43/35 49/50/35 50/54/35
f 28/46/36 27/44/36 42/52/36 43/55/36
f 36/47/37 35/45/37 50/54/37 51/56/37
f 29/34/38 28/46/38 43/55/38 44/57/38
f 22/36/39 82/59/39 37/58/39
f 308/60/40 36/47/40 51/56/40
f 30/33/41 29/34/41 44/57/41 45/61/41
f 23/35/42 22/36/42 37/58/42 38/62/42
f 31/37/43 30/33/43 45/61/43 46/63/43
f 24/38/44 23/35/44 38/62/44 39/64/44
f 32/39/45 31/37/45 46/63/45 47/65/45
f 25/40/46 24/38/46 39/64/46 40/66/46
f 33/41/47 32/39/47 47/65/47 48/51/47
f 26/42/48 25/40/48 40/66/48 41/53/48
f 46/63/49 45/61/49 60/68/49 61/67/49
f 39/64/50 38/62/50 53/70/50 54/69/50
f 47/65/51 46/63/51 61/67/51 62/71/51
f 40/66/52 39/64/52 54/69/52 55/72/52
f 48/51/53 47/65/53 62/71/53 63/73/53
f 41/53/54 40/66/54 55/72/54 56/74/54
f 49/50/55 48/51/55 63/73/55 64/75/55
f 42/52/56 41/53/56 56/74/56 57/76/56
f 50/54/57 49/50/57 64/75/57 65/77/57
f 43/55/58 42/52/58 57/76/58 58/78/58
f 51/56/59 50/54/59 65/77/59 66/79/59
f 44/57/60 43/55/60 58/78/60 59/80/60
f 37/58/61 82/82/61 52/81/61
f 308/83/62 51/56/62 66/79/62
f 45/61/63 44/57/63 59/80/63 60/68/63
f 38/62/64 37/58/64 52/81/64 53/70/64
f 65/77/65 64/75/65 79/85/65 80/84/65
f 58/78/66 57/76/66 72/87/66 73/86/66
f 66/79/67 65/77/67 80/84/67 81/88/67
f 59/80/68 58/78/68 73/86/68 74/89/68
f 52/81/69 82/91/69 67/90/69
f 308/92/70 66/79/70 81/88/70
f 60/68/71 59/80/71 74/89/71 75/93/71
f 53/70/72 52/81/72 67/90/72 68/94/72
f 61/67/73 60/68/73 75/93/73 76/95/73
f 54/69/74 53/70/74 68/94/74 69/96/74
f 62/71/75 61/67/75 76/95/75 77/97/75
f 55/72/76 54/69/76 69/96/76 70/98/76
f 63/73/77 62/71/77 77/97/77 78/99/77
f 56/74/78 55/72/78 70/98/78 71/100/78
f 64/75/79 63/73/79 78/99/79 79/85/79
f 57/76/80 56/74/80 71/100/80 72/87/80
f 69/96/81 68/94/81 84/102/81 85/101/81
f 77/97/82 76/95/82 92/104/82 93/103/82
f 70/98/83 69/96/83 85/101/83 86/105/83
f 78/99/84 77/97/84 93/103/84 94/106/84
f 71/100/85 70/98/85 86/105/85 87/107/85
f 79/85/86 78/99/86 94/106/86 95/108/86
f 72/87/87 71/100/87 87/107/87 88/109/87
f 80/84/88 79/85/88 95/108/88 96/110/88
f 73/86/89 72/87/89 88/109/89 89/111/89
f 81/88/90 80/84/90 96/110/90 97/112/90
f 74/89/91 73/86/91 89/111/91 90/113/91
f 67/90/92 82/115/92 83/114/92
f 308/116/93 81/88/93 97/112/93
f 75/93/94 74/89/94 90/113/94 91/117/94
f 68/94/95 67/90/95 83/114/95 84/102/95
f 76/95/96 75/93/96 91/117/96 92/104/96
f 89/111/97 88/109/97 103/119/97 104/118/97
f 97/112/98 96/110/98 111/121/98 112/120/98
f 90/113/99 89/111/99 104/118/99 105/122/99
f 83/114/100 82/124/100 98/123/100
f 308/125/101 97/112/101 112/120/101
f 91/117/102 90/113/102 105/122/102 106/126/102
f 84/102/103 83/114/103 98/123/103 99/127/103
f 92/104/104 91/117/104 106/126/104 107/128/104
f 85/101/105 84/102/105 99/127/105 100/129/105
f 93/103/106 92/104/106 107/128/106 108/130/106
f 86/105/107 85/101/107 100/129/107 101/131/107
f 94/106/108 93/103/108 108/130/108 109/132/108
f 87/107/109 86/105/109 101/131/109 102/133/109
f 95/108/110 94/106/110 109/132/110 110/134/110
f 88/109/111 87/107/111 102/133/111 103/119/111
f 96/110/112 95/108/112 110/134/112 111/121/112
f 108/130/113 107/128/113 122/136/113 123/135/113
f 101/131/114 100/129/114 115/138/114 116/137/114
f 109/132/115 108/130/115 123/135/115 124/139/115
f 102/133/116 101/131/116 116/137/116 117/140/116
f 110/134/117 109/132/117 124/139/117 125/141/117
f 103/119/118 102/133/118 117/140/118 118/142/118
f 111/121/119 110/134/119 125/141/119 126/143/119
f 104/118/120 103/119/120 118/142/120 119/144/120
f 112/120/121 111/121/121 126/143/121 127/145/121
f 105/122/122 104/118/122 119/144/122 120/146/122
f 98/123/123 82/148/123 113/147/123
f 308/149/124 112/120/124 127/145/124
f 106/126/125 105/122/125 120/146/125 121/150/125
f 99/127/126 98/123/126 113/147/126 114/151/126
f 107/128/127 106/126/127 121/150/127 122/136/127
f 100/129/128 99/127/128 114/151/128 115/138/128
f 127/145/129 126/143/129 141/153/129 142/152/129
f 120/146/130 119/144/130 134/155/130 135/154/130
f 113/147/131 82/157/131 128/156/131
f 308/158/132 127/145/132 142/152/132
f 121/150/133 120/146/133 135/154/133 136/159/133
f 114/151/134 113/147/134 128/156/134 129/160/134
f 122/136/135 121/150/135 136/159/135 137/161/135
f 115/138/136 114/151/136 129/160/136 130/162/136
f 123/135/137 122/136/137 137/161/137 138/163/137
f 116/137/138 115/138/138 130/162/138 131/164/138
f 124/139/139 123/135/139 138/163/139 139/165/139
f 117/140/140 116/137/140 131/164/140 132/166/140
f 125/141/141 124/139/141 139/165/141 140/167/141
f 118/142/142 117/140/142 132/166/142 133/168/142
f 126/143/143 125/141/143 140/167/143 141/153/143
f 119/144/144 118/142/144 133/168/144 134/155/144
f 131/164/145 130/162/145 145/170/145 146/169/145
f 139/165/146 138/163/146 153/172/146 154/171/146
f 132/166/147 131/164/147 146/169/147 147/173/147
f 140/167/148 139/165/148 154/171/148 155/174/148
f 133/168/149 132/166/149 147/173/149 148/175/149
f 141/153/150 140/167/150 155/174/150 156/176/150
f 134/155/151 133/168/151 148/175/151 149/177/151
f 142/152/152 141/153/152 156/176/152 157/178/152
f 135/154/153 134/155/153 149/177/153 150/179/153
f 128/156/154 82/181/154 143/180/154
f 308/182/155 142/152/155 157/178/155
f 136/159/156 135/154/156 150/179/156 151/183/156
f 129/160/157 128/156/157 143/180/157 144/184/157
f 137/161/158 136/159/158 151/183/158 152/185/158
f 130/162/159 129/160/159 144/184/159 145/170/159
f 138/163/160 137/161/160 152/185/160 153/172/160
f 150/179/161 149/177/161 164/187/161 165/186/161
f 143/180/162 82/189/162 158/188/162
f 308/190/163 157/178/163 172/191/163
f 151/183/164 150/179/164 165/186/164 166/192/164
f 144/184/165 143/180/165 158/188/165 159/193/165
f 152/185/166 151/183/166 166/192/166 167/194/166
f 145/170/167 144/184/167 159/193/167 160/195/167
f 153/172/168 152/185/168 167/194/168 168/196/168
f 146/169/169 145/170/169 160/195/169 161/197/169
f 154/171/170 153/172/170 168/196/170 169/198/170
f 147/173/171 146/169/171 161/197/171 162/199/171
f 155/174/172 154/171/172 169/198/172 170/200/172
f 148/175/173 147/173/173 162/199/173 163/201/173
f 156/176/174 155/174/174 170/200/174 171/202/174
f 149/177/175 148/175/175 163/201/175 164/187/175
f 157/178/176 156/176/176 171/202/176 172/191/176
f 169/198/177 168/196/177 183/204/177 184/203/177
f 162/199/178 161/197/178 176/206/178 177/205/178
f 170/200/179 169/198/179 184/203/179 185/207/179
f 163/201/180 162/199/180 177/205/180 178/208/180
f 171/202/181 170/200/181 185/207/181 186/209/181
f 164/187/182 163/201/182 178/208/182 179/210/182
f 172/191/183 171/202/183 186/209/183 187/211/183
f 165/186/184 164/187/184 179/210/184 180/212/184
f 158/188/185 82/214/185 173/213/185
f 308/215/186 172/191/186 187/211/186
f 166/192/187 165/186/187 180/212/187 181/216/187
f 159/193/188 158/188/188 173/213/188 174/217/188
f 167/194/189 166/192/189 181/216/189 182/218/189
f 160/195/190 159/193/190 174/217/190 175/219/190
f 168/196/191 167/194/191 182/218/191 183/204/191
f 161/197/192 160/195/192 175/219/192 176/206/192
f 308/220/193 187/211/193 202/221/193
f 181/216/194 180/212/194 195/223/194 196/222/194
f 174/217/195 173/213/195 188/225/195 189/224/195
f 182/218/196 181/216/196 196/222/196 197/226/196
f 175/219/197 174/217/197 189/224/197 190/227/197
f 183/204/198 182/218/198 197/226/198 198/228/198
f 176/206/199 175/219/199 190/227/199 191/229/199
f 184/203/200 183/204/200 198/228/200 199/230/200
f 177/205/201 176/206/201 191/229/201 192/231/201
f 185/207/202 184/203/202 199/230/202 200/232/202
f 178/208/203 177/205/203 192/231/203 193/233/203
f 186/209/204 185/207/204 200/232/204 201/234/204
f 179/210/205 178/208/205 193/233/205 194/235/205
f 187/211/206 186/209/206 201/234/206 202/221/206
f 180/212/207 179/210/207 194/235/207 195/223/207
f 173/213/208 82/236/208 188/225/208
f 200/232/209 199/230/209 214/238/209 215/237/209
f 193/233/210 192/231/210 207/240/210 208/239/210
f 201/234/211 200/232/211 215/237/211 216/241/211
f 194/235/212 193/233/212 208/239/212 209/242/212
f 202/221/213 201/234/213 216/241/213 217/243/213
f 195/223/214 194/235/214 209/242/214 210/244/214
f 188/225/215 82/246/215 203/245/215
f 308/247/216 202/221/216 217/243/216
f 196/222/217 195/223/217 210/244/217 211/248/217
f 189/224/218 188/225/218 203/245/218 204/249/218
f 197/226/219 196/222/219 211/248/219 212/250/219
f 190/227/220 189/224/220 204/249/220 205/251/220
f 198/228/221 197/226/221 212/250/221 213/252/221
f 191/229/222 190/227/222 205/251/222 206/253/222
f 199/230/223 198/228/223 213/252/223 214/238/223
f 192/231/224 191/229/224 206/253/224 207/240/224
f 204/249/225 203/245/225 218/255/225 219/254/225
f 212/250/226 211/248/226 226/257/226 227/256/226
f 205/251/227 204/249/227 219/254/227 220/258/227
f 213/252/228 212/250/228 227/256/228 228/259/228
f 206/253/229 205/251/229 220/258/229 221/260/229
f 214/238/230 213/252/230 228/259/230 229/261/230
f 207/240/231 206/253/231 221/260/231 222/262/231
f 215/237/232 214/238/232 229/261/232 230/263/232
f 208/239/233 207/240/233 222/262/233 223/264/233
f 216/241/234 215/237/234 230/263/234 231/265/234
f 209/242/235 208/239/235 223/264/235 224/266/235
f 217/243/236 216/241/236 231/265/236 232/267/236
f 210/244/237 209/242/237 224/266/237 225/268/237
f 203/245/238 82/269/238 218/255/238
f 308/270/239 217/243/239 232/267/239
f 211/248/240 210/244/240 225/268/240 226/257/240
f 223/264/241 222/262/241 237/272/241 238/271/241
f 231/265/242 230/263/242 245/274/242 246/273/242
f 224/266/243 223/264/243 238/271/243 239/275/243
f 232/267/244 231/265/244 246/273/244 247/276/244
f 225/268/245 224/266/245 239/275/245 240/277/245
f 218/255/246 82/279/246 233/278/246
f 308/280/247 232/267/247 247/276/247
f 226/257/248 225/268/248 240/277/248 241/281/248
f 219/254/249 218/255/249 233/278/249 234/282/249
f 227/256/250 226/257/250 241/281/250 242/283/250
f 220/258/251 219/254/251 234/282/251 235/284/251
f 228/259/252 227/256/252 242/283/252 243/285/252
f 221/260/253 220/258/253 235/284/253 236/286/253
f 229/261/254 228/259/254 243/285/254 244/287/254
f 222/262/255 221/260/255 236/286/255 237/272/255
f 230/263/256 229/261/256 244/287/256 245/274/256
f 242/283/257 241/281/257 256/289/257 257/288/257
f 235/284/258 234/282/258 249/291/258 250/290/258
f 243/285/259 242/283/259 257/288/259 258/292/259
f 236/286/260 235/284/260 250/290/260 251/293/260
f 244/287/261 243/285/261 258/292/261 259/294/261
f 237/272/262 236/286/262 251/293/262 252/295/262
f 245/274/263 244/287/263 259/294/263 260/296/263
f 238/271/264 237/272/264 252/295/264 253/297/264
f 246/273/265 245/274/265 260/296/265 261/298/265
f 239/275/266 238/271/266 253/297/266 254/299/266
f 247/276/267 246/273/267 261/298/267 262/300/267
f 240/277/268 239/275/268 254/299/268 255/301/268
f 233/278/269 82/303/269 248/302/269
f 308/304/270 247/276/270 262/300/270
f 241/281/271 240/277/271 255/301/271 256/289/271
f 234/282/272 233/278/272 248/302/272 249/291/272
f 261/298/273 260/296/273 275/306/273 276/305/273
f 254/299/274 253/297/274 268/308/274 269/307/274
f 262/300/275 261/298/275 276/305/275 277/309/275
f 255/301/276 254/299/276 269/307/276 270/310/276
f 248/302/277 82/312/277 263/311/277
f 308/313/278 262/300/278 277/309/278
f 256/289/279 255/301/279 270/310/279 271/314/279
f 249/291/280 248/302/280 263/311/280 264/315/280
f 257/288/281 256/289/281 271/314/281 272/316/281
f 250/290/282 249/291/282 264/315/282 265/317/282
f 258/292/283 257/288/283 272/316/283 273/318/283
f 251/293/284 250/290/284 265/317/284 266/319/284
f 259/294/285 258/292/285 273/318/285 274/320/285
f 252/295/286 251/293/286 266/319/286 267/321/286
f 260/296/287 259/294/287 274/320/287 275/306/287
f 253/297/288 252/295/288 267/321/288 268/308/288
f 265/317/289 264/315/289 279/323/289 280/322/289
f 273/318/290 272/316/290 287/325/290 288/324/290
f 266/319/291 265/317/291 280/322/291 281/326/291
f 274/320/292 273/318/292 288/324/292 289/327/292
f 267/321/293 266/319/293 281/326/293 282/328/293
f 275/306/294 274/320/294 289/327/294 290/329/294
f 268/308/295 267/321/295 282/328/295 283/330/295
f 276/305/296 275/306/296 290/329/296 291/331/296
f 269/307/297 268/308/297 283/330/297 284/332/297
f 277/309/298 276/305/298 291/331/298 292/333/298
f 270/310/299 269/307/299 284/332/299 285/334/299
f 263/311/300 82/336/300 278/335/300
f 308/337/301 277/309/301 292/333/301
f 271/314/302 270/310/302 285/334/302 286/338/302
f 264/315/303 263/311/303 278/335/303 279/323/303
f 272/316/304 271/314/304 286/338/304 287/325/304
f 284/332/305 283/330/305 298/340/305 299/339/305
f 292/333/306 291/331/306 306/342/306 307/341/306
f 285/334/307 284/332/307 299/339/307 300/343/307
f 278/335/308 82/345/308 293/344/308
f 308/346/309 292/333/309 307/341/309
f 286/338/310 285/334/310 300/343/310 301/347/310
f 279/323/311 278/335/311 293/344/311 294/348/311
f 287/325/312 286/338/312 301/347/312 302/349/312
f 280/322/313 279/323/313 294/348/313 295/350/313
f 288/324/314 287/325/314 302/349/314 303/351/314
f 281/326/315 280/322/315 295/350/315 296/352/315
f 289/327/316 288/324/316 303/351/316 304/353/316
f 282/328/317 281/326/317 296/352/317 297/354/317
f 290/329/318 289/327/318 304/353/318 305/355/318
f 283/330/319 282/328/319 297/354/319 298/340/319
f 291/331/320 290/329/320 305/355/320 306/342/320
f 303/351/321 302/349/321 318/357/321 319/356/321
f 296/352/322 295/350/322 311/359/322 312/358/322
f 304/353/323 303/351/323 319/356/323 320/360/323
f 297/354/324 296/352/324 312/358/324 313/361/324
f 305/355/325 304/353/325 320/360/325 321/362/325
f 298/340/326 297/354/326 313/361/326 314/363/326
f 306/342/327 305/355/327 321/362/327 322/364/327
f 299/339/328 298/340/328 314/363/328 315/365/328
f 307/341/329 306/342/329 322/364/329 323/366/329
f 300/343/330 299/339/330 315/365/330 316/367/330
f 293/344/331 82/369/331 309/368/331
f 308/370/332 307/341/332 323/366/332
f 301/347/333 300/343/333 316/367/333 317/371/333
f 294/348/334 293/344/334 309/368/334 310/372/334
f 302/349/335 301/347/335 317/371/335 318/357/335
f 295/350/336 294/348/336 310/372/336 311/359/336
f 323/366/337 322/364/337 337/374/337 338/373/337
f 316/367/338 315/365/338 330/376/338 331/375/338
f 309/368/339 82/378/339 324/377/339
f 308/379/340 323/366/340 338/373/340
f 317/371/341 316/367/341 331/375/341 332/380/341
f 310/372/342 309/368/342 324/377/342 325/381/342
f 318/357/343 317/371/343 332/380/343 333/382/343
f 311/359/344 310/372/344 325/381/344 326/383/344
f 319/356/345 318/357/345 333/382/345 334/384/345
f 312/358/346 311/359/346 326/383/346 327/385/346
f 320/360/347 319/356/347 334/384/347 335/386/347
f 313/361/348 312/358/348 327/385/348 328/387/348
f 321/362/349 320/360/349 335/386/349 336/388/349
f 314/363/350 313/361/350 328/387/350 329/389/350
f 322/364/351 321/362/351 336/388/351 337/374/351
f 315/365/352 314/363/352 329/389/352 330/376/352
f 335/386/353 334/384/353 349/391/353 350/390/353
f 328/387/354 327/385/354 342/393/354 343/392/354
f 336/388/355 335/386/355 350/390/355 351/394/355
f 329/389/356 328/387/356 343/392/356 344/395/356
f 337/374/357 336/388/357 351/394/357 352/396/357
f 330/376/358 329/389/358 344/395/358 345/397/358
f 338/373/359 337/374/359 352/396/359 353/398/359
f 331/375/360 330/376/360 345/397/360 346/399/360
f 324/377/361 82/401/361 339/400/361
f 308/402/362 338/373/362 353/398/362
f 332/380/363 331/375/363 346/399/363 347/403/363
f 325/381/364 324/377/364 339/400/364 340/404/364
f 333/382/365 332/380/365 347/403/365 348/405/365
f 326/383/366 325/381/366 340/404/366 341/406/366
f 334/384/367 333/382/367 348/405/367 349/391/367
f 327/385/368 326/383/368 341/406/368 342/393/368
f 339/400/369 82/408/369 354/407/369
f 308/409/370 353/398/370 368/410/370
f 347/403/371 346/399/371 361/412/371 362/411/371
f 340/404/372 339/400/372 354/407/372 355/413/372
f 348/405/373 347/403/373 362/411/373 363/414/373
f 341/406/374 340/404/374 355/413/374 356/415/374
f 349/391/375 348/405/375 363/414/375 364/416/375
f 342/393/376 341/406/376 356/415/376 357/417/376
f 350/390/377 349/391/377 364/416/377 365/418/377
f 343/392/378 342/393/378 357/417/378 358/419/378
f 351/394/379 350/390/379 365/418/379 366/420/379
f 344/395/380 343/392/380 358/419/380 359/421/380
f 352/396/381 351/394/381 366/420/381 367/422/381
f 345/397/382 344/395/382 359/421/382 360/423/382
f 353/398/383 352/396/383 367/422/383 368/410/383
f 346/399/384 345/397/384 360/423/384 361/412/384
f 358/424/385 357/427/385 372/426/385 373/425/385
f 366/428/386 365/431/386 380/430/386 381/429/386
f 359/432/387 358/424/387 373/425/387 374/433/387
f 367/434/388 366/428/388 381/429/388 382/435/388
f 360/436/389 359/432/389 374/433/389 375/437/389
f 368/438/390 367/434/390 382/435/390 383/439/390
f 361/440/391 360/436/391 375/437/391 376/441/391
f 354/442/392 82/444/392 369/443/392
f 308/445/393 368/438/393 383/439/393
f 362/446/394 361/440/394 376/441/394 377/447/394
f 355/448/395 354/442/395 369/443/395 370/449/395
f 363/450/396 362/446/396 377/447/396 378/451/396
f 356/452/397 355/448/397 370/449/397 371/453/397
f 364/454/398 363/450/398 378/451/398 379/455/398
f 357/427/399 356/452/399 371/453/399 372/426/399
f 365/431/400 364/454/400 379/455/400 380/430/400
f 377/447/401 376/441/401 391/457/401 392/456/401
f 370/449/402 369/443/402 384/459/402 385/458/402
f 378/451/403 377/447/403 392/456/403 393/460/403
f 371/453/404 370/449/404 385/458/404 386/461/404
f 379/455/405 378/451/405 393/460/405 394/462/405
f 372/426/406 371/453/406 386/461/406 387/463/406
f 380/430/407 379/455/407 394/462/407 395/464/407
f 373/425/408 372/426/408 387/463/408 388/465/408
f 381/429/409 380/430/409 395/464/409 396/466/409
f 374/433/410 373/425/410 388/465/410 389/467/410
f 382/435/411 381/429/411 396/466/411 397/468/411
f 375/437/412 374/433/412 389/467/412 390/469/412
f 383/439/413 382/435/413 397/468/413 398/470/413
f 376/441/414 375/437/414 390/469/414 391/457/414
f 369/443/415 82/471/415 384/459/415
f 308/472/416 383/439/416 398/470/416
f 396/466/417 395/464/417 410/474/417 411/473/417
f 389/467/418 388/465/418 403/476/418 404/475/418
f 397/468/419 396/466/419 411/473/419 412/477/419
f 390/469/420 389/467/420 404/475/420 405/478/420
f 398/470/421 397/468/421 412/477/421 413/479/421
f 391/457/422 390/469/422 405/478/422 406/480/422
f 384/459/423 82/482/423 399/481/423
f 308/483/424 398/470/424 413/479/424
f 392/456/425 391/457/425 406/480/425 407/484/425
f 385/458/426 384/459/426 399/481/426 400/485/426
f 393/460/427 392/456/427 407/484/427 408/486/427
f 386/461/428 385/458/428 400/485/428 401/487/428
f 394/462/429 393/460/429 408/486/429 409/488/429
f 387/463/430 386/461/430 401/487/430 402/489/430
f 395/464/431 394/462/431 409/488/431 410/474/431
f 388/465/432 387/463/432 402/489/432 403/476/432
f 400/485/433 399/481/433 414/491/433 415/490/433
f 408/486/434 407/484/434 422/493/434 423/492/434
f 401/487/435 400/485/435 415/490/435 416/494/435
f 409/488/436 408/486/436 423/492/436 424/495/436
f 402/489/437 401/487/437 416/494/437 417/496/437
f 410/474/438 409/488/438 424/495/438 425/497/438
f 403/476/439 402/489/439 417/496/439 418/498/439
f 411/473/440 410/474/440 425/497/440 426/499/440
f 404/475/441 403/476/441 418/498/441 419/500/441
f 412/477/442 411/473/442 426/499/442 427/501/442
f 405/478/443 404/475/443 419/500/443 420/502/443
f 413/479/444 412/477/444 427/501/444 428/503/444
f 406/480/445 405/478/445 420/502/445 421/504/445
f 399/481/446 82/505/446 414/491/446
f 308/506/447 413/479/447 428/503/447
f 407/484/448 406/480/448 421/504/448 422/493/448
f 419/500/449 418/498/449 433/508/449 434/507/449
f 427/501/450 426/499/450 441/510/450 442/509/450
f 420/502/451 419/500/451 434/507/451 435/511/451
f 428/503/452 427/501/452 442/509/452 443/512/452
f 421/504/453 420/502/453 435/511/453 436/513/453
f 414/491/454 82/515/454 429/514/454
f 308/516/455 428/503/455 443/512/455
f 422/493/456 421/504/456 436/513/456 437/517/456
f 415/490/457 414/491/457 429/514/457 430/518/457
f 423/492/458 422/493/458 437/517/458 438/519/458
f 416/494/459 415/490/459 430/518/459 431/520/459
f 424/495/460 423/492/460 438/519/460 439/521/460
f 417/496/461 416/494/461 431/520/461 432/522/461
f 425/497/462 424/495/462 439/521/462 440/523/462
f 418/498/463 417/496/463 432/522/463 433/508/463
f 426/499/464 425/497/464 440/523/464 441/510/464
f 438/519/465 437/517/465 452/525/465 453/524/465
f 431/520/466 430/518/466 445/527/466 446/526/466
f 439/521/467 438/519/467 453/524/467 454/528/467
f 432/522/468 431/520/468 446/526/468 447/529/468
f 440/523/469 439/521/469 454/528/469 455/530/469
f 433/508/470 432/522/470 447/529/470 448/531/470
f 441/510/471 440/523/471 455/530/471 456/532/471
f 434/507/472 433/508/472 448/531/472 449/533/472
f 442/509/473 441/510/473 456/532/473 457/534/473
f 435/511/474 434/507/474 449/533/474 450/535/474
f 443/512/475 442/509/475 457/534/475 458/536/475
f 436/513/476 435/511/476 450/535/476 451/537/476
f 429/514/477 82/539/477 444/538/477
f 308/540/478 443/512/478 458/536/478
f 437/517/479 436/513/479 451/537/479 452/525/479
f 430/518/480 429/514/480 444/538/480 445/527/480
f 457/534/481 456/532/481 471/542/481 472/541/481
f 450/535/482 449/533/482 464/544/482 465/543/482
f 458/536/483 457/534/483 472/541/483 473/545/483
f 451/537/484 450/535/484 465/543/484 466/546/484
f 444/538/485 82/548/485 459/547/485
f 308/549/486 458/536/486 473/545/486
f 452/525/487 451/537/487 466/546/487 467/550/487
f 445/527/488 444/538/488 459/547/488 460/551/488
f 453/524/489 452/525/489 467/550/489 468/552/489
f 446/526/490 445/527/490 460/551/490 461/553/490
f 454/528/491 453/524/491 468/552/491 469/554/491
f 447/529/492 446/526/492 461/553/492 462/555/492
f 455/530/493 454/528/493 469/554/493 470/556/493
f 448/531/494 447/529/494 462/555/494 463/557/494
f 456/532/495 455/530/495 470/556/495 471/542/495
f 449/533/496 448/531/496 463/557/496 464/544/496
f 469/554/497 468/552/497 478/8/497 6/5/497
f 462/555/498 461/553/498 1/1/498 476/9/498
f 470/556/499 469/554/499 6/5/499 479/11/499
f 463/557/500 462/555/500 476/9/500 2/13/500
f 471/542/501 470/556/501 479/11/501 480/15/501
f 464/544/502 463/557/502 2/13/502 477/17/502
f 472/541/503 471/542/503 480/15/503 481/19/503
f 465/543/504 464/544/504 477/17/504 3/21/504
f 473/545/505 472/541/505 481/19/505 482/23/505
f 466/546/506 465/543/506 3/21/506 4/25/506
f 459/547/507 82/558/507 474/27/507
f 308/559/508 473/545/508 482/23/508
f 467/550/509 466/546/509 4/25/509 5/31/509
f 460/551/510 459/547/510 474/27/510 475/4/510
f 468/552/511 467/550/511 5/31/511 478/8/511
f 461/553/512 460/551/512 475/4/512 1/1/512
