# Blender 4.4.1
# www.blender.org
mtllib player3.mtl
o 球.002
v -0.171056 0.552920 0.863060
v -0.104660 0.105297 1.021973
v 0.210778 1.257113 0.405639
v -0.110025 0.843597 0.553829
v -0.004939 0.720068 0.733436
v -0.183722 -0.418542 0.891791
v -0.170084 -0.004891 0.880605
v 0.097428 1.487579 0.292937
v 0.025929 -0.718899 0.043827
v 0.710106 1.540366 0.054461
v -0.593057 -0.011129 0.675867
v -0.688826 0.724045 0.307230
v -0.510340 -0.608433 0.461647
v -0.397958 0.842433 0.398066
v -0.771848 0.552821 0.415454
v -0.582961 0.351782 0.569007
v 1.092165 1.339442 0.000000
v 0.039302 1.591596 -0.040458
v -0.782337 -0.354742 0.236327
v -0.562100 0.841821 0.000000
v -0.842161 0.553235 -0.189007
v -0.677887 -0.604759 -0.052874
v -0.775934 0.352267 0.231471
v -0.874694 0.008725 0.174184
v -0.519470 0.841974 -0.215210
v -0.532898 0.720810 -0.506512
v -0.520041 -0.606064 -0.450424
v 0.676803 1.467212 -0.153113
v 0.112800 1.458139 -0.314193
v -0.478881 0.554096 -0.740331
v -0.798764 0.352987 -0.162731
v -0.217993 0.927665 -0.465584
v -0.174619 -0.421100 -0.912903
v -0.846717 -0.005693 -0.257386
v -0.690204 -0.355918 -0.448633
v -0.002460 0.715119 -0.727154
v 0.615243 1.267127 -0.185171
v 0.169927 0.540805 -0.874663
v -0.585506 0.351800 -0.566056
v -0.593157 -0.011710 -0.675751
v -0.107512 -0.076933 -1.013490
v 0.039995 -0.551633 -0.755543
v 0.109710 0.844376 -0.551405
v 0.518070 0.721370 -0.518871
v 0.620866 0.271076 -0.755249
v 0.644613 -0.110433 -0.783702
v 0.568014 -0.433616 -0.690593
v 0.466378 -0.608965 -0.471754
v 0.397463 1.027937 -0.314779
v 0.313099 0.844806 -0.470819
v -0.186253 0.349502 -0.843733
v 0.608865 1.165034 0.094033
v 0.523471 0.843348 -0.216245
v 0.831092 0.545541 -0.325244
v 0.985757 -0.107568 -0.179007
v 0.888859 -0.437701 -0.098865
v 0.695536 0.724854 0.300699
v 0.657598 -0.604002 0.004030
v 0.957042 0.257299 0.175246
v 0.551136 0.842493 0.109453
v 0.789326 0.550658 0.349977
v 0.946287 -0.106455 0.304881
v 0.723646 -0.503279 0.425832
v 0.783986 0.050458 0.644737
v 0.213996 1.045034 0.466307
v 0.443992 0.538078 0.768068
v 0.334155 -0.087540 0.951027
v 0.291709 -0.367866 0.885348
v 0.210086 -0.554662 0.739643
v 0.217036 0.844749 0.523602
v -0.201494 0.418792 0.908520
v -0.594500 -0.438583 0.680719
v -0.877338 0.433234 0.339775
v -0.881955 -0.433037 0.158446
v -0.791785 -0.436468 -0.448381
v -0.820749 0.430402 -0.428547
v -0.201779 0.418478 -0.907865
v -0.073576 1.278842 0.405951
v -0.282267 1.331044 0.125048
v -0.207031 1.330675 -0.279069
v 0.117012 1.124233 -0.486995
v 0.512161 0.967238 -0.045426
v -0.425757 0.478114 1.519019
v -1.553531 0.480197 0.471185
v -1.115902 0.481584 -1.115569
v -0.000569 0.475230 -1.576100
v 1.115385 0.480038 -1.124347
v 1.577265 0.477787 0.155239
v 0.874919 0.480005 1.320291
v -0.213072 0.367888 0.799436
v -0.278042 -0.371187 0.772977
v -0.214157 -0.364276 -0.796298
vn 0.0394 -0.2466 0.9683
vn -0.1181 -0.8722 0.4747
vn 0.3444 0.4285 0.8353
vn -0.2570 0.3394 -0.9049
vn -0.5106 0.6935 0.5082
vn -0.6082 -0.7232 0.3271
vn 0.0316 0.9557 0.2927
vn -0.6624 0.7388 -0.1240
vn -0.6992 -0.7079 -0.0999
vn -0.9968 -0.0308 -0.0733
vn -0.5195 -0.8299 -0.2035
vn 0.3932 0.8456 -0.3611
vn -0.5922 -0.2737 -0.7579
vn -0.2694 0.4399 -0.8567
vn -0.1754 -0.8619 -0.4757
vn 0.2387 0.4487 -0.8612
vn 0.3564 0.0399 -0.9335
vn 0.0176 0.2117 -0.9772
vn 0.2254 -0.5763 -0.7855
vn -0.0073 -0.9787 -0.2049
vn -0.1810 0.6850 -0.7057
vn 0.2642 -0.9077 -0.3259
vn 0.1750 -0.9827 -0.0601
vn 0.9967 -0.0005 0.0813
vn 0.6082 -0.7883 0.0930
vn 0.8776 -0.4243 0.2233
vn 0.2923 0.9403 0.1744
vn 0.1127 -0.9722 0.2051
vn 0.8706 0.2429 0.4279
vn 0.5236 0.1532 0.8381
vn 0.3652 -0.6560 0.6605
vn 0.0471 0.9473 0.3170
vn -0.4180 0.5781 0.7008
vn -0.4167 0.8929 0.1704
vn -0.7731 0.4389 0.4579
vn -0.4922 0.8116 -0.3149
vn 0.2620 0.6920 -0.6727
vn 0.8241 0.3092 -0.4746
vn 0.4235 0.8376 -0.3452
vn 0.9758 0.2026 -0.0824
vn 0.0576 0.2969 0.9532
vn 0.7019 -0.2855 0.6525
vn -0.0016 -0.9999 -0.0160
vn -0.4329 0.1438 0.8899
vn -0.4300 -0.1355 0.8926
vn -0.6682 -0.4187 0.6150
vn -0.9863 0.1501 -0.0689
vn -0.5582 -0.3415 -0.7561
vn 0.5218 -0.0179 -0.8529
vn 0.0780 -0.6341 0.7693
vn 0.4291 0.7340 0.5264
vn 0.0356 0.4531 0.8907
vn 0.2686 0.5265 0.8066
vn -0.2364 -0.8098 0.5370
vn -0.6041 0.2329 0.7621
vn -0.4517 0.3207 0.8326
vn -0.4822 0.8089 0.3364
vn -0.5285 -0.8325 0.1662
vn -0.7746 0.6260 0.0905
vn -0.1662 -0.9850 0.0471
vn -0.2952 0.9526 -0.0737
vn 0.1109 0.9166 -0.3842
vn -0.3692 0.7925 -0.4855
vn -0.6568 0.3314 -0.6774
vn -0.6134 0.6792 -0.4031
vn -0.1522 -0.9867 -0.0572
vn -0.4295 -0.6810 -0.5931
vn -0.1057 0.9564 -0.2722
vn 0.2651 -0.3210 -0.9092
vn -0.1432 0.6400 -0.7549
vn 0.4877 0.2947 -0.8217
vn 0.1039 0.9562 -0.2736
vn 0.2465 -0.8089 -0.5337
vn 0.2972 0.0838 -0.9511
vn 0.8229 -0.3394 -0.4557
vn 0.5158 0.5852 -0.6257
vn 0.8679 0.0941 -0.4877
vn 0.8523 -0.4310 -0.2962
vn 0.2738 0.9581 -0.0839
vn 0.6217 -0.3205 0.7147
vn 0.9711 0.2012 -0.1285
vn 0.9615 -0.2630 0.0790
vn 0.8798 0.4727 0.0508
vn 0.9157 0.1106 0.3863
vn 0.8033 -0.2926 0.5187
vn 0.7177 0.3478 0.6033
vn 0.7668 0.4174 0.4876
vn 0.4371 -0.6641 0.6066
vn 0.5539 -0.7893 -0.2650
vn 0.1238 0.9696 0.2111
vn 0.0476 0.8358 0.5470
vn 0.2531 0.2303 0.9396
vn 0.0534 -0.2355 0.9704
vn -0.9370 -0.0117 -0.3492
vn -0.8978 -0.0200 0.4400
vn -0.5227 0.8524 -0.0130
vn -0.6506 -0.7592 -0.0185
vn -0.8444 0.5107 -0.1619
vn 0.0255 -0.9938 0.1084
vn -0.8566 0.1663 0.4885
vn -0.5193 0.2547 0.8158
vn -0.9451 -0.3120 -0.0973
vn -0.8660 -0.1379 0.4807
vn -0.9620 0.2672 0.0562
vn -0.8507 0.2027 -0.4851
vn -0.8516 -0.0995 -0.5147
vn -0.5516 0.2516 -0.7952
vn -0.3438 -0.0489 -0.9378
vn -0.1874 0.9539 0.2343
vn 0.8238 0.5470 -0.1488
vn 0.1371 0.3494 0.9269
vt 0.558855 0.900392
vt 0.621192 0.820868
vt 0.635468 0.906868
vt 0.741252 0.644080
vt 0.731478 0.711108
vt 0.646505 0.724126
vt 0.692995 0.883016
vt 0.635618 0.752655
vt 0.692110 0.793758
vt 0.797460 0.656707
vt 0.843184 0.661632
vt 0.826113 0.706756
vt 0.758747 0.694645
vt 0.754362 0.922974
vt 0.795732 0.972164
vt 0.741251 0.955749
vt 0.670002 0.752655
vt 0.574146 0.752655
vt 0.758654 0.817125
vt 0.809978 0.913554
vt 0.852128 0.939142
vt 0.561047 0.707837
vt 0.495710 0.692914
vt 0.954109 0.126164
vt 0.977346 0.202232
vt 0.959526 0.236738
vt 0.517316 0.654781
vt 0.741251 0.757059
vt 0.789596 0.811352
vt 0.000000 0.720836
vt 0.030695 0.691738
vt 0.007214 0.757835
vt 0.741251 0.647728
vt 0.478084 0.569922
vt 0.517516 0.552124
vt 0.741251 0.553538
vt 0.762181 0.482552
vt 0.773309 0.564879
vt 0.021488 0.631500
vt 0.112600 0.695036
vt 0.164245 0.707660
vt 0.185093 0.584837
vt 0.189514 0.670068
vt 0.590816 0.514158
vt 0.629792 0.616384
vt 0.865891 0.688141
vt 0.857569 0.757059
vt 0.309109 0.909935
vt 0.353381 0.840815
vt 0.353381 0.920047
vt 0.672613 0.524093
vt 0.251849 0.502224
vt 0.309780 0.557697
vt 0.251188 0.578340
vt 0.675251 0.483229
vt 0.736639 0.547303
vt 0.189514 0.607935
vt 0.199676 0.519427
vt 0.478084 0.161499
vt 0.604654 0.230248
vt 0.515061 0.375494
vt 0.358144 0.592419
vt 0.277175 0.638213
vt 0.478084 0.840293
vt 0.531295 0.758918
vt 0.551189 0.854455
vt 0.645989 0.834062
vt 0.683917 0.336102
vt 0.697573 0.482552
vt 0.941473 0.806643
vt 0.940729 0.847616
vt 0.920395 0.880091
vt 0.920395 0.774499
vt 0.103036 0.899781
vt 0.150155 0.850251
vt 0.150155 0.905774
vt 0.079232 0.899505
vt 0.004562 0.916964
vt -0.000000 0.862079
vt 0.082776 0.830351
vt 0.909089 0.892343
vt 0.868667 0.941858
vt 0.865891 0.892343
vt 0.843273 0.626483
vt 0.865261 0.598068
vt 0.840886 0.581090
vt 0.812075 0.605158
vt 0.818226 0.573606
vt 0.942975 0.892343
vt 0.915011 0.936906
vt 0.909088 0.892343
vt 0.406301 0.874838
vt 0.427335 0.853094
vt 0.425597 0.901687
vt 0.715886 0.922749
vt 0.658776 0.956957
vt 0.635618 0.909682
vt 0.663486 0.896730
vt 0.358634 0.790797
vt 0.392944 0.781840
vt 0.376090 0.857973
vt 0.206056 0.093950
vt 0.138545 0.000000
vt 0.332121 0.000000
vt 0.478084 0.162837
vt 0.443569 0.378794
vt 0.261640 0.486853
vt 0.030368 0.398709
vt 0.000000 0.135858
vt 0.117389 0.153035
vt 0.096452 0.257103
vt 0.143356 0.342939
vt 0.259893 0.373409
vt 0.345901 0.322230
vt 0.372160 0.239046
vt 0.337716 0.135931
vt 0.177787 0.757835
vt 0.177787 0.845546
vt 0.132812 0.794645
vt 0.103036 0.850251
vt 0.244575 0.748928
vt 0.189514 0.825961
vt 0.190000 0.715164
vt 0.247032 0.840803
vt 0.304801 0.886086
vt 0.247219 0.903183
vt 0.865891 0.834686
vt 0.920395 0.892343
vt 0.865891 0.885416
vt 0.572429 0.932984
vt 0.664756 0.289133
vt 0.638990 0.208054
vt 0.731781 0.884406
vt 0.955204 -0.000000
vt 0.977346 0.004576
vt 0.973902 0.108151
vt 0.675566 1.000000
vt 0.834960 0.184437
vt 0.954109 0.134487
vt 0.926960 0.395051
vt 0.810868 0.313887
vt 0.843565 0.888283
vt 0.833566 0.739461
vt 0.150155 0.955742
vt 0.150155 0.850251
vt 0.166113 0.924401
vt 0.814394 -0.000000
vt 0.768570 0.120295
vt 0.136966 0.570879
vt 0.678838 0.119848
vt 0.621595 -0.000000
vt 0.567033 0.482552
vt 0.075729 0.563922
vt 0.189514 0.504715
vt 0.140743 0.486853
vt 0.034435 0.502613
vt 0.394326 0.910515
vt 0.358634 0.900999
vt 0.214544 0.699232
vt 0.258915 0.707061
vt 0.358634 0.486853
vt 0.358634 0.673267
vt 0.425345 0.773382
vt 0.489352 0.932984
vt 0.711790 0.313151
vt 0.458378 0.773381
vt 0.471846 0.850660
vt 0.463665 0.907545
vt 0.448423 0.900156
vt 0.448423 0.785042
vt 0.332905 0.774485
vt 0.351544 0.835321
vt 0.327664 0.840814
vt 0.309109 0.755116
vt 0.335181 0.707061
vt 0.351544 0.715937
vt 0.441462 0.559758
vt 0.365186 0.503992
vt 0.358634 0.486853
vt 0.457375 0.562007
vt 0.471390 0.658427
vt 0.424730 0.741038
vt 0.358634 0.773381
vt 0.374135 0.753465
vt 0.455716 0.668646
vt 0.975398 0.774499
vt 0.865891 0.683992
vt 0.873895 0.560431
vt 0.972756 0.482552
vt 0.975398 0.493191
vt 0.911589 0.538390
vt 0.877871 0.603521
vt 0.882106 0.666852
vt 0.913621 0.720827
vt 0.973420 0.757243
vt -0.000000 0.806621
vt 0.082682 0.800970
vt 0.103036 0.757835
vt 0.102702 0.869219
vt 0.303414 0.764096
vt 0.302963 0.826128
vt 0.309109 0.707061
vt 0.193843 0.922019
vt 0.309109 0.932845
vt 0.251294 0.949692
vt 0.869520 0.774499
vt 0.915908 0.779284
vt 0.448423 0.830885
vt 0.443884 0.947932
vt 0.630239 0.752655
vt 0.635618 0.772985
s 0
usemtl マテリアル
f 68/1/1 2/2/1 6/3/1
f 69/4/2 6/5/2 13/6/2
f 3/7/3 17/8/3 10/9/3
f 81/10/4 43/11/4 32/12/4 80/13/4
f 8/14/5 79/15/5 78/16/5
f 13/6/6 72/17/6 74/18/6
f 10/19/7 18/20/7 8/14/7
f 79/15/8 18/20/8 80/21/8
f 22/22/9 74/18/9 75/23/9
f 73/24/10 21/25/10 76/26/10
f 22/22/11 75/23/11 27/27/11
f 10/19/12 17/28/12 28/29/12
f 30/30/13 77/31/13 76/32/13
f 80/13/14 29/33/14 81/10/14
f 33/34/15 42/35/15 27/27/15
f 29/33/16 28/36/16 81/10/16
f 28/36/17 17/37/17 37/38/17
f 38/39/18 41/40/18 77/31/18
f 33/41/19 47/42/19 42/43/19
f 27/27/20 42/35/20 48/44/20 9/45/20
f 32/12/21 43/11/21 36/46/21 26/47/21
f 37/48/22 17/49/22 52/50/22
f 48/44/23 58/51/23 9/45/23
f 55/52/24 59/53/24 62/54/24
f 56/55/25 63/56/25 58/51/25
f 62/54/26 63/57/26 56/58/26
f 88/59/27 57/60/27 89/61/27
f 13/6/28 9/45/28 58/51/28 63/56/28 69/4/28
f 61/62/29 64/63/29 59/53/29
f 64/64/30 66/65/30 67/66/30
f 52/67/31 17/8/31 3/7/31
f 5/68/32 83/69/32 89/61/32
f 4/70/33 14/71/33 12/72/33 5/73/33
f 14/74/34 20/75/34 12/76/34
f 14/77/35 78/78/35 79/79/35 20/80/35
f 25/81/36 32/82/36 26/83/36
f 43/11/37 50/84/37 44/85/37 36/46/37
f 53/86/38 50/84/38 49/87/38 82/88/38
f 50/89/39 53/90/39 44/91/39
f 82/92/40 60/93/40 53/94/40
f 78/95/41 4/96/41 70/97/41 65/98/41 3/7/41
f 3/99/42 65/100/42 82/92/42 52/101/42
f 38/102/43 86/103/43 87/104/43 88/105/43 89/106/43 83/107/43 84/108/43 85/109/43 30/110/43 21/111/43 15/112/43 1/113/43 66/114/43 61/115/43 54/116/43
f 90/117/44 11/118/44 7/119/44
f 11/118/45 91/120/45 7/119/45
f 11/121/46 19/122/46 91/123/46
f 24/124/47 31/125/47 34/126/47
f 40/127/48 92/128/48 35/129/48
f 28/36/49 37/38/49 49/87/49 81/10/49
f 69/130/50 68/1/50 6/3/50
f 70/131/51 5/68/51 57/60/51 60/132/51
f 78/95/52 3/7/52 8/133/52
f 3/7/53 10/9/53 8/133/53
f 72/17/54 13/6/54 6/5/54
f 71/134/55 1/135/55 15/136/55 73/24/55
f 4/96/56 78/95/56 14/137/56
f 8/14/57 18/20/57 79/15/57
f 13/6/58 74/18/58 22/22/58
f 15/136/59 21/25/59 73/24/59
f 13/6/60 22/22/60 9/45/60
f 26/138/61 85/139/61 84/140/61 12/141/61
f 28/29/62 29/142/62 18/20/62 10/19/62
f 80/21/63 18/20/63 29/142/63
f 80/13/64 32/12/64 25/143/64
f 21/144/65 30/145/65 76/146/65
f 9/45/66 22/22/66 27/27/66
f 27/27/67 75/23/67 33/34/67
f 86/147/68 85/139/68 26/138/68 36/148/68
f 46/149/69 47/42/69 33/41/69 41/40/69
f 30/30/70 38/39/70 77/31/70
f 50/84/71 43/11/71 81/10/71 49/87/71
f 44/150/72 87/151/72 86/147/72 36/148/72
f 42/35/73 47/152/73 48/44/73
f 46/149/74 41/40/74 38/39/74 45/153/74
f 56/154/75 47/42/75 46/149/75 55/155/75
f 45/153/76 38/39/76 54/156/76
f 54/156/77 55/155/77 46/149/77 45/153/77
f 82/92/78 49/157/78 37/158/78 52/101/78
f 88/59/79 87/151/79 44/150/79 57/60/79
f 68/159/80 63/57/80 64/63/80 67/160/80
f 55/52/81 54/161/81 59/53/81
f 55/52/82 62/54/82 56/58/82
f 54/161/83 61/62/83 59/53/83
f 62/54/84 59/53/84 64/63/84
f 62/54/85 64/63/85 63/57/85
f 61/62/86 66/162/86 64/63/86
f 82/92/87 65/100/87 70/163/87 60/93/87
f 63/164/88 68/1/88 69/130/88
f 48/44/89 47/152/89 56/55/89 58/51/89
f 57/60/90 5/68/90 89/61/90
f 70/131/91 4/165/91 5/68/91
f 67/66/92 66/65/92 2/2/92
f 67/66/93 2/2/93 68/1/93
f 77/166/94 41/167/94 33/168/94 92/169/94 51/170/94
f 7/171/95 91/172/95 6/173/95 2/174/95 71/175/95 90/176/95
f 35/177/96 92/178/96 33/179/96 75/180/96 74/181/96 72/182/96 6/183/96 91/184/96 19/185/96
f 71/186/97 73/187/97 76/188/97 77/189/97 51/190/97 39/191/97 31/192/97 23/193/97 16/194/97 90/195/97
f 80/196/98 25/197/98 26/198/98 12/199/98 20/80/98 79/79/98
f 85/109/99 86/103/99 38/102/99 30/110/99
f 24/124/100 11/121/100 16/200/100 23/201/100
f 11/121/101 90/202/101 16/200/101
f 34/126/102 35/203/102 19/122/102 24/124/102
f 11/121/103 24/124/103 19/122/103
f 23/201/104 31/125/104 24/124/104
f 39/204/105 40/205/105 34/126/105 31/125/105
f 35/203/106 34/126/106 40/205/106
f 39/206/107 51/207/107 40/127/107
f 92/128/108 40/127/108 51/207/108
f 5/68/109 12/141/109 84/140/109 83/69/109
f 57/208/110 44/209/110 53/94/110 60/93/110
f 66/65/111 1/210/111 71/211/111 2/2/111
