# Blender 4.5.1 LTS
# www.blender.org
mtllib enemy.mtl
o 立方体.001
v -0.859581 -0.295892 -0.859581
v -0.859581 0.295892 -0.859581
v 0.859581 -0.295892 -0.859581
v 0.859581 0.295892 -0.859581
v -0.859581 -0.295892 0.859581
v -0.859581 0.295892 0.859581
v 0.859581 -0.295892 0.859581
v 0.859581 0.295892 0.859581
v -1.000000 -1.000000 -1.000000
v -1.000000 1.000000 -1.000000
v 1.000000 -1.000000 -1.000000
v 1.000000 1.000000 -1.000000
v -1.000000 -1.000000 1.000000
v -1.000000 1.000000 1.000000
v 1.000000 -1.000000 1.000000
v 1.000000 1.000000 1.000000
v -1.000000 -0.295892 -1.000000
v -1.000000 0.295892 -1.000000
v 1.000000 -0.295892 -1.000000
v 1.000000 0.295892 -1.000000
v 1.000000 -0.295892 1.000000
v 1.000000 0.295892 1.000000
v -1.000000 -0.295892 1.000000
v -1.000000 0.295892 1.000000
vn -0.0000 -0.0000 -1.0000
vn 1.0000 -0.0000 -0.0000
vn -0.0000 -0.0000 1.0000
vn -1.0000 -0.0000 -0.0000
vn -0.0000 -1.0000 -0.0000
vn -0.0000 1.0000 -0.0000
vt 0.249820 0.373983
vt 0.249820 0.458160
vt 0.053863 0.458160
vt 0.053863 0.373983
vt 0.932204 0.457631
vt 0.736628 0.457631
vt 0.736628 0.374512
vt 0.932204 0.374512
vt 0.705823 0.372980
vt 0.705823 0.458241
vt 0.507959 0.458241
vt 0.507959 0.372980
vt 0.479061 0.374298
vt 0.479061 0.458043
vt 0.279671 0.458043
vt 0.279671 0.374298
vt 0.815762 0.839841
vt 0.815762 0.973234
vt 0.682369 0.973234
vt 0.682369 0.839841
vt 0.973234 0.839841
vt 0.973234 0.973234
vt 0.839841 0.973234
vt 0.839841 0.839841
vt 0.037056 0.552032
vt 0.037056 0.477645
vt 0.264581 0.477645
vt 0.264581 0.552032
vt 0.719631 0.287678
vt 0.492106 0.287678
vt 0.492106 0.362066
vt 0.719631 0.362066
vt 0.719631 0.552032
vt 0.719631 0.477645
vt 0.947155 0.477645
vt 0.947155 0.552032
vt 0.947155 0.287615
vt 0.719631 0.287615
vt 0.719631 0.362003
vt 0.947155 0.362003
vt 0.492106 0.552096
vt 0.492106 0.477645
vt 0.719631 0.552096
vt 0.264581 0.362066
vt 0.264581 0.287615
vt 0.037056 0.287615
vt 0.037056 0.362066
vt 0.492106 0.552032
vt 0.492106 0.287615
vt 0.492106 0.362003
vt 0.264581 0.362003
vt 0.264581 0.287615
vt 0.492106 0.574296
vt 0.492106 0.801821
vt 0.264581 0.801821
vt 0.264581 0.574296
vt 0.492106 0.044288
vt 0.492106 0.271813
vt 0.264581 0.271813
vt 0.264581 0.044288
vt 0.947155 0.044288
vt 0.947155 0.271813
vt 0.719631 0.271813
vt 0.719631 0.044288
vt 0.719631 0.574296
vt 0.947155 0.574296
vt 0.947155 0.801821
vt 0.719631 0.801821
s 0
usemtl マテリアル
f 1/1/1 2/2/1 4/3/1 3/4/1
f 3/5/2 4/6/2 8/7/2 7/8/2
f 7/9/3 8/10/3 6/11/3 5/12/3
f 5/13/4 6/14/4 2/15/4 1/16/4
f 3/17/5 7/18/5 5/19/5 1/20/5
f 8/21/6 4/22/6 2/23/6 6/24/6
f 18/25/1 10/26/1 12/27/1 20/28/1
f 11/29/1 9/30/1 17/31/1 19/32/1
f 20/33/2 12/34/2 16/35/2 22/36/2
f 15/37/2 11/38/2 19/39/2 21/40/2
f 22/41/3 16/42/3 14/34/3 24/43/3
f 23/44/3 13/45/3 15/46/3 21/47/3
f 24/28/4 14/27/4 10/42/4 18/48/4
f 17/49/4 9/50/4 13/51/4 23/52/4
f 11/53/5 15/54/5 13/55/5 9/56/5
f 16/57/6 12/58/6 10/59/6 14/60/6
f 21/61/6 19/62/6 17/63/6 23/64/6
f 18/65/5 20/66/5 22/67/5 24/68/5
